<?xml version="1.0" encoding="UTF-8"?><svg id="Ebene_1" xmlns="http://www.w3.org/2000/svg" viewBox="0 0 302.29 123.85"><rect id="Rechteck_2898" x="1.41" width="52.19" height="4" style="fill:#276cea; stroke-width:0px;"/><path id="Pfad_940" d="m2.72,64.45v5.55H.99v-12.79h4.63c1.15-.08,2.28.25,3.21.93.77.68,1.17,1.68,1.11,2.71.01.61-.17,1.21-.51,1.71-.38.52-.9.92-1.5,1.16.63.17,1.17.57,1.52,1.11.32.58.48,1.24.46,1.9v1.2c0,.36.04.72.13,1.07.08.3.23.56.46.77v.22h-1.78c-.25-.23-.4-.54-.44-.88-.07-.4-.1-.8-.1-1.2v-1.16c.03-.62-.19-1.22-.61-1.67-.43-.43-1.02-.66-1.63-.63h-3.22Zm0-1.36h2.73c.75.07,1.5-.13,2.11-.56.46-.44.7-1.07.65-1.7.04-.62-.19-1.23-.63-1.67-.55-.44-1.25-.65-1.96-.59h-2.9v4.52Zm15.71,6.91c-.06-.29-.1-.54-.14-.76-.03-.22-.05-.44-.06-.66-.33.47-.76.86-1.26,1.15-.51.3-1.08.46-1.67.46-.83.06-1.64-.22-2.26-.76-.54-.56-.82-1.32-.78-2.1-.03-.85.39-1.66,1.1-2.13.9-.56,1.94-.83,2.99-.77h1.88v-.94c.02-.49-.16-.97-.51-1.32-.4-.35-.92-.52-1.44-.49-.49-.02-.97.13-1.36.43-.33.24-.52.62-.52,1.03h-1.65l-.02-.05c0-.76.36-1.47.98-1.9.76-.6,1.7-.9,2.67-.86.94-.05,1.86.25,2.6.82.68.59,1.04,1.47.98,2.37v4.58c0,.33.02.66.05.98.03.32.1.63.19.93h-1.78Zm-2.87-1.27c.6,0,1.19-.16,1.7-.48.44-.25.79-.64.98-1.11v-1.54h-1.94c-.6-.03-1.2.16-1.67.53-.39.29-.62.75-.63,1.24-.02.38.13.74.4,1,.33.27.74.4,1.16.37Zm3.68-10.01h-1.92v-1.76h1.92v1.76Zm-4.13,0h-1.92v-1.76h1.93v1.76Zm13.41,9.87c-.28.49-.67.89-1.15,1.18-.49.28-1.06.42-1.63.41-.92.05-1.81-.31-2.43-.99-.65-.89-.96-1.99-.87-3.09v-5.61h1.73v5.62c-.07.73.09,1.46.45,2.09.35.4.87.62,1.4.57.53.02,1.06-.11,1.52-.37.4-.25.72-.62.91-1.06v-6.85h1.73v9.51h-1.56l-.11-1.41Zm5.74-8.1l.12,1.25c.3-.44.71-.8,1.18-1.05.52-.26,1.09-.39,1.67-.37.57-.02,1.14.14,1.63.44.47.32.83.78,1.02,1.32.28-.52.69-.96,1.19-1.28.52-.32,1.11-.49,1.72-.48.88-.04,1.72.33,2.29,1,.63.87.92,1.93.84,3v5.68h-1.73v-5.7c.06-.7-.11-1.4-.48-1.99-.36-.41-.9-.62-1.44-.58-.55-.02-1.07.21-1.44.61-.38.44-.6.98-.65,1.56v6.1h-1.74v-5.7c.05-.69-.12-1.38-.5-1.96-.35-.42-.88-.65-1.43-.62-.46-.02-.91.09-1.3.32-.34.22-.62.54-.78.91v7.04h-1.73v-9.51h1.55Zm18.13,9.69c-1.2.05-2.36-.43-3.16-1.32-.81-.96-1.23-2.18-1.17-3.43v-.39c-.04-1.24.39-2.45,1.21-3.38.71-.85,1.75-1.35,2.86-1.35,1.1-.08,2.17.35,2.91,1.16.69.88,1.04,1.98.98,3.09v1.08h-6.17l-.03.04c-.02.81.23,1.6.69,2.25.44.59,1.14.92,1.87.88.52.01,1.05-.07,1.54-.25.42-.16.81-.39,1.15-.69l.68,1.12c-.39.36-.85.65-1.35.83-.65.24-1.33.35-2.02.33h0Zm-.26-8.51c-.58,0-1.13.27-1.49.73-.43.53-.69,1.17-.76,1.84l.02.04h4.39v-.23c.02-.61-.17-1.22-.54-1.7-.4-.47-1-.73-1.62-.69h0Zm7.35,7.9l-1.32,2.69h-1.03l.62-2.78v-1.43h1.73v1.52Zm8.57-4.71v5.13h-1.73v-12.8h4.9c1.16-.07,2.3.31,3.18,1.05.76.72,1.18,1.73,1.13,2.78.05,1.05-.37,2.07-1.13,2.79-.89.74-2.03,1.11-3.18,1.04h-3.17Zm0-1.35h3.16c.72.06,1.43-.2,1.94-.7.43-.48.66-1.11.64-1.76.02-.65-.21-1.29-.65-1.77-.51-.51-1.22-.77-1.94-.71h-3.16v4.95Zm11.35,6.49h-1.73v-13.71h1.73v13.71Zm8.51,0c-.06-.29-.1-.54-.14-.76-.03-.22-.05-.44-.06-.66-.33.47-.76.86-1.26,1.15-.51.3-1.08.46-1.67.46-.83.06-1.64-.22-2.26-.76-.54-.56-.82-1.32-.78-2.1-.03-.85.39-1.66,1.1-2.13.9-.56,1.94-.83,2.99-.77h1.88v-.94c.02-.49-.16-.97-.51-1.32-.4-.35-.92-.52-1.44-.49-.49-.02-.97.13-1.36.43-.33.24-.52.62-.52,1.02h-1.65l-.02-.05c0-.76.36-1.47.98-1.9.76-.6,1.7-.9,2.67-.86.94-.05,1.86.25,2.6.82.68.59,1.04,1.47.98,2.37v4.58c0,.33.02.66.05.98.03.32.1.63.19.93h-1.78Zm-2.87-1.27c.6,0,1.19-.16,1.7-.48.44-.25.79-.64.98-1.11v-1.54h-1.95c-.6-.03-1.2.16-1.67.53-.39.29-.62.75-.63,1.24-.02.38.13.74.4,1,.33.27.74.4,1.16.37h0Zm3.68-10.01h-1.93v-1.76h1.93v1.76Zm-4.13,0h-1.93v-1.76h1.93v1.76Zm9.66-.52v2.29h1.8v1.28h-1.8v5.77c-.03.34.06.68.28.94.2.19.46.28.73.27.11,0,.22-.01.33-.03.11-.02.22-.05.32-.09l.23,1.19c-.17.12-.36.21-.57.26-.24.07-.5.1-.75.1-.62.03-1.23-.2-1.68-.64-.46-.56-.69-1.28-.62-2v-5.77h-1.51v-1.28h1.51v-2.29h1.73Zm5.57,10.45h5.49v1.35h-7.56v-1.21l5.14-6.93h-5.08v-1.37h7.2v1.18l-5.19,6.98Zm11.22,1.54c-1.2.05-2.36-.43-3.16-1.32-.81-.96-1.23-2.18-1.17-3.43v-.39c-.04-1.24.39-2.45,1.21-3.38.71-.85,1.75-1.35,2.86-1.35,1.1-.08,2.17.35,2.91,1.16.69.88,1.04,1.98.98,3.09v1.08h-6.17l-.03.04c-.02.81.23,1.6.69,2.25.44.59,1.14.92,1.87.88.52.01,1.05-.07,1.54-.25.42-.16.81-.39,1.15-.69l.68,1.13c-.39.36-.85.65-1.35.83-.65.24-1.33.35-2.03.33h0Zm-.26-8.51c-.58,0-1.13.27-1.49.73-.43.53-.69,1.17-.76,1.84l.02.04h4.39v-.23c.02-.61-.17-1.22-.54-1.7-.4-.47-1-.73-1.62-.69h0Zm16.35,6.92c-.28.49-.67.89-1.15,1.18-.49.28-1.06.42-1.63.41-.92.05-1.81-.31-2.43-.99-.65-.89-.96-1.99-.87-3.09v-5.61h1.73v5.62c-.07.73.09,1.46.45,2.09.35.4.87.62,1.4.57.53.02,1.06-.11,1.53-.37.4-.25.72-.62.91-1.06v-6.85h1.73v9.51h-1.56l-.12-1.4Zm5.74-8.1l.12,1.41c.29-.48.7-.89,1.19-1.17.5-.28,1.06-.43,1.63-.42.89-.05,1.75.27,2.38.9.62.79.93,1.78.84,2.78v6h-1.73v-5.97c.06-.64-.12-1.27-.5-1.78-.41-.38-.96-.57-1.52-.53-.47,0-.93.12-1.32.36-.39.24-.7.58-.92.98v6.94h-1.73v-9.51h1.55Zm8.29,4.93c-.06-1.3.28-2.6.98-3.7.61-.91,1.65-1.45,2.75-1.41.51,0,1.02.1,1.48.31.43.21.81.52,1.1.9v-5.24h1.73v13.71h-1.41l-.2-1.17c-.29.43-.68.78-1.14,1.01-.49.24-1.03.35-1.57.34-1.06.05-2.08-.42-2.73-1.26-.69-.96-1.04-2.13-.98-3.32v-.18Zm1.73.19c-.04.81.17,1.61.59,2.31.42.59,1.11.92,1.83.87.46.02.91-.11,1.3-.35.37-.25.66-.59.86-.98v-4.45c-.21-.38-.51-.7-.87-.94-.38-.24-.83-.36-1.28-.35-.76-.04-1.48.36-1.84,1.03-.43.82-.63,1.74-.59,2.67v.2Zm20.63,1.09h-5.36l-1.21,3.3h-1.77l4.95-12.8h1.49l4.87,12.8h-1.76l-1.2-3.3Zm-4.82-1.45h4.31l-2.11-5.83h-.05l-2.15,5.83Zm13.72-3.23l-.89-.05c-.41-.01-.81.1-1.16.32-.32.23-.58.55-.73.91v6.79h-1.73v-9.51h1.55l.17,1.39c.24-.46.58-.85,1-1.15.4-.28.88-.42,1.37-.41.12,0,.25.01.37.03.1.02.19.04.29.07l-.24,1.61Zm5.37,6.81c.55,0,1.09-.18,1.52-.53.41-.31.66-.79.65-1.31h1.56l.02.05c0,.86-.4,1.68-1.09,2.18-.74.63-1.68.97-2.65.95-1.21.07-2.39-.43-3.17-1.35-.76-.97-1.14-2.17-1.1-3.4v-.37c-.04-1.22.35-2.42,1.1-3.39,1.56-1.66,4.14-1.82,5.9-.37.69.61,1.06,1.5,1.02,2.42l-.02.05h-1.56c0-.56-.21-1.09-.62-1.48-.41-.41-.98-.63-1.56-.61-.78-.07-1.53.31-1.95.98-.41.73-.61,1.56-.58,2.4v.37c-.03.85.17,1.69.58,2.43.42.66,1.17,1.04,1.95.97h0Zm7.42-7.07c.31-.44.73-.81,1.2-1.07.49-.26,1.03-.39,1.59-.38.88-.05,1.75.28,2.37.91.63.8.93,1.8.85,2.81v5.96h-1.73v-5.98c.05-.62-.13-1.24-.51-1.74-.4-.4-.95-.6-1.51-.56-.46,0-.91.11-1.3.34-.39.23-.72.54-.96.92v7.02h-1.73v-13.71h1.73v5.48Zm10.37,8.23h-1.73v-9.51h1.73v9.51Zm0-11.94h-1.73v-1.77h1.73v1.77Zm4.95.14v2.29h1.8v1.28h-1.8v5.77c-.03.34.06.68.28.94.2.19.46.28.73.27.11,0,.22-.01.33-.03.11-.02.22-.05.32-.09l.23,1.19c-.17.12-.36.21-.57.26-.24.07-.5.1-.75.1-.62.03-1.23-.2-1.67-.64-.46-.56-.69-1.28-.62-2v-5.77h-1.51v-1.28h1.51v-2.29h1.72Zm7.88,11.99c-1.2.05-2.36-.43-3.16-1.32-.81-.96-1.23-2.18-1.17-3.43v-.39c-.04-1.24.39-2.45,1.21-3.38.71-.85,1.75-1.35,2.86-1.35,1.1-.08,2.17.35,2.91,1.16.69.88,1.04,1.98.98,3.09v1.08h-6.17l-.03.04c-.02.81.23,1.6.69,2.25.44.59,1.14.92,1.87.88.52.01,1.05-.07,1.54-.25.42-.16.81-.39,1.15-.69l.68,1.12c-.39.36-.85.65-1.35.83-.65.24-1.33.35-2.02.33h0Zm-.26-8.51c-.58,0-1.13.27-1.49.73-.43.53-.69,1.17-.76,1.84l.02.04h4.39v-.23c.02-.61-.17-1.22-.54-1.7-.4-.47-1-.73-1.62-.69h0Zm8.7,3.94h-1.12v4.38h-1.73v-13.71h1.73v7.95h1.11l2.6-3.74h2.07l-3.25,4.32,3.72,5.19h-2.04l-3.09-4.38Zm8.65-7.42v2.29h1.8v1.28h-1.8v5.77c-.03.34.06.68.28.94.2.19.46.28.73.27.11,0,.22-.01.33-.03.11-.02.22-.05.32-.09l.23,1.19c-.17.12-.36.21-.57.26-.24.07-.5.1-.75.1-.62.03-1.23-.2-1.68-.64-.46-.56-.69-1.28-.62-2v-5.77h-1.51v-1.28h1.51v-2.29h1.73Zm9.98,10.4c-.28.49-.67.89-1.15,1.18-.49.28-1.06.42-1.63.41-.92.05-1.81-.31-2.43-.99-.65-.89-.96-1.99-.87-3.09v-5.61h1.73v5.62c-.07.73.09,1.46.45,2.09.35.4.87.62,1.4.57.53.02,1.06-.11,1.52-.37.4-.25.72-.62.91-1.06v-6.85h1.73v9.51h-1.56l-.12-1.4Zm8.69-6.57l-.89-.05c-.41-.01-.81.1-1.16.32-.32.23-.58.55-.73.91v6.79h-1.73v-9.51h1.55l.17,1.39c.24-.46.58-.85,1-1.15.4-.28.88-.42,1.37-.41.12,0,.25.01.37.03.1.02.19.04.29.07l-.24,1.61Zm5.45,8.16c-1.2.05-2.36-.43-3.16-1.32-.81-.96-1.23-2.18-1.17-3.43v-.39c-.04-1.24.39-2.45,1.21-3.38.71-.85,1.75-1.35,2.86-1.35,1.1-.08,2.17.35,2.91,1.16.69.88,1.04,1.98.98,3.09v1.08h-6.17l-.03.04c-.02.81.23,1.6.69,2.25.44.59,1.14.92,1.87.88.52.01,1.05-.07,1.54-.25.42-.16.81-.39,1.15-.69l.68,1.12c-.39.36-.85.65-1.35.83-.65.24-1.33.35-2.02.33h0Zm-.26-8.51c-.58,0-1.13.27-1.49.73-.43.53-.69,1.17-.76,1.84l.02.04h4.39v-.23c.02-.61-.17-1.22-.54-1.7-.4-.48-1-.73-1.62-.69h0Zm7.38-1.19l.12,1.41c.29-.48.7-.89,1.19-1.17.5-.28,1.06-.43,1.63-.42.89-.05,1.75.27,2.38.9.62.79.93,1.78.85,2.78v6h-1.73v-5.97c.06-.64-.12-1.27-.5-1.78-.41-.38-.96-.57-1.52-.53-.47,0-.93.12-1.32.36-.39.24-.7.58-.92.98v6.94h-1.73v-9.51h1.55ZM.27,85.42c-.06-1.3.28-2.6.98-3.7.61-.91,1.65-1.45,2.75-1.41.51,0,1.02.1,1.48.31.43.21.81.52,1.1.9v-5.23h1.73v13.71h-1.41l-.2-1.17c-.29.43-.68.78-1.14,1.01-.49.24-1.03.35-1.57.34-1.06.05-2.08-.42-2.72-1.26-.69-.96-1.04-2.13-.98-3.32v-.18Zm1.73.19c-.04.81.17,1.61.59,2.31.42.59,1.11.92,1.83.87.46.02.91-.11,1.3-.35.37-.25.66-.59.86-.98v-4.44c-.21-.38-.51-.7-.87-.94-.38-.24-.83-.36-1.28-.35-.76-.04-1.48.36-1.84,1.03-.43.82-.63,1.74-.59,2.67v.19Zm12.84,4.58c-1.2.05-2.36-.43-3.16-1.32-.81-.96-1.23-2.18-1.17-3.43v-.39c-.04-1.24.39-2.45,1.21-3.38.71-.85,1.75-1.35,2.86-1.35,1.1-.08,2.17.35,2.91,1.16.69.88,1.04,1.98.98,3.09v1.08h-6.17l-.03.04c-.02.81.23,1.6.69,2.25.44.59,1.14.92,1.87.88.52.01,1.05-.07,1.54-.25.42-.16.81-.39,1.15-.69l.68,1.12c-.39.36-.85.65-1.34.83-.65.24-1.33.35-2.02.33h0Zm-.26-8.51c-.58,0-1.13.27-1.48.73-.43.53-.69,1.17-.76,1.84l.02.04h4.39v-.23c.02-.61-.17-1.22-.55-1.7-.4-.47-1-.73-1.62-.69h0Zm11.36,5.8c0-.36-.15-.71-.43-.94-.5-.33-1.06-.55-1.65-.64-.93-.16-1.82-.51-2.61-1.02-.57-.4-.9-1.06-.88-1.76,0-.78.37-1.51.98-1.98.73-.57,1.64-.86,2.57-.82.96-.05,1.9.25,2.64.85.62.5.97,1.27.94,2.07l-.02.05h-1.65c0-.43-.2-.84-.52-1.12-.38-.34-.87-.52-1.38-.5-.49-.04-.98.1-1.37.4-.29.24-.45.6-.45.98-.01.34.13.67.4.89.49.3,1.04.5,1.61.58.96.16,1.87.52,2.68,1.05.57.41.9,1.08.88,1.78.02.81-.37,1.58-1.03,2.05-.78.55-1.72.83-2.68.78-1.04.06-2.06-.27-2.86-.92-.65-.52-1.02-1.32-.99-2.15l.02-.05h1.65c-.01.54.25,1.04.69,1.35.45.29.97.44,1.5.43.51.03,1.01-.1,1.45-.37.33-.21.53-.58.52-.98h0Zm13.83-10.28h1.73v9.26c.05,1.02-.35,2.01-1.08,2.72-.77.69-1.78,1.05-2.81,1.01-1.06.06-2.1-.28-2.94-.94-.76-.69-1.14-1.7-1.05-2.72l.02-.05h1.66c-.05.65.17,1.29.6,1.77.47.41,1.08.62,1.7.58.59.02,1.16-.22,1.56-.65.42-.47.64-1.09.61-1.73v-9.26Zm10.49,11.39c-.28.49-.67.89-1.15,1.18-.49.28-1.06.42-1.63.41-.92.05-1.81-.31-2.43-.99-.65-.89-.96-1.99-.87-3.09v-5.61h1.73v5.62c-.07.73.09,1.46.45,2.09.35.4.87.62,1.4.57.53.02,1.06-.11,1.53-.37.4-.25.72-.62.91-1.06v-6.85h1.73v9.51h-1.56l-.12-1.41Zm.83-9.69h-1.92v-1.76h1.93v1.76Zm-4.13,0h-1.92v-1.76h1.92v1.76Zm7.09,6.51c-.06-1.3.28-2.6.98-3.7.61-.91,1.65-1.45,2.75-1.41.51,0,1.02.1,1.48.31.43.21.81.52,1.1.9v-5.23h1.73v13.71h-1.41l-.2-1.17c-.29.43-.68.78-1.14,1.01-.49.24-1.03.35-1.57.34-1.06.05-2.08-.42-2.72-1.26-.69-.96-1.04-2.13-.98-3.32v-.18Zm1.73.19c-.04.81.17,1.61.59,2.31.42.59,1.11.92,1.83.87.46.02.91-.11,1.3-.35.37-.25.66-.59.86-.98v-4.44c-.21-.38-.51-.7-.87-.94-.38-.24-.83-.36-1.28-.35-.76-.04-1.48.36-1.84,1.03-.43.82-.63,1.74-.59,2.67v.19Zm10.77,4.39h-1.73v-9.51h1.73v9.51Zm0-11.94h-1.73v-1.77h1.73v1.77Zm8.19,9.42c0-.36-.15-.71-.43-.94-.5-.33-1.06-.55-1.65-.64-.93-.16-1.82-.51-2.61-1.02-.57-.4-.9-1.06-.88-1.76,0-.78.37-1.51.98-1.98,1.56-1.1,3.66-1.09,5.21.03.62.5.97,1.27.94,2.07l-.02.05h-1.65c0-.43-.2-.84-.52-1.12-.38-.34-.87-.52-1.38-.5-.49-.04-.98.1-1.37.4-.29.24-.45.6-.45.98-.01.34.13.67.4.89.49.3,1.04.5,1.61.58.96.16,1.87.52,2.68,1.05.57.41.9,1.08.88,1.78.02.81-.37,1.58-1.03,2.05-.78.55-1.72.83-2.68.78-1.04.06-2.06-.27-2.86-.92-.65-.52-1.02-1.32-.99-2.15l.02-.05h1.65c-.01.54.25,1.04.69,1.35.45.29.97.44,1.5.43.51.03,1.01-.1,1.45-.37.33-.21.53-.58.53-.98h0Zm7.75,1.35c.55,0,1.09-.18,1.52-.53.41-.31.66-.79.65-1.31h1.56l.02.05c0,.86-.4,1.68-1.09,2.18-.74.63-1.68.97-2.65.95-1.21.07-2.39-.43-3.17-1.35-.76-.97-1.14-2.17-1.1-3.4v-.37c-.04-1.22.35-2.42,1.1-3.39,1.56-1.66,4.14-1.82,5.9-.37.69.61,1.06,1.5,1.02,2.42l-.02.05h-1.56c0-.56-.21-1.09-.61-1.48-.41-.41-.98-.63-1.56-.61-.78-.07-1.53.31-1.95.98-.41.73-.61,1.56-.58,2.4v.37c-.03.85.17,1.69.58,2.43.42.67,1.17,1.04,1.95.97Zm7.42-7.07c.31-.44.73-.81,1.21-1.07.49-.26,1.03-.39,1.59-.38.88-.05,1.75.28,2.37.91.63.8.93,1.8.85,2.81v5.95h-1.73v-5.98c.05-.62-.13-1.24-.5-1.74-.4-.4-.95-.6-1.51-.56-.46,0-.91.11-1.31.34-.39.23-.72.54-.96.92v7.02h-1.73v-13.71h1.73v5.48Zm12.44,8.42c-1.2.05-2.36-.43-3.16-1.32-.81-.96-1.23-2.18-1.17-3.43v-.39c-.04-1.24.39-2.45,1.21-3.38.71-.85,1.75-1.35,2.86-1.35,1.1-.08,2.17.35,2.91,1.16.69.88,1.04,1.98.98,3.09v1.08h-6.17l-.03.04c-.02.81.23,1.6.69,2.25.44.59,1.14.92,1.87.88.52.01,1.05-.07,1.54-.25.42-.16.81-.39,1.15-.69l.68,1.12c-.39.36-.85.65-1.35.83-.65.24-1.33.35-2.02.33h0Zm-.26-8.51c-.58,0-1.13.27-1.49.73-.43.53-.69,1.17-.76,1.84l.02.04h4.39v-.23c.02-.61-.17-1.22-.54-1.7-.4-.47-1-.73-1.62-.69h0Zm7.38-1.19l.12,1.42c.29-.48.7-.89,1.19-1.17.5-.28,1.06-.43,1.63-.42.89-.05,1.75.27,2.38.9.63.79.93,1.78.84,2.78v6h-1.73v-5.97c.06-.64-.12-1.27-.5-1.78-.41-.38-.96-.57-1.52-.53-.47,0-.93.12-1.32.36-.39.24-.7.58-.92.98v6.93h-1.73v-9.51h1.55Zm15.03,9.51h-1.73v-9.51h1.73v9.51Zm0-11.94h-1.73v-1.77h1.73v1.77Zm4.21,2.43l.12,1.41c.29-.48.7-.89,1.19-1.17.5-.28,1.06-.43,1.63-.42.89-.05,1.75.27,2.38.9.62.79.93,1.78.84,2.78v6h-1.73v-5.97c.06-.64-.12-1.27-.5-1.78-.41-.38-.96-.57-1.52-.53-.47,0-.93.12-1.32.36-.39.24-.7.58-.92.98v6.93h-1.73v-9.51h1.55Zm12.76,4.93c-.06-1.3.28-2.6.98-3.7.61-.91,1.65-1.45,2.75-1.41.51,0,1.02.1,1.48.31.43.21.81.52,1.1.9v-5.24h1.73v13.71h-1.41l-.2-1.17c-.29.43-.68.78-1.14,1.01-.49.24-1.03.35-1.57.34-1.06.05-2.08-.42-2.73-1.26-.69-.96-1.04-2.13-.98-3.32v-.18Zm1.73.19c-.04.81.17,1.61.59,2.31.42.59,1.11.92,1.83.87.46.02.91-.11,1.3-.35.37-.25.66-.59.86-.98v-4.44c-.21-.38-.51-.7-.87-.94-.38-.24-.83-.36-1.28-.35-.76-.04-1.48.36-1.84,1.03-.43.82-.63,1.74-.59,2.67v.19Zm12.84,4.58c-1.2.05-2.36-.43-3.16-1.32-.81-.96-1.23-2.18-1.17-3.43v-.39c-.04-1.24.39-2.45,1.21-3.38.71-.85,1.75-1.35,2.86-1.35,1.1-.08,2.17.35,2.91,1.16.69.88,1.04,1.98.98,3.09v1.08h-6.17l-.03.04c-.02.81.23,1.6.69,2.25.44.59,1.14.92,1.87.88.52.01,1.05-.07,1.54-.25.42-.16.81-.39,1.15-.69l.68,1.12c-.39.36-.85.65-1.35.83-.65.24-1.33.35-2.02.33h0Zm-.26-8.51c-.58,0-1.13.27-1.49.73-.43.53-.69,1.17-.76,1.84l.02.04h4.39v-.23c.02-.61-.17-1.22-.54-1.7-.4-.47-1-.73-1.62-.69h0Zm10.34.34l-.89-.05c-.41-.01-.81.1-1.16.33-.32.23-.58.55-.73.91v6.79h-1.73v-9.51h1.55l.17,1.39c.24-.46.58-.85,1-1.15.4-.28.88-.42,1.37-.41.12,0,.25.01.37.03.1.02.19.04.29.07l-.24,1.61Zm8.2,6.63h6.06v1.35h-7.78v-12.8h1.73v11.45Zm9.54,1.35h-1.73v-9.51h1.73v9.51Zm0-11.94h-1.73v-1.77h1.73v1.77Zm4.95.14v2.29h1.8v1.28h-1.8v5.77c-.03.34.06.68.28.94.2.19.46.28.73.27.11,0,.22-.01.33-.03.11-.02.22-.05.32-.09l.23,1.19c-.17.12-.36.21-.57.26-.24.07-.5.1-.75.1-.62.03-1.23-.2-1.68-.64-.46-.56-.69-1.28-.62-2v-5.77h-1.51v-1.28h1.51v-2.29h1.73Zm7.89,11.99c-1.2.05-2.36-.43-3.16-1.32-.81-.96-1.23-2.18-1.17-3.43v-.39c-.04-1.24.39-2.45,1.21-3.38.71-.85,1.75-1.35,2.86-1.35,1.1-.08,2.17.35,2.91,1.16.69.88,1.04,1.98.98,3.09v1.08h-6.17l-.03.04c-.02.81.23,1.6.69,2.25.44.59,1.14.92,1.87.88.52.01,1.05-.07,1.54-.25.42-.16.81-.39,1.15-.69l.68,1.12c-.39.36-.85.65-1.35.83-.65.24-1.33.35-2.02.33Zm-.26-8.51c-.58,0-1.13.27-1.49.73-.43.53-.69,1.17-.76,1.84l.02.04h4.39v-.23c.02-.61-.17-1.22-.54-1.7-.4-.47-1-.73-1.62-.69h0Zm10.34.34l-.89-.05c-.41-.01-.81.1-1.16.33-.32.23-.58.55-.73.91v6.79h-1.73v-9.51h1.55l.17,1.39c.24-.46.58-.85,1-1.15.4-.28.88-.42,1.37-.41.12,0,.25.01.37.03.1.02.19.04.29.07l-.24,1.61Zm7.51,7.98c-.06-.29-.1-.54-.14-.76-.03-.22-.05-.44-.06-.66-.33.47-.76.86-1.26,1.15-.51.3-1.08.46-1.67.46-.83.06-1.64-.22-2.26-.76-.54-.56-.82-1.32-.78-2.1-.03-.85.39-1.66,1.1-2.13.9-.56,1.94-.83,2.99-.77h1.88v-.94c.02-.49-.16-.97-.51-1.32-.4-.35-.92-.52-1.44-.49-.49-.02-.97.13-1.36.43-.33.24-.52.62-.52,1.02h-1.65l-.02-.05c0-.76.36-1.47.98-1.9.76-.6,1.7-.9,2.67-.86.94-.05,1.86.25,2.6.82.68.59,1.04,1.47.98,2.37v4.58c0,.33.02.66.05.98.03.32.1.63.19.93h-1.78Zm-2.87-1.27c.6,0,1.19-.16,1.7-.48.44-.25.79-.64.98-1.11v-1.54h-1.94c-.6-.03-1.2.16-1.67.53-.39.29-.62.75-.63,1.24-.02.38.13.74.4,1,.33.27.74.4,1.16.37h0Zm9.21-10.53v2.29h1.8v1.28h-1.8v5.77c-.03.34.06.68.28.94.2.19.46.28.73.27.11,0,.22-.01.33-.03.11-.02.22-.05.32-.09l.23,1.19c-.17.12-.36.21-.57.26-.24.07-.5.1-.75.1-.62.03-1.23-.2-1.68-.64-.46-.56-.69-1.28-.62-2v-5.77h-1.51v-1.28h1.51v-2.29h1.73Zm9.98,10.4c-.28.49-.67.89-1.15,1.18-.49.28-1.06.42-1.63.41-.92.05-1.81-.31-2.43-.99-.65-.89-.96-1.99-.87-3.09v-5.61h1.73v5.62c-.07.73.09,1.46.45,2.09.35.4.87.62,1.4.57.53.02,1.06-.11,1.52-.37.4-.25.72-.62.91-1.06v-6.85h1.73v9.51h-1.56l-.12-1.4Zm8.69-6.57l-.89-.06c-.41-.01-.81.1-1.16.33-.32.23-.58.55-.73.91v6.79h-1.73v-9.51h1.55l.17,1.39c.24-.46.58-.85,1-1.15.4-.28.88-.42,1.37-.41.12,0,.25.01.37.03.1.02.19.04.29.07l-.24,1.61ZM10.67,114.74c.05,1.44-.48,2.84-1.45,3.89-.98,1.03-2.35,1.6-3.78,1.55-1.38.05-2.71-.52-3.64-1.55-.95-1.07-1.45-2.46-1.4-3.89v-2.28c-.05-1.43.45-2.82,1.4-3.89.92-1.03,2.26-1.6,3.64-1.56,1.42-.05,2.8.52,3.77,1.55.98,1.06,1.5,2.46,1.45,3.9v2.27Zm-1.73-2.29c.04-1.04-.29-2.07-.95-2.88-.63-.75-1.57-1.16-2.55-1.12-.94-.03-1.84.39-2.41,1.12-.63.83-.94,1.85-.9,2.88v2.29c-.05,1.04.27,2.07.9,2.9.58.74,1.47,1.16,2.41,1.13.98.04,1.92-.37,2.55-1.12.65-.82.99-1.85.94-2.9v-2.3Zm5.54-1.96l.12,1.42c.29-.48.7-.89,1.19-1.17.5-.28,1.06-.43,1.63-.42.89-.05,1.75.27,2.38.9.63.79.93,1.78.84,2.78v6h-1.73v-5.97c.06-.64-.12-1.27-.5-1.78-.41-.38-.96-.57-1.52-.53-.47,0-.93.12-1.32.36-.39.24-.7.58-.92.98v6.93h-1.73v-9.51h1.55Zm10.56,9.51h-1.73v-13.71h1.73v13.71Zm4.53,0h-1.73v-9.51h1.73v9.51Zm0-11.94h-1.73v-1.77h1.73v1.77Zm4.21,2.44l.12,1.42c.29-.48.7-.89,1.19-1.17.5-.28,1.06-.43,1.63-.42.89-.05,1.75.27,2.38.9.62.79.93,1.78.84,2.78v6h-1.73v-5.97c.06-.64-.12-1.27-.5-1.78-.41-.38-.96-.57-1.52-.53-.47,0-.93.12-1.32.36-.39.24-.7.58-.92.98v6.93h-1.73v-9.51h1.55Zm12.63,9.69c-1.2.05-2.36-.43-3.16-1.32-.81-.96-1.23-2.18-1.17-3.43v-.39c-.04-1.24.39-2.45,1.21-3.38.71-.85,1.75-1.35,2.86-1.35,1.1-.08,2.17.35,2.91,1.16.69.88,1.04,1.98.98,3.09v1.08h-6.17l-.03.04c-.02.81.23,1.6.69,2.25.44.59,1.14.92,1.87.88.52.01,1.05-.07,1.54-.25.42-.16.81-.39,1.15-.69l.68,1.12c-.39.36-.85.65-1.35.83-.65.24-1.33.35-2.02.33Zm-.26-8.51c-.58,0-1.13.27-1.49.73-.43.53-.69,1.17-.76,1.84l.02.04h4.39v-.23c.02-.61-.17-1.22-.54-1.71-.4-.47-1-.73-1.62-.68h0Zm9.19,3.59h-4.3v-1.35h4.31v1.35Zm8.84,1.43h-5.36l-1.21,3.3h-1.77l4.95-12.8h1.49l4.87,12.8h-1.77l-1.19-3.3Zm-4.83-1.45h4.31l-2.11-5.83h-.05l-2.15,5.83Zm10.77-4.76l.12,1.42c.29-.48.7-.89,1.19-1.17.5-.28,1.06-.43,1.63-.42.89-.05,1.75.27,2.38.9.63.79.93,1.78.84,2.78v6h-1.73v-5.97c.06-.64-.12-1.27-.5-1.78-.41-.38-.96-.57-1.52-.53-.47,0-.93.12-1.32.36-.39.24-.7.58-.92.98v6.93h-1.73v-9.51h1.55Zm10.97-2.29v2.29h1.8v1.28h-1.8v5.77c-.03.34.06.68.28.94.2.19.46.28.73.27.11,0,.22-.01.33-.04.11-.02.22-.05.32-.09l.23,1.19c-.17.12-.36.21-.57.26-.24.07-.5.1-.75.1-.62.03-1.23-.2-1.68-.64-.46-.56-.69-1.28-.62-2v-5.77h-1.51v-1.28h1.51v-2.29h1.73Zm5.67,3.57c.31-.44.73-.81,1.21-1.07.49-.26,1.03-.39,1.59-.38.88-.05,1.75.28,2.37.91.63.8.93,1.8.85,2.81v5.95h-1.73v-5.98c.05-.62-.13-1.24-.5-1.74-.4-.4-.95-.6-1.51-.56-.46,0-.91.11-1.31.34-.39.23-.72.54-.96.92v7.02h-1.73v-13.71h1.73v5.48Zm8.1,3.39c-.05-1.26.36-2.49,1.14-3.48,1.58-1.72,4.26-1.83,5.98-.24.08.08.17.16.24.24.79.98,1.2,2.22,1.15,3.48v.19c.05,1.26-.35,2.5-1.14,3.48-1.6,1.72-4.29,1.82-6.01.22-.07-.07-.15-.14-.22-.22-.79-.98-1.2-2.22-1.15-3.48v-.2Zm1.73.19c-.04.88.19,1.75.64,2.5.73,1.04,2.16,1.3,3.2.57.22-.16.42-.35.57-.57.45-.75.68-1.62.64-2.5v-.19c.03-.87-.19-1.74-.65-2.49-.41-.65-1.13-1.03-1.89-.99-.76-.04-1.48.35-1.88.99-.45.75-.67,1.61-.64,2.49v.19Zm10.77,4.65h-1.73v-13.71h1.73v13.71Zm2.26-4.84c-.05-1.26.36-2.49,1.14-3.48,1.58-1.72,4.26-1.83,5.98-.24.08.08.17.16.24.24.79.98,1.2,2.22,1.15,3.48v.19c.05,1.26-.35,2.5-1.14,3.48-1.6,1.72-4.29,1.82-6.01.22-.07-.07-.15-.14-.22-.22-.79-.98-1.2-2.22-1.15-3.48v-.2Zm1.73.19c-.04.88.19,1.75.64,2.5.73,1.04,2.16,1.3,3.2.57.22-.16.42-.35.57-.57.45-.75.68-1.62.64-2.5v-.19c.03-.87-.19-1.74-.65-2.49-.41-.65-1.13-1.03-1.89-.99-.76-.04-1.48.35-1.88.99-.45.75-.67,1.61-.64,2.49v.19Zm8.53.07c-.06-1.31.29-2.6,1-3.7.62-.91,1.67-1.44,2.77-1.41.55-.01,1.1.11,1.59.37.46.25.86.61,1.14,1.05l.21-1.24h1.38v9.56c.07,1.05-.32,2.07-1.06,2.81-.86.71-1.96,1.06-3.07.98-.5,0-1-.07-1.48-.19-.49-.11-.96-.28-1.4-.51l.44-1.35c.35.19.73.34,1.12.43.43.11.86.16,1.3.16.67.06,1.33-.15,1.84-.58.42-.48.63-1.12.58-1.75v-1.07c-.29.39-.68.69-1.12.9-.47.21-.98.31-1.49.3-1.07.05-2.09-.43-2.75-1.27-.7-.96-1.06-2.13-1-3.31v-.18Zm1.73.18c-.04.81.17,1.61.61,2.3.42.59,1.12.92,1.85.87.46.02.92-.11,1.31-.36.37-.26.67-.6.87-1.01v-4.37c-.21-.39-.51-.72-.87-.96-.39-.25-.84-.37-1.29-.36-.76-.03-1.48.37-1.85,1.04-.44.82-.65,1.74-.61,2.66v.18Zm10.75,4.4h-1.73v-9.51h1.73v9.51Zm0-11.94h-1.73v-1.77h1.73v1.77Zm6.61,12.13c-1.2.05-2.36-.43-3.16-1.32-.81-.96-1.23-2.18-1.17-3.43v-.39c-.04-1.24.39-2.45,1.21-3.38.71-.85,1.75-1.35,2.86-1.35,1.1-.08,2.17.35,2.91,1.16.69.88,1.04,1.98.98,3.09v1.08h-6.17l-.03.04c-.02.81.23,1.6.69,2.25.44.59,1.14.92,1.87.88.52.01,1.05-.07,1.54-.25.42-.16.81-.39,1.15-.69l.68,1.12c-.39.36-.85.65-1.35.83-.65.24-1.33.35-2.02.33h0Zm-.26-8.51c-.58,0-1.13.27-1.49.73-.43.53-.69,1.17-.76,1.84l.02.04h4.39v-.23c.02-.61-.17-1.22-.54-1.71-.4-.47-1-.73-1.62-.68h0Z" style="fill:#212529; stroke-width:0px;"/><path id="Pfad_939" d="m7.26,15.8h3.88v13.29c.08,1.64-.48,3.24-1.56,4.48-1.03,1.12-2.49,1.74-4.01,1.69-1.53.09-3.02-.48-4.1-1.57C.44,32.48-.08,30.92.01,29.33h3.89c0,1.81.56,2.72,1.67,2.72s1.68-1.05,1.69-3.14v-13.11Zm13.62,17.89c-.71,1.01-1.88,1.6-3.11,1.57-1.16.07-2.27-.43-2.98-1.35-.75-1.17-1.11-2.55-1.02-3.93v-9.24h3.73v9.33c.02,1.39.48,2.08,1.38,2.08.78.04,1.51-.4,1.85-1.11v-10.31h3.76v14.27h-3.51l-.11-1.31Zm-6.86-16.69c0-.46.19-.9.53-1.2.75-.64,1.85-.64,2.6,0,.66.6.72,1.62.12,2.28-.04.04-.08.08-.12.12-.75.64-1.85.64-2.6,0-.35-.3-.54-.74-.53-1.2Zm6.45,0c0-.46.19-.89.54-1.19.75-.64,1.85-.64,2.6,0,.34.3.54.73.53,1.19,0,.45-.18.88-.51,1.18-.76.66-1.89.66-2.65,0-.33-.3-.51-.73-.51-1.18Zm6.05,10.43c-.13-1.82.29-3.64,1.19-5.23.77-1.14,2.08-1.8,3.45-1.73,1.09,0,2.12.53,2.75,1.43v-7.15h3.76v20.25h-3.39l-.17-1.45c-.61,1.05-1.73,1.71-2.95,1.71-1.36.07-2.66-.58-3.42-1.71-.89-1.52-1.31-3.28-1.21-5.04v-1.09Zm3.74.94c-.07,1,.08,2.01.45,2.95.29.56.89.88,1.52.84.7.02,1.35-.36,1.67-.99v-6.51c-.29-.65-.95-1.07-1.66-1.05-.62-.04-1.2.29-1.5.83-.39.93-.55,1.95-.48,2.95v.98Zm13.92,6.64h-3.74v-14.27h3.74v14.27Zm-3.92-17.96c-.02-.53.18-1.05.55-1.42.85-.74,2.11-.74,2.95,0,.37.38.57.89.55,1.42.02,1.12-.86,2.05-1.99,2.08-1.12.02-2.05-.86-2.08-1.99,0-.03,0-.06,0-.09Zm12.98,14.13c-.01-.35-.18-.67-.46-.88-.63-.45-1.31-.81-2.02-1.09-1.19-.4-2.27-1.06-3.17-1.94-.59-.7-.89-1.58-.86-2.49-.03-1.18.46-2.31,1.35-3.09.99-.85,2.27-1.28,3.58-1.22,1.36-.07,2.7.36,3.76,1.21.94.81,1.46,2.01,1.41,3.26h-3.73c0-1.16-.48-1.74-1.45-1.74-.36-.01-.71.12-.98.37-.27.27-.4.65-.38,1.03,0,.33.16.64.42.84.62.42,1.28.77,1.99,1.04,1.2.37,2.31,1.01,3.22,1.88.65.74.98,1.7.94,2.68.04,1.19-.5,2.33-1.44,3.07-1.08.81-2.42,1.22-3.77,1.16-.96.02-1.91-.19-2.77-.61-.77-.38-1.42-.97-1.88-1.71-.45-.71-.68-1.52-.68-2.36h3.55c-.02.53.14,1.04.46,1.46.37.36.88.54,1.4.49,1.01,0,1.51-.45,1.51-1.35Zm10.97.99c1.08,0,1.63-.7,1.65-2.11h3.51c.04,1.4-.47,2.76-1.44,3.77-.96.97-2.28,1.49-3.64,1.44-1.59.1-3.14-.53-4.21-1.71-1.07-1.46-1.59-3.25-1.48-5.05v-1.13c-.12-1.82.38-3.63,1.43-5.13,1.05-1.22,2.62-1.88,4.23-1.77,1.39-.07,2.75.46,3.72,1.46.97,1.15,1.46,2.63,1.38,4.13h-3.5c.03-.64-.11-1.28-.4-1.85-.27-.44-.76-.69-1.27-.65-.56-.05-1.1.22-1.4.69-.36.85-.51,1.77-.45,2.68v1.45c-.03.81.03,1.63.17,2.43.07.39.27.75.57,1.01.33.23.73.35,1.13.32Zm10.77-10.18c.69-.95,1.8-1.52,2.98-1.52,1.16-.07,2.27.45,2.97,1.37.76,1.22,1.12,2.65,1.03,4.09v9.07h-3.74v-9.03c.05-.63-.09-1.26-.39-1.81-.3-.39-.77-.6-1.26-.56-.66,0-1.27.35-1.58.94v10.47h-3.73V14.75h3.73v7.24Zm15.28,13.28c-1.67.1-3.3-.53-4.48-1.71-1.15-1.36-1.73-3.12-1.61-4.9v-1.14c-.12-1.86.4-3.7,1.48-5.21,1.04-1.25,2.61-1.93,4.23-1.83,1.55-.11,3.05.53,4.05,1.72,1.01,1.5,1.5,3.29,1.38,5.1v1.83h-7.42c-.02.83.22,1.64.7,2.31.49.52,1.2.79,1.91.73,1.17.03,2.31-.43,3.12-1.28l1.46,2.25c-.52.68-1.2,1.21-1.99,1.54-.89.4-1.86.6-2.84.59Zm-2.35-8.75h3.73v-.34c.02-.67-.12-1.34-.42-1.94-.3-.46-.83-.71-1.37-.66-.56-.04-1.11.23-1.42.7-.35.69-.53,1.46-.52,2.24Zm27.28-7.48h-4.75v15.97h-3.89v-15.97h-4.67v-3.23h13.3v3.23Zm6.5,16.23c-1.67.1-3.31-.53-4.49-1.71-1.15-1.36-1.73-3.12-1.61-4.9v-1.14c-.12-1.85.4-3.69,1.48-5.21,1.04-1.25,2.61-1.93,4.23-1.83,1.55-.11,3.05.53,4.05,1.72,1.01,1.5,1.5,3.29,1.38,5.1v1.83h-7.42c-.02.83.22,1.64.7,2.31.49.52,1.2.79,1.91.73,1.17.03,2.31-.43,3.12-1.28l1.46,2.25c-.52.68-1.2,1.21-1.99,1.54-.89.4-1.86.6-2.83.59h0Zm-2.35-8.75h3.73v-.34c.02-.67-.12-1.34-.42-1.94-.3-.46-.83-.71-1.37-.66-.56-.04-1.11.23-1.42.7-.35.69-.53,1.46-.52,2.24h0Zm14.14-1.54l1.66-4.23h3.95l-3.26,6.97,3.37,7.29h-3.97l-1.75-4.47-1.75,4.47h-3.98l3.38-7.29-3.23-6.97h3.97l1.6,4.23Zm11.65-7.74v3.51h1.91v2.81h-1.91v7.08c-.04.4.04.8.23,1.16.23.24.56.36.89.32.3,0,.59-.02.88-.09l-.03,2.9c-.66.24-1.36.36-2.06.36-2.41,0-3.63-1.38-3.65-4.14v-7.58h-1.65v-2.81h1.64v-3.51h3.74Zm10.53,11.1h-6.45v-3.11h6.45v3.11Zm12.31,2.74h-5.29l-1.03,3.93h-4.1l6-19.2h3.54l6.04,19.2h-4.14l-1.02-3.93Zm-4.44-3.23h3.59l-1.8-6.84-1.79,6.84Zm18.12-3.51l-1.24-.1c-.91-.07-1.76.48-2.07,1.35v9.43h-3.75v-14.27h3.52l.1,1.54c.37-1.05,1.33-1.76,2.44-1.81.35-.01.7.05,1.03.17l-.03,3.69Zm6.68,7.83c1.08,0,1.63-.7,1.65-2.11h3.51c.04,1.4-.47,2.76-1.44,3.77-.96.97-2.28,1.49-3.64,1.44-1.59.1-3.14-.53-4.21-1.71-1.07-1.46-1.59-3.25-1.48-5.05v-1.13c-.12-1.82.38-3.63,1.43-5.13,1.05-1.22,2.62-1.88,4.23-1.77,1.39-.07,2.75.46,3.72,1.46.97,1.15,1.46,2.63,1.38,4.13h-3.51c.03-.64-.11-1.28-.4-1.85-.27-.44-.76-.69-1.27-.65-.56-.05-1.1.22-1.4.69-.36.85-.51,1.77-.45,2.68v1.45c-.03.81.03,1.63.17,2.43.07.39.27.75.57,1.01.33.23.72.35,1.13.32h0Zm10.76-10.18c.69-.95,1.8-1.52,2.98-1.52,1.16-.07,2.27.45,2.97,1.37.76,1.22,1.12,2.65,1.03,4.09v9.07h-3.74v-9.03c.05-.63-.09-1.26-.39-1.81-.3-.39-.77-.6-1.26-.56-.66,0-1.27.35-1.58.94v10.47h-3.73V14.75h3.73v7.24Zm13.43,13.01h-3.74v-14.27h3.74v14.27Zm-3.92-17.96c-.02-.53.18-1.05.55-1.42.85-.74,2.11-.74,2.95,0,.37.38.57.89.55,1.42.02,1.12-.86,2.05-1.99,2.08-1.12.02-2.05-.86-2.08-1.99,0-.03,0-.06,0-.09Zm11.01.18v3.51h1.91v2.81h-1.91v7.08c-.04.4.04.8.23,1.16.23.24.56.36.89.32.3,0,.59-.02.88-.09l-.03,2.9c-.66.24-1.36.36-2.06.36-2.41,0-3.63-1.38-3.65-4.14v-7.58h-1.65v-2.81h1.65v-3.51h3.73Zm9.58,18.03c-1.67.1-3.3-.53-4.48-1.71-1.15-1.36-1.73-3.12-1.61-4.9v-1.14c-.12-1.85.4-3.69,1.48-5.21,1.04-1.25,2.61-1.93,4.23-1.83,1.55-.11,3.05.53,4.05,1.72,1.01,1.5,1.5,3.29,1.38,5.1v1.83h-7.42c-.02.83.22,1.64.7,2.31.49.52,1.2.79,1.91.73,1.17.03,2.31-.43,3.12-1.28l1.46,2.25c-.52.68-1.2,1.21-1.99,1.54-.89.4-1.86.6-2.84.59h0Zm-2.35-8.75h3.73v-.34c.02-.67-.12-1.34-.42-1.94-.3-.46-.83-.71-1.37-.66-.56-.04-1.11.23-1.42.7-.35.69-.53,1.46-.52,2.24h0Zm14.1,2.99l-1,1.12v4.38h-3.73V14.75h3.73v10.94l.46-.69,2.58-4.27h4.44l-4.14,5.88,4.54,8.38h-4.27l-2.62-5.5Zm12.39-12.27v3.51h1.91v2.81h-1.91v7.08c-.04.4.04.8.23,1.16.23.24.56.36.89.32.3,0,.59-.02.88-.09l-.03,2.9c-.66.24-1.36.36-2.06.36-2.41,0-3.63-1.38-3.65-4.14v-7.58h-1.65v-2.81h1.65v-3.51h3.73Zm10.83,16.47c-.71,1.01-1.88,1.6-3.11,1.57-1.16.07-2.27-.43-2.98-1.35-.75-1.17-1.11-2.55-1.02-3.93v-9.24h3.73v9.33c.02,1.39.48,2.08,1.38,2.08.78.04,1.51-.4,1.85-1.11v-10.31h3.76v14.27h-3.51l-.11-1.31Zm13.18-9.36l-1.24-.1c-.91-.07-1.76.48-2.07,1.35v9.42h-3.74v-14.27h3.52l.11,1.54c.37-1.05,1.33-1.76,2.44-1.81.35-.01.7.05,1.03.17l-.04,3.69Zm7.29,10.93c-1.67.1-3.3-.53-4.48-1.71-1.15-1.36-1.73-3.12-1.61-4.9v-1.14c-.12-1.85.4-3.69,1.48-5.21,1.04-1.25,2.61-1.93,4.23-1.83,1.55-.11,3.05.53,4.05,1.72,1.01,1.5,1.5,3.29,1.38,5.1v1.83h-7.42c-.02.83.22,1.64.7,2.31.49.52,1.2.79,1.91.73,1.17.03,2.31-.43,3.12-1.28l1.46,2.25c-.52.68-1.2,1.21-1.99,1.54-.89.4-1.86.6-2.84.59Zm-2.35-8.75h3.73v-.34c.02-.67-.12-1.34-.42-1.94-.3-.46-.83-.71-1.37-.66-.56-.04-1.11.23-1.42.7-.35.69-.53,1.46-.52,2.24h0Zm12.79-5.77l.11,1.41c.76-1.07,2-1.7,3.31-1.67,2.45,0,3.71,1.72,3.78,5.15v9.37h-3.74v-9.1c.05-.61-.08-1.22-.36-1.76-.3-.39-.78-.6-1.27-.55-.69,0-1.31.41-1.58,1.04v10.37h-3.74v-14.27h3.51Z" style="fill:#276cea; stroke-width:0px;"/></svg>