<?xml version="1.0" encoding="UTF-8"?><svg id="Ebene_1" xmlns="http://www.w3.org/2000/svg" viewBox="0 0 308.62 123.85"><rect id="Rechteck_2898" x="1.82" width="52.19" height="4" style="fill:#276cea; stroke-width:0px;"/><path id="Pfad_941" d="m6.56,57.2h1.73v9.26c.05,1.02-.35,2.01-1.09,2.72-.77.69-1.78,1.05-2.82,1.01-1.06.06-2.1-.28-2.94-.94-.75-.69-1.14-1.7-1.05-2.72l.02-.05h1.66c-.05.65.17,1.29.6,1.77.47.41,1.08.62,1.7.58.59.02,1.16-.22,1.56-.65.42-.47.64-1.09.61-1.73v-9.26Zm8.4,12.98c-1.2.05-2.36-.43-3.16-1.32-.81-.95-1.23-2.18-1.17-3.43v-.39c-.04-1.24.39-2.45,1.21-3.38.71-.85,1.75-1.35,2.86-1.35,1.1-.08,2.17.35,2.91,1.16.69.88,1.04,1.98.98,3.09v1.08h-6.17l-.03.04c-.02.81.23,1.6.69,2.25.44.59,1.14.92,1.87.88.52.01,1.05-.07,1.54-.25.42-.16.81-.39,1.15-.69l.68,1.12c-.39.36-.85.65-1.34.83-.65.24-1.33.35-2.02.33h0Zm-.26-8.51c-.58,0-1.13.27-1.48.73-.43.53-.69,1.17-.76,1.84l.02.04h4.39v-.23c.02-.61-.17-1.22-.55-1.7-.4-.47-1-.72-1.61-.68h0Zm8.27,4.86l.2,1.15h.06l.25-1.15,1.9-6.05h1.38l1.91,6.05.27,1.28h.05l.25-1.28,1.49-6.04h1.72l-2.76,9.51h-1.4l-1.83-5.79-.4-1.62h-.05s-.38,1.62-.38,1.62l-1.81,5.79h-1.4l-2.76-9.51h1.72l1.58,6.04Zm13.06,3.47h-1.73v-9.51h1.73v9.51Zm0-11.94h-1.73v-1.77h1.73v1.77Zm8.19,9.42c0-.36-.15-.71-.44-.94-.5-.33-1.06-.55-1.65-.64-.93-.16-1.82-.51-2.61-1.02-.57-.4-.9-1.06-.88-1.76,0-.78.37-1.51.98-1.98,1.56-1.1,3.66-1.09,5.21.03.62.5.97,1.27.94,2.07l-.02.05h-1.65c0-.43-.2-.84-.52-1.12-.38-.34-.87-.52-1.38-.5-.49-.04-.98.1-1.37.4-.29.24-.45.6-.45.98-.01.34.13.67.4.89.49.3,1.04.5,1.61.58.96.16,1.87.52,2.68,1.05.57.41.9,1.08.88,1.78.02.81-.37,1.58-1.03,2.05-.78.55-1.72.83-2.68.78-1.04.06-2.06-.27-2.87-.92-.65-.52-1.02-1.32-.99-2.15l.02-.05h1.65c-.01.54.25,1.04.69,1.35.45.29.97.44,1.5.43.51.03,1.01-.1,1.45-.37.33-.21.53-.58.53-.98h0Zm5.62-5.71c.32-.44.73-.81,1.21-1.07.49-.26,1.03-.39,1.58-.39.88-.05,1.75.28,2.37.91.63.8.93,1.8.85,2.81v5.96h-1.73v-5.98c.05-.62-.13-1.24-.51-1.74-.4-.4-.95-.6-1.51-.56-.46,0-.91.11-1.31.34-.39.23-.72.54-.96.92v7.02h-1.73v-13.71h1.73v5.48Zm20.27,5.01c0-.56-.23-1.1-.66-1.47-.69-.51-1.49-.85-2.34-1-1.15-.23-2.23-.72-3.17-1.42-.73-.57-1.15-1.44-1.14-2.36,0-.98.45-1.91,1.23-2.5.91-.7,2.03-1.05,3.18-1,1.22-.06,2.42.35,3.35,1.15.78.66,1.22,1.65,1.2,2.67l-.02.05h-1.65c.03-.69-.24-1.35-.74-1.82-1.22-.88-2.85-.93-4.11-.11-.45.37-.71.94-.69,1.53,0,.56.28,1.08.75,1.39.74.47,1.56.81,2.43.98,1.13.23,2.19.74,3.08,1.48.69.61,1.07,1.5,1.06,2.42.02.99-.45,1.92-1.27,2.49-.97.66-2.13.99-3.3.94-1.21.02-2.4-.34-3.39-1.04-.94-.61-1.48-1.66-1.43-2.78l.02-.05h1.65c-.04.74.3,1.45.9,1.87.66.44,1.44.67,2.24.64.73.04,1.46-.15,2.07-.55.49-.34.78-.91.76-1.5h0Zm12.03-1.17c.06,1.19-.29,2.36-.98,3.32-.65.84-1.66,1.31-2.72,1.26-.53.01-1.05-.09-1.54-.29-.44-.2-.83-.5-1.13-.88v4.65h-1.73v-13.17h1.33l.27,1.23c.29-.44.69-.8,1.16-1.05.5-.25,1.06-.37,1.62-.36,1.1-.04,2.14.49,2.75,1.4.7,1.1,1.04,2.4.98,3.7v.19Zm-1.73-.19c.04-.93-.18-1.85-.64-2.66-.38-.67-1.11-1.07-1.88-1.04-.45-.01-.89.1-1.27.34-.36.23-.65.55-.85.93v4.6c.2.37.49.69.85.92.39.23.84.34,1.29.33.73.04,1.44-.3,1.86-.9.45-.69.67-1.5.63-2.32v-.19Zm9.7,4.58c-.06-.29-.1-.54-.14-.76-.03-.22-.05-.44-.06-.66-.33.47-.76.86-1.26,1.15-.51.3-1.08.46-1.67.46-.83.06-1.64-.22-2.26-.76-.54-.56-.82-1.32-.78-2.1-.03-.85.39-1.66,1.1-2.13.9-.56,1.94-.83,2.99-.77h1.88v-.94c.02-.49-.16-.97-.51-1.32-.4-.35-.92-.52-1.44-.49-.49-.02-.97.13-1.36.43-.33.24-.52.62-.52,1.02h-1.65l-.02-.05c0-.76.36-1.47.98-1.9.76-.6,1.7-.9,2.67-.86.94-.05,1.86.25,2.6.82.68.59,1.04,1.47.98,2.37v4.58c0,.33.02.66.05.98.03.32.1.63.19.93h-1.78Zm-2.87-1.27c.6,0,1.19-.16,1.7-.48.44-.25.79-.64.98-1.11v-1.54h-1.94c-.6-.03-1.2.16-1.67.53-.39.29-.62.75-.63,1.24-.02.38.13.74.4,1,.33.27.74.4,1.16.37Zm10.79.1c.55,0,1.09-.18,1.52-.53.41-.31.66-.79.65-1.31h1.56l.02.05c0,.86-.4,1.68-1.09,2.18-.74.63-1.68.97-2.65.95-1.21.07-2.39-.43-3.17-1.35-.76-.97-1.14-2.17-1.1-3.4v-.37c-.04-1.22.35-2.42,1.1-3.39,1.56-1.66,4.14-1.82,5.9-.37.69.61,1.06,1.5,1.02,2.42l-.02.05h-1.56c0-.56-.21-1.09-.61-1.48-.41-.41-.98-.63-1.56-.61-.78-.07-1.53.31-1.95.98-.41.73-.61,1.56-.58,2.4v.37c-.03.85.17,1.69.58,2.43.42.66,1.17,1.04,1.95.97h0Zm9.63,1.35c-1.2.05-2.36-.43-3.16-1.32-.81-.96-1.23-2.18-1.17-3.43v-.39c-.04-1.24.39-2.45,1.21-3.38.71-.85,1.75-1.35,2.86-1.35,1.1-.08,2.17.35,2.91,1.16.69.88,1.04,1.98.98,3.09v1.08h-6.17l-.03.04c-.02.81.23,1.6.69,2.25.44.59,1.14.92,1.87.88.52.01,1.05-.07,1.54-.25.42-.16.81-.39,1.15-.69l.68,1.12c-.39.36-.85.65-1.35.83-.65.24-1.33.35-2.02.33h0Zm-.26-8.51c-.58,0-1.13.27-1.49.73-.43.53-.69,1.17-.76,1.84l.02.04h4.39v-.23c.02-.61-.17-1.22-.54-1.7-.4-.47-1-.73-1.62-.69h0Zm11.36,5.8c0-.36-.15-.71-.43-.94-.5-.33-1.06-.55-1.65-.64-.93-.16-1.82-.51-2.61-1.02-.57-.4-.9-1.06-.88-1.76,0-.78.37-1.51.98-1.98,1.56-1.1,3.66-1.09,5.21.03.62.5.97,1.27.94,2.07l-.02.05h-1.65c0-.43-.2-.84-.52-1.12-.38-.34-.87-.52-1.38-.5-.49-.04-.98.1-1.37.4-.29.24-.45.6-.45.98-.01.34.13.67.4.89.49.3,1.04.5,1.61.58.96.16,1.87.52,2.68,1.05.57.41.9,1.08.88,1.78.02.81-.37,1.58-1.02,2.05-.78.55-1.72.83-2.68.78-1.04.06-2.06-.27-2.86-.92-.65-.52-1.02-1.32-.99-2.15l.02-.05h1.65c-.01.54.25,1.04.69,1.35.45.29.97.44,1.5.43.51.03,1.01-.1,1.45-.37.33-.21.52-.58.52-.97h0Zm5.4,2.1l-1.32,2.69h-1.03l.61-2.78v-1.43h1.73v1.52Zm8.57-4.71v5.13h-1.73v-12.8h4.9c1.16-.07,2.3.31,3.18,1.05.76.72,1.18,1.73,1.13,2.78.05,1.05-.37,2.07-1.13,2.79-.89.74-2.03,1.11-3.18,1.04h-3.17Zm0-1.35h3.16c.72.06,1.43-.2,1.94-.7.43-.48.66-1.11.64-1.76.02-.65-.21-1.29-.65-1.78-.51-.51-1.22-.77-1.94-.71h-3.16v4.95Zm11.34,6.49h-1.73v-13.71h1.73v13.71Zm8.51,0c-.06-.29-.1-.54-.14-.76-.03-.22-.05-.44-.06-.66-.33.47-.76.86-1.26,1.15-.51.3-1.08.46-1.67.46-.83.06-1.64-.22-2.26-.76-.54-.56-.82-1.32-.78-2.1-.03-.85.39-1.66,1.1-2.13.9-.56,1.94-.83,2.99-.77h1.88v-.94c.02-.49-.16-.97-.51-1.32-.4-.35-.92-.52-1.44-.49-.49-.02-.97.13-1.36.43-.33.24-.52.62-.52,1.02h-1.65l-.02-.05c0-.76.36-1.47.98-1.9.76-.6,1.7-.9,2.67-.86.94-.05,1.86.25,2.6.82.68.59,1.04,1.47.98,2.37v4.58c0,.33.02.66.05.98.03.32.1.63.19.93h-1.78Zm-2.87-1.27c.6,0,1.19-.16,1.7-.48.44-.25.79-.64.98-1.11v-1.54h-1.94c-.6-.03-1.2.16-1.67.53-.39.29-.62.75-.63,1.24-.02.38.13.74.4,1,.33.27.74.4,1.16.37Zm10.79.1c.55,0,1.09-.18,1.52-.53.41-.31.66-.79.65-1.31h1.56l.02.05c0,.86-.4,1.68-1.09,2.18-.74.63-1.68.97-2.65.95-1.21.07-2.39-.43-3.17-1.35-.76-.97-1.14-2.17-1.1-3.4v-.37c-.04-1.22.35-2.42,1.1-3.39,1.56-1.66,4.14-1.82,5.9-.37.69.61,1.06,1.5,1.02,2.42l-.02.05h-1.56c0-.56-.21-1.09-.62-1.48-.41-.41-.98-.63-1.56-.61-.78-.07-1.53.31-1.95.98-.41.73-.61,1.56-.58,2.4v.37c-.03.85.17,1.69.58,2.43.42.66,1.17,1.04,1.95.97h0Zm9.63,1.35c-1.2.05-2.36-.43-3.16-1.32-.81-.96-1.23-2.18-1.17-3.43v-.39c-.04-1.24.39-2.45,1.21-3.38.71-.85,1.75-1.35,2.86-1.35,1.1-.08,2.17.35,2.91,1.16.69.88,1.04,1.98.98,3.09v1.08h-6.17l-.03.04c-.02.81.23,1.6.69,2.25.44.59,1.14.92,1.87.88.52.01,1.05-.07,1.54-.25.42-.16.81-.39,1.15-.69l.68,1.12c-.39.36-.85.65-1.35.83-.65.24-1.33.35-2.02.33h0Zm-.26-8.51c-.58,0-1.13.27-1.49.73-.43.53-.69,1.17-.76,1.84l.02.04h4.38v-.23c.02-.61-.17-1.22-.54-1.7-.4-.47-1-.73-1.61-.69h0Zm11.36,5.8c0-.36-.15-.71-.43-.94-.5-.33-1.06-.55-1.65-.64-.93-.16-1.82-.51-2.61-1.02-.57-.4-.9-1.06-.88-1.76,0-.78.37-1.51.98-1.98,1.56-1.1,3.66-1.09,5.21.03.62.5.97,1.27.94,2.07l-.02.05h-1.65c0-.43-.2-.84-.52-1.12-.38-.34-.87-.52-1.38-.5-.49-.04-.98.1-1.37.4-.29.24-.45.6-.45.98-.01.34.13.67.4.89.49.3,1.04.5,1.61.58.96.16,1.87.52,2.68,1.05.57.41.9,1.08.88,1.78.02.81-.37,1.58-1.02,2.05-.78.55-1.72.83-2.68.78-1.04.06-2.06-.27-2.87-.92-.65-.52-1.02-1.32-.99-2.15l.02-.05h1.65c-.01.54.25,1.04.69,1.35.45.29.97.44,1.5.43.51.03,1.01-.1,1.45-.37.33-.21.52-.58.52-.97h0Zm5.4,2.1l-1.32,2.69h-1.03l.62-2.78v-1.43h1.73v1.52Zm12.35.42c-.06-.29-.1-.54-.14-.76-.03-.22-.05-.44-.06-.66-.33.47-.76.86-1.26,1.15-.51.3-1.08.46-1.67.46-.83.06-1.64-.22-2.26-.76-.54-.56-.82-1.32-.78-2.1-.03-.85.39-1.66,1.1-2.13.9-.56,1.94-.83,2.99-.77h1.88v-.94c.02-.49-.16-.97-.51-1.32-.4-.35-.92-.52-1.44-.49-.49-.02-.97.13-1.36.43-.33.24-.52.62-.52,1.02h-1.65l-.02-.05c0-.76.36-1.47.98-1.9.76-.6,1.7-.9,2.67-.86.94-.05,1.86.25,2.6.82.68.59,1.04,1.47.99,2.37v4.58c0,.33.02.66.05.98.03.32.1.63.19.93h-1.79Zm-2.87-1.27c.6,0,1.19-.16,1.7-.48.44-.25.79-.64.98-1.11v-1.54h-1.94c-.6-.03-1.2.16-1.67.53-.39.29-.62.75-.63,1.24-.02.38.13.74.4,1,.33.27.74.4,1.16.37h0Zm8.47-8.24l.12,1.41c.29-.48.7-.89,1.19-1.17.5-.28,1.06-.43,1.63-.42.89-.05,1.75.27,2.38.9.63.79.93,1.78.84,2.79v6h-1.73v-5.97c.06-.64-.12-1.27-.5-1.78-.41-.38-.96-.57-1.52-.53-.47,0-.93.12-1.32.36-.39.24-.7.58-.92.98v6.94h-1.73v-9.51h1.55Zm8.29,4.93c-.06-1.3.28-2.6.98-3.7.61-.91,1.65-1.45,2.75-1.41.51,0,1.02.1,1.48.31.43.21.81.52,1.1.9v-5.23h1.73v13.71h-1.41l-.2-1.17c-.29.43-.68.78-1.14,1.01-.49.24-1.03.35-1.57.34-1.06.05-2.08-.42-2.73-1.26-.69-.96-1.04-2.13-.98-3.32v-.19Zm1.73.19c-.04.81.17,1.61.59,2.31.42.59,1.11.92,1.83.87.46.02.91-.11,1.3-.35.37-.25.66-.59.86-.98v-4.44c-.21-.38-.51-.7-.87-.94-.38-.24-.83-.36-1.28-.35-.76-.04-1.48.36-1.84,1.03-.43.82-.63,1.74-.59,2.67v.19ZM8.34,86.7H2.98l-1.21,3.3H0l4.95-12.8h1.49l4.87,12.8h-1.77l-1.19-3.3Zm-4.82-1.45h4.31l-2.11-5.82h-.05l-2.14,5.82Zm13.72-3.23l-.89-.05c-.41-.01-.81.1-1.16.33-.32.23-.58.55-.73.91v6.8h-1.73v-9.51h1.55l.17,1.39c.24-.46.58-.85,1-1.15.4-.28.88-.42,1.37-.41.12,0,.25.01.37.03.1.02.19.04.29.07l-.24,1.6Zm5.37,6.81c.55,0,1.09-.18,1.52-.53.41-.31.66-.79.66-1.31h1.56l.02.05c0,.86-.4,1.68-1.09,2.18-.74.63-1.68.97-2.65.95-1.21.07-2.39-.43-3.17-1.35-.76-.97-1.14-2.17-1.1-3.4v-.37c-.04-1.22.35-2.42,1.1-3.39.78-.93,1.96-1.43,3.17-1.36,1-.04,1.98.31,2.73.98.69.61,1.06,1.5,1.02,2.42l-.02.05h-1.56c0-.56-.21-1.09-.61-1.48-.41-.41-.98-.63-1.56-.61-.78-.07-1.53.31-1.95.98-.41.73-.61,1.56-.58,2.4v.37c-.03.85.17,1.69.58,2.43.42.66,1.17,1.04,1.95.97h0Zm7.42-7.06c.31-.44.73-.81,1.21-1.06.49-.26,1.03-.39,1.59-.38.88-.05,1.75.28,2.37.91.63.8.93,1.8.85,2.81v5.95h-1.73v-5.98c.05-.62-.13-1.24-.51-1.74-.4-.4-.95-.6-1.51-.56-.46,0-.91.11-1.31.34-.39.23-.72.54-.96.92v7.02h-1.73v-13.71h1.73v5.48Zm10.37,8.24h-1.73v-9.51h1.73v9.51Zm0-11.94h-1.73v-1.77h1.73v1.77Zm4.95.14v2.29h1.8v1.28h-1.8v5.77c-.03.34.06.68.28.94.2.19.46.28.73.27.11,0,.22-.01.33-.03.11-.02.22-.05.32-.09l.23,1.19c-.17.12-.36.21-.57.26-.24.07-.5.1-.75.1-.62.03-1.23-.2-1.68-.64-.46-.56-.69-1.28-.62-2v-5.77h-1.51v-1.28h1.51v-2.29h1.73Zm7.88,11.99c-1.2.05-2.36-.43-3.16-1.32-.81-.96-1.23-2.18-1.17-3.43v-.39c-.04-1.24.39-2.45,1.21-3.38.71-.85,1.75-1.35,2.86-1.35,1.1-.08,2.17.35,2.91,1.16.69.88,1.04,1.98.98,3.09v1.08h-6.17l-.03.04c-.02.81.23,1.6.69,2.25.44.59,1.14.92,1.87.88.52.01,1.05-.07,1.54-.25.42-.16.81-.39,1.15-.69l.68,1.12c-.39.36-.85.65-1.35.83-.65.24-1.33.35-2.02.33Zm-.26-8.51c-.58,0-1.13.27-1.49.73-.43.53-.69,1.17-.76,1.84l.02.04h4.39v-.23c.02-.61-.17-1.22-.54-1.7-.4-.47-1-.73-1.62-.69h0Zm9.7,7.15c.55,0,1.09-.18,1.52-.53.41-.31.66-.79.65-1.31h1.56l.02.05c0,.86-.4,1.68-1.09,2.18-.74.63-1.68.97-2.65.95-1.21.07-2.39-.43-3.17-1.35-.76-.97-1.14-2.17-1.1-3.4v-.37c-.04-1.22.35-2.42,1.1-3.39,1.56-1.66,4.14-1.82,5.9-.37.69.61,1.06,1.5,1.02,2.42l-.02.05h-1.56c0-.56-.21-1.09-.61-1.48-.41-.41-.98-.63-1.56-.61-.78-.07-1.53.31-1.95.98-.41.73-.61,1.56-.58,2.4v.37c-.03.85.17,1.69.58,2.43.42.67,1.17,1.04,1.95.97h0Zm7.98-10.63v2.29h1.8v1.28h-1.8v5.77c-.03.34.06.68.28.94.2.19.46.28.73.27.11,0,.22-.01.33-.03.11-.02.22-.05.32-.09l.23,1.19c-.17.12-.36.21-.57.26-.24.07-.5.1-.75.1-.62.03-1.23-.2-1.68-.64-.46-.56-.69-1.28-.62-2v-5.77h-1.51v-1.28h1.51v-2.29h1.73Zm9.98,10.4c-.28.49-.67.89-1.15,1.18-.49.28-1.06.42-1.63.41-.92.05-1.81-.31-2.43-.99-.65-.89-.96-1.99-.87-3.09v-5.61h1.73v5.62c-.07.73.09,1.46.45,2.09.35.4.87.62,1.4.57.53.02,1.06-.11,1.53-.37.4-.25.72-.62.91-1.06v-6.85h1.73v9.51h-1.56l-.11-1.4Zm8.69-6.57l-.89-.05c-.41-.01-.81.1-1.16.33-.32.23-.58.55-.72.91v6.79h-1.73v-9.51h1.55l.17,1.39c.24-.46.58-.85,1-1.15.4-.28.88-.42,1.37-.41.12,0,.25.01.37.03.1.02.19.04.29.07l-.24,1.61Zm5.45,8.16c-1.2.05-2.36-.43-3.16-1.32-.81-.96-1.23-2.19-1.17-3.44v-.39c-.04-1.24.39-2.45,1.21-3.38.71-.85,1.75-1.35,2.86-1.35,1.1-.08,2.17.35,2.91,1.16.69.88,1.04,1.98.98,3.09v1.08h-6.17l-.03.04c-.02.81.23,1.6.69,2.25.44.59,1.14.92,1.87.88.52.01,1.05-.07,1.54-.25.42-.16.81-.39,1.15-.69l.68,1.12c-.39.36-.85.65-1.35.83-.65.24-1.33.35-2.02.33h0Zm-.26-8.51c-.58,0-1.13.27-1.49.73-.43.53-.69,1.17-.76,1.84l.02.04h4.39v-.23c.02-.61-.17-1.22-.54-1.7-.4-.48-1-.73-1.62-.69h0Zm11.36,5.8c0-.36-.15-.71-.43-.94-.5-.33-1.06-.55-1.65-.64-.93-.16-1.82-.51-2.61-1.02-.57-.4-.9-1.06-.88-1.76,0-.78.37-1.51.98-1.98,1.56-1.1,3.66-1.09,5.21.03.62.5.97,1.27.94,2.07l-.02.05h-1.65c0-.43-.2-.84-.52-1.12-.38-.34-.87-.52-1.38-.5-.49-.04-.98.1-1.37.4-.29.24-.45.6-.45.98-.01.34.13.67.4.89.49.3,1.04.5,1.61.58.96.16,1.87.52,2.68,1.05.57.41.9,1.08.88,1.78.02.81-.37,1.58-1.02,2.05-.78.55-1.72.83-2.68.78-1.04.06-2.06-.27-2.86-.92-.65-.52-1.02-1.32-.99-2.15l.02-.05h1.65c-.01.54.25,1.04.69,1.35.45.29.97.44,1.5.43.51.03,1.01-.1,1.45-.37.33-.22.53-.58.52-.98h0Zm10.23,2.52h-1.73v-9.51h1.73v9.51Zm0-11.94h-1.73v-1.77h1.73v1.77Zm4.21,2.43l.12,1.41c.29-.48.7-.89,1.19-1.17.5-.28,1.06-.43,1.63-.42.89-.05,1.75.27,2.38.9.62.79.93,1.78.84,2.78v6h-1.73v-5.97c.06-.64-.12-1.27-.5-1.78-.41-.38-.96-.57-1.52-.53-.47,0-.93.12-1.32.36-.39.24-.7.58-.92.98v6.93h-1.73v-9.51h1.55Zm15.21,8.16h6.06v1.35h-7.79v-12.8h1.73v11.45Zm9.54,1.35h-1.73v-9.51h1.73v9.51Zm0-11.94h-1.73v-1.77h1.73v1.77Zm4.95.14v2.29h1.8v1.28h-1.8v5.77c-.03.34.06.68.28.94.2.19.46.28.73.27.11,0,.22-.01.33-.03.11-.02.22-.05.32-.09l.23,1.19c-.17.12-.36.21-.57.26-.24.07-.5.1-.75.1-.62.03-1.23-.2-1.68-.64-.46-.56-.69-1.28-.62-2v-5.77h-1.51v-1.28h1.51v-2.29h1.73Zm7.88,11.99c-1.2.05-2.36-.43-3.16-1.32-.81-.96-1.23-2.18-1.17-3.43v-.39c-.04-1.24.39-2.45,1.21-3.38.71-.85,1.75-1.35,2.86-1.35,1.1-.08,2.17.35,2.91,1.16.69.88,1.04,1.98.98,3.09v1.08h-6.17l-.03.04c-.02.81.23,1.6.69,2.25.44.59,1.14.92,1.87.88.52.01,1.05-.07,1.54-.25.42-.16.81-.39,1.15-.69l.68,1.12c-.39.36-.85.65-1.35.83-.65.24-1.33.35-2.02.33Zm-.26-8.51c-.58,0-1.13.27-1.49.73-.43.53-.69,1.17-.76,1.84l.02.04h4.39v-.23c.02-.61-.17-1.22-.54-1.7-.4-.47-1-.73-1.62-.68Zm10.34.34l-.89-.05c-.41-.01-.81.1-1.16.33-.32.23-.58.55-.73.91v6.79h-1.73v-9.51h1.55l.17,1.39c.24-.46.58-.85,1-1.15.4-.28.88-.42,1.37-.41.12,0,.25.01.37.03.1.02.19.04.29.07l-.24,1.61Zm7.52,7.98c-.06-.29-.1-.54-.14-.76-.03-.22-.05-.44-.06-.66-.33.47-.76.86-1.26,1.15-.51.3-1.08.46-1.67.46-.83.06-1.64-.22-2.26-.76-.54-.56-.82-1.32-.78-2.1-.03-.85.39-1.66,1.1-2.13.9-.56,1.94-.83,2.99-.77h1.88v-.94c.02-.49-.16-.97-.51-1.32-.4-.35-.92-.52-1.44-.49-.49-.02-.97.13-1.36.43-.33.24-.52.62-.52,1.02h-1.65l-.02-.05c0-.76.36-1.47.98-1.9.76-.6,1.7-.9,2.67-.86.94-.05,1.86.25,2.6.82.68.59,1.04,1.47.98,2.37v4.58c0,.33.02.66.05.98.03.32.1.63.19.93h-1.78Zm-2.87-1.27c.6,0,1.19-.16,1.7-.48.44-.25.79-.64.98-1.11v-1.54h-1.95c-.6-.03-1.2.16-1.67.53-.39.29-.62.75-.63,1.24-.02.38.13.74.4,1,.33.27.75.4,1.17.37h0Zm9.21-10.53v2.29h1.8v1.28h-1.8v5.77c-.03.34.06.68.28.94.2.19.46.28.73.27.11,0,.22-.01.33-.03.11-.02.22-.05.32-.09l.23,1.19c-.17.12-.36.21-.57.26-.24.07-.5.1-.75.1-.62.03-1.23-.2-1.68-.64-.46-.56-.69-1.28-.62-2v-5.77h-1.51v-1.28h1.51v-2.29h1.73Zm9.98,10.4c-.28.49-.67.89-1.15,1.18-.49.28-1.06.42-1.63.41-.92.05-1.81-.31-2.43-.99-.65-.89-.96-1.99-.87-3.09v-5.61h1.73v5.62c-.07.73.09,1.46.45,2.09.35.4.87.62,1.4.57.53.02,1.06-.11,1.52-.37.4-.25.72-.62.91-1.06v-6.85h1.73v9.51h-1.56l-.12-1.4Zm8.69-6.57l-.89-.05c-.41-.01-.81.1-1.16.33-.32.23-.58.55-.73.91v6.79h-1.73v-9.51h1.55l.17,1.39c.24-.46.58-.85,1-1.15.4-.28.88-.42,1.37-.41.12,0,.25.01.37.03.1.02.19.04.29.07l-.24,1.61Zm5.45,8.16c-1.2.05-2.36-.43-3.16-1.32-.81-.96-1.23-2.18-1.17-3.43v-.39c-.04-1.24.39-2.45,1.21-3.38.71-.85,1.75-1.35,2.86-1.35,1.1-.08,2.17.35,2.91,1.16.69.88,1.04,1.98.98,3.09v1.08h-6.17l-.03.04c-.02.81.23,1.6.69,2.25.44.59,1.14.92,1.87.88.52.01,1.05-.07,1.54-.25.42-.16.81-.39,1.15-.69l.68,1.12c-.39.36-.85.65-1.35.83-.65.24-1.33.35-2.02.33h0Zm-.26-8.51c-.58,0-1.13.27-1.49.73-.43.53-.69,1.17-.76,1.84l.02.04h4.39v-.23c.02-.61-.17-1.22-.54-1.7-.4-.48-1-.73-1.62-.69h0ZM11.09,114.74c.05,1.44-.48,2.84-1.45,3.89-.98,1.03-2.35,1.6-3.78,1.55-1.38.05-2.71-.52-3.64-1.55-.95-1.07-1.45-2.46-1.4-3.89v-2.28c-.05-1.43.45-2.82,1.4-3.89.92-1.03,2.26-1.6,3.64-1.56,1.42-.05,2.8.52,3.77,1.55.98,1.06,1.5,2.46,1.45,3.9v2.27Zm-1.73-2.29c.04-1.04-.29-2.07-.95-2.88-.63-.75-1.57-1.16-2.55-1.12-.94-.03-1.84.39-2.41,1.12-.63.83-.94,1.85-.9,2.88v2.29c-.05,1.04.27,2.07.9,2.9.58.74,1.47,1.16,2.41,1.13.98.04,1.92-.37,2.55-1.12.65-.82.99-1.85.94-2.9v-2.3Zm5.54-1.96l.12,1.42c.29-.48.7-.89,1.19-1.17.5-.28,1.06-.43,1.63-.42.89-.05,1.75.27,2.38.9.63.79.93,1.78.84,2.78v6h-1.73v-5.97c.06-.64-.12-1.27-.5-1.78-.41-.38-.96-.57-1.52-.53-.47,0-.93.12-1.32.36-.39.24-.7.58-.92.98v6.93h-1.73v-9.51h1.55Zm10.56,9.51h-1.73v-13.71h1.73v13.71Zm4.53,0h-1.73v-9.51h1.73v9.51Zm0-11.94h-1.73v-1.77h1.73v1.77Zm4.21,2.44l.12,1.42c.29-.48.7-.89,1.19-1.17.5-.28,1.06-.43,1.63-.42.89-.05,1.75.27,2.38.9.62.79.93,1.78.84,2.78v6h-1.73v-5.97c.06-.64-.12-1.27-.5-1.78-.41-.38-.96-.57-1.52-.53-.47,0-.93.12-1.32.36-.39.24-.7.58-.92.98v6.93h-1.73v-9.51h1.55Zm12.63,9.69c-1.2.05-2.36-.43-3.16-1.32-.81-.96-1.23-2.18-1.17-3.43v-.39c-.04-1.24.39-2.45,1.21-3.38.71-.85,1.75-1.35,2.86-1.35,1.1-.08,2.17.35,2.91,1.16.69.88,1.04,1.98.98,3.09v1.08h-6.17l-.03.04c-.02.81.23,1.6.69,2.25.44.59,1.14.92,1.87.88.52.01,1.05-.07,1.54-.25.42-.16.81-.39,1.15-.69l.68,1.12c-.39.36-.85.65-1.35.83-.65.24-1.33.35-2.02.33Zm-.26-8.51c-.58,0-1.13.27-1.49.73-.43.53-.69,1.17-.76,1.84l.02.04h4.39v-.23c.02-.61-.17-1.22-.54-1.71-.4-.47-1-.73-1.62-.68h0Zm17.57,5.02h-5.36l-1.21,3.3h-1.77l4.95-12.8h1.48l4.87,12.8h-1.77l-1.19-3.3Zm-4.83-1.45h4.31l-2.11-5.83h-.05l-2.14,5.83Zm10.77-4.76l.12,1.42c.29-.48.7-.89,1.19-1.17.5-.28,1.06-.43,1.63-.42.89-.05,1.75.27,2.38.9.63.79.93,1.78.84,2.78v6h-1.73v-5.97c.06-.64-.12-1.27-.5-1.78-.41-.38-.96-.57-1.52-.53-.47,0-.93.12-1.32.36-.39.24-.7.58-.92.98v6.93h-1.73v-9.51h1.55Zm10.97-2.29v2.29h1.8v1.28h-1.8v5.77c-.03.34.06.68.28.94.2.19.46.28.73.27.11,0,.22-.01.33-.04.11-.02.22-.05.32-.09l.23,1.19c-.17.12-.36.21-.57.26-.24.07-.5.1-.75.1-.62.03-1.23-.2-1.68-.64-.46-.56-.69-1.28-.62-2v-5.77h-1.51v-1.28h1.51v-2.29h1.73Zm5.67,3.57c.32-.45.73-.81,1.21-1.07.49-.26,1.03-.39,1.59-.38.88-.05,1.75.28,2.37.91.63.8.93,1.8.85,2.81v5.95h-1.73v-5.98c.05-.62-.13-1.24-.5-1.74-.4-.4-.95-.6-1.51-.56-.46,0-.91.11-1.31.34-.39.23-.72.54-.96.92v7.02h-1.73v-13.71h1.73v5.48Zm8.1,3.39c-.05-1.26.36-2.49,1.14-3.48,1.58-1.72,4.26-1.83,5.98-.24.08.08.17.16.24.24.79.98,1.2,2.22,1.15,3.48v.19c.05,1.26-.35,2.5-1.14,3.48-1.6,1.72-4.29,1.82-6.01.22-.07-.07-.15-.14-.22-.22-.79-.98-1.2-2.22-1.15-3.48v-.2Zm1.73.19c-.04.88.19,1.75.64,2.5.73,1.04,2.16,1.3,3.2.57.22-.16.42-.35.57-.57.45-.75.68-1.62.64-2.5v-.19c.03-.87-.19-1.74-.65-2.49-.41-.65-1.13-1.03-1.89-.99-.76-.04-1.48.35-1.88.99-.45.75-.67,1.61-.64,2.49v.19Zm10.77,4.65h-1.73v-13.71h1.73v13.71Zm2.26-4.84c-.05-1.26.36-2.49,1.14-3.48,1.58-1.72,4.26-1.83,5.98-.24.08.08.17.16.24.24.79.98,1.2,2.22,1.15,3.48v.19c.05,1.26-.35,2.5-1.14,3.48-1.6,1.72-4.29,1.82-6.01.22-.07-.07-.15-.14-.22-.22-.79-.98-1.2-2.22-1.15-3.48v-.2Zm1.73.19c-.04.88.19,1.75.64,2.5.73,1.04,2.16,1.3,3.2.57.22-.16.42-.35.57-.57.45-.75.68-1.62.64-2.5v-.19c.03-.87-.19-1.74-.65-2.49-.41-.65-1.13-1.03-1.89-.99-.76-.04-1.48.35-1.88.99-.45.75-.67,1.61-.64,2.49v.19Zm8.53.07c-.06-1.31.29-2.6,1-3.7.62-.91,1.67-1.44,2.77-1.41.55-.01,1.1.11,1.59.37.46.25.86.61,1.14,1.05l.21-1.24h1.38v9.56c.07,1.05-.32,2.07-1.06,2.81-.86.71-1.96,1.06-3.07.98-.5,0-1-.07-1.48-.19-.49-.11-.96-.28-1.4-.51l.44-1.35c.35.19.73.34,1.12.43.43.11.86.16,1.3.16.67.06,1.33-.15,1.84-.58.42-.48.63-1.12.58-1.75v-1.07c-.29.39-.68.69-1.12.9-.47.21-.98.31-1.49.3-1.07.05-2.09-.43-2.75-1.27-.7-.96-1.06-2.13-1-3.31v-.18Zm1.73.18c-.04.81.17,1.61.61,2.3.42.59,1.12.92,1.85.87.46.02.92-.11,1.31-.36.37-.26.67-.6.87-1.01v-4.37c-.21-.39-.51-.72-.87-.96-.39-.25-.84-.37-1.29-.36-.76-.03-1.48.37-1.85,1.04-.44.82-.65,1.74-.61,2.66v.18Zm11.79.87l.31,1.2h.05l2.34-7.18h1.93l-4,10.97c-.23.62-.58,1.19-1.03,1.67-.48.49-1.14.75-1.82.71-.18,0-.36-.02-.54-.05-.22-.03-.38-.06-.5-.09l.18-1.36c.1,0,.21,0,.31.02.24.02.4.03.46.03.37,0,.71-.18.9-.49.24-.34.44-.7.59-1.09l.41-.99-3.53-9.32h1.93l2,5.98Z" style="fill:#212529; stroke-width:0px;"/><path id="Pfad_942" d="m7.68,15.8h3.88v13.29c.08,1.64-.48,3.24-1.56,4.48-1.03,1.12-2.49,1.74-4.01,1.69-1.53.09-3.02-.48-4.1-1.57-1.03-1.21-1.56-2.77-1.46-4.36h3.89c0,1.81.56,2.72,1.67,2.72s1.68-1.05,1.69-3.14v-13.11Zm12.36,19.46c-1.67.1-3.3-.53-4.48-1.71-1.15-1.36-1.73-3.12-1.61-4.9v-1.14c-.12-1.86.4-3.7,1.48-5.21,1.04-1.25,2.61-1.93,4.23-1.83,1.55-.11,3.05.53,4.05,1.72,1.01,1.5,1.5,3.29,1.38,5.1v1.83h-7.42c-.02.83.22,1.64.7,2.31.49.52,1.2.79,1.91.73,1.17.03,2.31-.43,3.12-1.28l1.46,2.25c-.52.68-1.2,1.21-1.99,1.54-.89.4-1.86.6-2.84.59Zm-2.35-8.75h3.73v-.34c.02-.67-.12-1.34-.42-1.94-.3-.46-.83-.71-1.37-.66-.56-.04-1.11.23-1.42.7-.35.69-.53,1.46-.52,2.24Zm19.76,2.23l1.28-8h3.57l-2.95,14.26h-3.1l-2.02-8.25-2.01,8.25h-3.11l-2.95-14.27h3.59l1.27,8.02,1.9-8.02h2.65l1.9,8Zm10.48,6.26h-3.74v-14.27h3.74v14.27Zm-3.91-17.96c-.02-.53.18-1.05.55-1.42.85-.74,2.11-.74,2.95,0,.37.38.57.89.55,1.42.02,1.12-.86,2.05-1.99,2.08-1.12.02-2.05-.86-2.08-1.99,0-.03,0-.06,0-.09Zm12.98,14.13c-.01-.35-.18-.67-.46-.88-.62-.45-1.3-.81-2.02-1.09-1.19-.4-2.27-1.06-3.17-1.94-.59-.7-.89-1.58-.86-2.49-.03-1.18.46-2.31,1.35-3.09,1-.85,2.28-1.28,3.58-1.22,1.36-.07,2.7.36,3.76,1.21.94.81,1.46,2.01,1.41,3.26h-3.73c0-1.16-.48-1.74-1.45-1.74-.36-.01-.71.12-.98.37-.27.27-.4.65-.38,1.03,0,.33.16.64.42.84.62.42,1.29.77,1.99,1.04,1.2.37,2.31,1.01,3.22,1.88.65.74.98,1.7.94,2.68.04,1.19-.5,2.33-1.44,3.07-1.08.81-2.42,1.22-3.77,1.16-.96.02-1.91-.19-2.77-.61-.77-.38-1.42-.97-1.88-1.71-.45-.71-.68-1.52-.68-2.36h3.55c-.02.53.14,1.04.46,1.46.37.36.88.54,1.4.49,1.01,0,1.51-.45,1.51-1.35Zm9.45-9.19c.69-.95,1.8-1.52,2.98-1.52,1.16-.07,2.27.45,2.97,1.37.76,1.22,1.12,2.65,1.03,4.09v9.07h-3.74v-9.03c.05-.63-.09-1.26-.39-1.81-.3-.39-.77-.6-1.26-.56-.66,0-1.27.35-1.58.94v10.47h-3.73V14.75h3.73v7.24Zm27.43-2.95h-4.75v15.97h-3.89v-15.97h-4.67v-3.23h13.3v3.23Zm6.5,16.23c-1.67.1-3.31-.53-4.49-1.71-1.15-1.36-1.73-3.12-1.61-4.9v-1.14c-.12-1.86.4-3.7,1.48-5.21,1.04-1.25,2.61-1.93,4.23-1.83,1.55-.11,3.05.53,4.05,1.72,1.01,1.5,1.5,3.29,1.38,5.1v1.83h-7.42c-.02.83.22,1.64.7,2.31.49.52,1.2.79,1.91.73,1.17.03,2.31-.43,3.12-1.28l1.46,2.25c-.52.68-1.2,1.21-1.99,1.54-.89.4-1.86.6-2.84.59h0Zm-2.35-8.75h3.73v-.34c.02-.67-.12-1.34-.42-1.94-.3-.46-.83-.71-1.37-.66-.56-.04-1.11.23-1.42.7-.35.69-.53,1.46-.52,2.24Zm14.14-1.54l1.66-4.23h3.96l-3.26,6.97,3.37,7.29h-3.97l-1.75-4.47-1.74,4.47h-3.98l3.38-7.29-3.23-6.97h3.97l1.6,4.23Zm11.65-7.74v3.51h1.91v2.81h-1.91v7.08c-.04.4.04.8.23,1.16.23.24.56.36.89.32.3,0,.59-.02.88-.09l-.03,2.9c-.66.24-1.36.36-2.06.36-2.41,0-3.63-1.38-3.65-4.14v-7.58h-1.65v-2.81h1.65v-3.51h3.73Zm10.83,16.47c-.71,1.01-1.88,1.6-3.11,1.57-1.16.07-2.27-.43-2.98-1.35-.75-1.17-1.11-2.55-1.01-3.93v-9.24h3.73v9.33c.02,1.39.48,2.08,1.38,2.08.78.04,1.51-.4,1.85-1.11v-10.31h3.76v14.27h-3.51l-.11-1.31Zm12.92,1.31c-.15-.36-.25-.73-.32-1.11-.61.89-1.64,1.4-2.72,1.37-1.11.03-2.19-.4-2.97-1.19-.8-.82-1.22-1.93-1.18-3.07-.08-1.31.45-2.59,1.43-3.47,1.18-.89,2.64-1.34,4.12-1.25h1.13v-1.15c.04-.48-.07-.95-.33-1.36-.24-.28-.6-.42-.96-.4-.93,0-1.4.54-1.4,1.64h-3.73c-.03-1.26.52-2.46,1.48-3.26,1.05-.88,2.38-1.34,3.75-1.28,1.32-.08,2.63.35,3.63,1.22.9.93,1.37,2.2,1.29,3.49v6.71c-.03.99.15,1.97.53,2.89v.23h-3.76Zm-2.2-2.66c.37.01.73-.07,1.05-.25.26-.14.48-.34.65-.59v-2.97h-.9c-.56-.03-1.11.19-1.5.61-.38.45-.58,1.03-.55,1.62,0,1.05.42,1.58,1.24,1.58h0Zm11.91,2.66h-3.74V14.75h3.74v20.25Zm18.19-3.93h-5.29l-1.03,3.93h-4.1l6-19.2h3.55l6.04,19.2h-4.14l-1.03-3.93Zm-4.44-3.23h3.59l-1.79-6.84-1.79,6.84Zm18.12-3.51l-1.24-.1c-.91-.07-1.76.48-2.07,1.35v9.43h-3.74v-14.27h3.52l.1,1.54c.37-1.05,1.33-1.76,2.44-1.81.35-.01.7.05,1.03.17l-.04,3.69Zm6.68,7.83c1.08,0,1.63-.7,1.65-2.11h3.51c.04,1.4-.47,2.76-1.44,3.77-.96.97-2.28,1.49-3.64,1.44-1.59.1-3.14-.53-4.21-1.71-1.07-1.46-1.59-3.25-1.48-5.05v-1.13c-.12-1.82.38-3.63,1.43-5.13,1.05-1.22,2.62-1.88,4.23-1.77,1.39-.07,2.75.46,3.72,1.46.97,1.15,1.46,2.63,1.38,4.13h-3.51c.03-.64-.11-1.28-.4-1.85-.26-.44-.75-.68-1.26-.65-.56-.05-1.1.22-1.4.69-.36.85-.51,1.77-.45,2.68v1.45c-.03.81.03,1.63.17,2.43.07.39.27.75.57,1.01.33.23.72.35,1.12.32h0Zm10.77-10.18c.69-.95,1.8-1.52,2.98-1.52,1.16-.07,2.27.45,2.97,1.37.76,1.22,1.12,2.65,1.03,4.09v9.07h-3.74v-9.03c.05-.63-.09-1.26-.39-1.81-.3-.39-.77-.6-1.26-.56-.66,0-1.27.35-1.58.94v10.47h-3.73V14.75h3.73v7.24Zm13.43,13.01h-3.74v-14.27h3.74v14.27Zm-3.91-17.96c-.02-.53.18-1.05.55-1.42.85-.74,2.11-.74,2.95,0,.37.38.57.89.55,1.42.02,1.12-.86,2.05-1.99,2.08-1.12.02-2.05-.86-2.08-1.99,0-.03,0-.06,0-.09Zm11.01.18v3.51h1.91v2.81h-1.92v7.08c-.04.4.04.8.23,1.16.23.24.56.36.89.32.3,0,.59-.02.88-.09l-.03,2.9c-.66.24-1.36.36-2.06.36-2.41,0-3.63-1.38-3.65-4.14v-7.58h-1.65v-2.81h1.65v-3.51h3.74Zm9.58,18.03c-1.67.1-3.31-.53-4.49-1.71-1.15-1.36-1.73-3.12-1.61-4.9v-1.14c-.12-1.85.4-3.69,1.48-5.21,1.04-1.25,2.61-1.93,4.23-1.83,1.55-.11,3.05.53,4.05,1.72,1.01,1.5,1.5,3.29,1.38,5.1v1.83h-7.42c-.02.83.22,1.64.7,2.31.49.52,1.2.79,1.91.73,1.17.03,2.31-.43,3.12-1.28l1.46,2.25c-.52.68-1.2,1.21-1.99,1.54-.89.4-1.86.6-2.84.59h0Zm-2.35-8.75h3.73v-.34c.02-.67-.12-1.34-.42-1.94-.3-.46-.83-.71-1.37-.66-.56-.04-1.11.23-1.42.7-.35.69-.53,1.46-.52,2.24h0Zm14.52,5.66c1.08,0,1.63-.7,1.65-2.11h3.51c.04,1.4-.47,2.76-1.44,3.77-.96.97-2.28,1.49-3.64,1.44-1.59.1-3.14-.53-4.21-1.71-1.07-1.46-1.59-3.25-1.48-5.05v-1.14c-.12-1.82.38-3.63,1.43-5.13,1.05-1.22,2.62-1.88,4.23-1.77,1.39-.07,2.75.46,3.72,1.46.97,1.15,1.46,2.63,1.38,4.13h-3.51c.03-.64-.11-1.28-.4-1.85-.27-.44-.76-.69-1.27-.65-.56-.05-1.1.22-1.4.69-.36.85-.51,1.77-.45,2.68v1.45c-.03.81.03,1.63.17,2.43.07.39.27.75.57,1.01.33.23.73.35,1.13.32h0Zm11.46-14.94v3.51h1.91v2.81h-1.91v7.08c-.04.4.04.8.23,1.16.23.24.56.36.89.32.3,0,.59-.02.88-.09l-.03,2.9c-.66.24-1.36.36-2.06.36-2.41,0-3.63-1.38-3.65-4.14v-7.58h-1.65v-2.81h1.65v-3.51h3.73Zm10.83,16.47c-.71,1.01-1.88,1.6-3.11,1.57-1.16.07-2.27-.43-2.98-1.35-.75-1.17-1.11-2.55-1.02-3.93v-9.24h3.73v9.33c.02,1.39.48,2.08,1.38,2.08.78.04,1.51-.4,1.85-1.11v-10.31h3.76v14.27h-3.51l-.11-1.31Zm13.18-9.36l-1.24-.1c-.91-.07-1.76.48-2.07,1.35v9.42h-3.74v-14.27h3.52l.11,1.54c.37-1.05,1.33-1.76,2.44-1.81.35-.01.7.05,1.03.17l-.04,3.69Zm7.29,10.93c-1.67.1-3.3-.53-4.48-1.71-1.15-1.36-1.73-3.12-1.61-4.9v-1.14c-.12-1.85.4-3.69,1.48-5.21,1.04-1.25,2.61-1.93,4.23-1.83,1.55-.11,3.05.53,4.05,1.72,1.01,1.5,1.5,3.29,1.38,5.1v1.83h-7.42c-.02.83.22,1.64.7,2.31.49.52,1.2.79,1.91.73,1.17.03,2.31-.43,3.12-1.28l1.46,2.25c-.52.68-1.2,1.21-1.99,1.54-.89.4-1.86.6-2.84.59h0Zm-2.35-8.75h3.73v-.34c.02-.67-.12-1.34-.42-1.94-.3-.46-.83-.71-1.37-.66-.56-.04-1.11.23-1.42.7-.35.69-.53,1.46-.52,2.24h0Zm15.68,4.67c-.01-.35-.18-.67-.45-.88-.63-.45-1.31-.81-2.02-1.09-1.19-.4-2.27-1.06-3.17-1.94-.59-.7-.89-1.58-.86-2.49-.03-1.18.46-2.31,1.35-3.09.99-.85,2.27-1.28,3.58-1.22,1.36-.07,2.7.36,3.76,1.21.94.81,1.46,2.01,1.41,3.26h-3.73c0-1.16-.48-1.74-1.45-1.74-.36-.01-.71.12-.98.37-.27.27-.4.65-.38,1.03,0,.33.16.64.42.84.62.42,1.29.77,1.99,1.04,1.2.37,2.31,1.01,3.22,1.88.65.74.98,1.7.94,2.68.04,1.19-.5,2.34-1.44,3.07-1.08.81-2.42,1.22-3.77,1.16-.96.02-1.91-.19-2.77-.61-.77-.38-1.42-.97-1.88-1.71-.45-.71-.68-1.52-.68-2.36h3.55c-.02.53.14,1.04.45,1.46.37.36.88.54,1.4.49,1.01,0,1.51-.45,1.51-1.36h0Z" style="fill:#276cea; stroke-width:0px;"/></svg>