<svg width="907" height="650" xmlns="http://www.w3.org/2000/svg" xmlns:xlink="http://www.w3.org/1999/xlink" overflow="hidden"><defs><clipPath id="clip0"><rect x="0" y="0" width="907" height="650"/></clipPath></defs><g clip-path="url(#clip0)"><rect x="0" y="0" width="907" height="650.119" fill="#FFFFFF"/><rect x="-45.5" y="477.588" width="995" height="90.0166" stroke="#506E6E" stroke-width="6.66544" stroke-linecap="square" stroke-miterlimit="8" fill="none"/><path d="M7.50004 173.532 453.336 5.501 453.664 5.501 899.5 173.532Z" stroke="#506E6E" stroke-width="6.66544" stroke-linecap="square" stroke-linejoin="bevel" stroke-miterlimit="10" fill="#FFFFFF" fill-rule="evenodd"/><path d="M0 468 299.402 0 597 468Z" stroke="#8497B0" stroke-width="6.66544" stroke-miterlimit="8" fill="#FFFFFF" fill-rule="evenodd" transform="matrix(1 0 0 -1.00018 156.5 641.618)"/><path d="M187.5 413.576 719.972 413.576" stroke="#FFFFFF" stroke-width="6.66544" stroke-miterlimit="8" fill="none" fill-rule="evenodd"/><path d="M0 468 299.402 0 597 468Z" stroke="#8497B0" stroke-width="6.66544" stroke-miterlimit="8" fill="#FFFFFF" fill-rule="evenodd" transform="matrix(1 0 0 -1.00018 156.5 641.618)"/><path d="M154.5 477.588 454.081 8.50152 751.5 477.588Z" stroke="#8497B0" stroke-width="6.66544" stroke-miterlimit="8" fill="none" fill-rule="evenodd"/><rect x="893" y="481.088" width="64" height="83.0152" fill="#FFFFFF"/><rect x="-64" y="470.086" width="65" height="112.021" fill="#FFFFFF"/><rect x="392" y="492.09" width="123" height="35.0064" fill="#FFFFFF"/><text fill="#506E6E" font-family="Segoe UI Black,Segoe UI Black_MSFontService,sans-serif" font-weight="900" font-size="29" transform="matrix(1 0 0 1.00018 394.814 521)">SPP 2357</text><rect x="135" y="244.045" width="634" height="78.0144" fill="#FFFFFF"/><text fill="#506E6E" font-family="Segoe UI Black,Segoe UI Black_MSFontService,sans-serif" font-weight="900" font-size="96" transform="matrix(1 0 0 1.00018 188.929 318)">JÜDISCHES</text><rect x="137" y="322.059" width="633" height="86.0157" fill="#FFFFFF"/><text fill="#8497B0" font-family="Segoe UI Black,Segoe UI Black_MSFontService,sans-serif" font-weight="900" font-size="96" transform="matrix(1 0 0 1.00018 148.048 401)">KULTUR</text><text fill="#506E6E" font-family="Segoe UI Black,Segoe UI Black_MSFontService,sans-serif" font-weight="900" font-size="96" transform="matrix(1 0 0 1.00018 526.645 401)">ERBE</text><rect x="-4" y="481.088" width="64" height="83.0152" fill="#FFFFFF"/></g></svg>