<svg width="907" height="650" xmlns="http://www.w3.org/2000/svg" xmlns:xlink="http://www.w3.org/1999/xlink" overflow="hidden"><defs><clipPath id="clip0"><rect x="0" y="0" width="907" height="650"/></clipPath></defs><g clip-path="url(#clip0)"><rect x="0" y="0" width="907" height="650.119" fill="#FFFFFF"/><rect x="-45.5" y="479.588" width="995" height="90.0165" stroke="#506E6E" stroke-width="6.66544" stroke-linecap="square" stroke-miterlimit="8" fill="none"/><path d="M7.50004 174.532 453.336 6.50121 453.664 6.50121 899.5 174.532Z" stroke="#506E6E" stroke-width="6.66544" stroke-linecap="square" stroke-linejoin="bevel" stroke-miterlimit="10" fill="#FFFFFF" fill-rule="evenodd"/><path d="M0 469 299.402 0 597 469Z" stroke="#8497B0" stroke-width="6.66544" stroke-miterlimit="8" fill="#FFFFFF" fill-rule="evenodd" transform="matrix(1 0 0 -1.00018 156.5 643.618)"/><path d="M187.5 415.576 719.972 415.576" stroke="#FFFFFF" stroke-width="6.66544" stroke-miterlimit="8" fill="none" fill-rule="evenodd"/><path d="M0 469 299.402 0 597 469Z" stroke="#8497B0" stroke-width="6.66544" stroke-miterlimit="8" fill="#FFFFFF" fill-rule="evenodd" transform="matrix(1 0 0 -1.00018 156.5 643.618)"/><rect x="893" y="482.089" width="64" height="84.0154" fill="#FFFFFF"/><rect x="-64" y="472.087" width="65" height="111.02" fill="#FFFFFF"/><rect x="392" y="493.091" width="123" height="36.0066" fill="#FFFFFF"/><text fill="#506E6E" font-family="Segoe UI Black,Segoe UI Black_MSFontService,sans-serif" font-weight="900" font-size="29" transform="matrix(1 0 0 1.00018 394.814 522)">SPP 2357</text><path d="M154.5 478.588 454.081 10.5019 751.5 478.588Z" stroke="#8497B0" stroke-width="6.66544" stroke-miterlimit="8" fill="none" fill-rule="evenodd"/><rect x="-4" y="482.089" width="64" height="84.0154" fill="#FFFFFF"/><path d="M300.681-49.8545C300.621-49.1436 300.414-47.9735 300.059-46.3442 299.703-44.715 297.911-37.7241 294.682-25.3716L306.857-25.3716 302.414-42.7007C301.792-45.2482 301.362-47.6328 301.125-49.8545ZM145.46-50.4321 145.46-35.8579 148.926-35.8579C151.503-35.8579 153.577-36.5837 155.147-38.0352 156.717-39.4867 157.502-41.3084 157.502-43.5005 157.502-45.6333 156.85-47.3218 155.547-48.5659 154.243-49.8101 152.2-50.4321 149.415-50.4321ZM289.572-63.7178 313.389-63.7178 334.05 0 313.211 0 310.412-11.7305 291.394-11.7305 288.373 0 267.622 0ZM212.377-63.7178 267.52-63.7178 267.52-48.6992 249.479-48.6992 249.479 0 230.195 0 230.195-48.6992 212.377-48.6992ZM186.265-63.7178 205.46-63.7178 205.46 0 186.265 0ZM126.265-63.7178 151.77-63.7178C160.686-63.7178 167.27-62.2589 171.521-59.3411 175.772-56.4233 177.897-52.0466 177.897-46.2109 177.897-41.8268 176.66-38.1536 174.187-35.1914 171.713-32.2292 168.033-30.0815 163.145-28.7485L163.145-28.5708C165.841-27.7414 168.085-26.3936 169.877-24.5273 171.669-22.6611 173.276-19.8914 174.698-16.2183L180.963 0 159.324 0 154.569-13.73C153.651-16.4256 152.459-18.5436 150.992-20.084 149.526-21.6243 147.934-22.3945 146.216-22.3945L145.46-22.3945 145.46 0 126.265 0ZM77.2651-63.7178 116.944-63.7178 116.944-48.6992 96.4605-48.6992 96.4605-39.4126 115.7-39.4126 115.7-24.394 96.4605-24.394 96.4605-15.0186 118.411-15.0186 118.411 0 77.2651 0ZM6.26515-63.7178 25.4605-63.7178 25.4605-40.1235 47.4995-40.1235 47.4995-63.7178 66.6948-63.7178 66.6948 0 47.4995 0 47.4995-23.772 25.4605-23.772 25.4605 0 6.26515 0ZM373.946-64.7842C379.485-64.7842 385.395-63.9992 391.675-62.4292L391.675-45.6777C388.742-47.0107 385.928-47.9364 383.232-48.4548 380.537-48.9732 377.589-49.2324 374.39-49.2324 369.117-49.2324 364.918-47.6476 361.793-44.478 358.668-41.3084 357.105-36.9539 357.105-31.4146 357.105-26.1121 358.416-21.965 361.038-18.9731 363.659-15.9813 367.325-14.4854 372.035-14.4854 374.227-14.4854 375.842-14.6038 376.878-14.8408L376.878-23.9497 364.659-23.9497 364.659-38.4795 396.074-38.4795 396.074-4.17676C393.674-2.81413 390.09-1.5922 385.321-0.510986 380.552 0.570231 376.005 1.11084 371.68 1.11084 360.512 1.11084 351.892-1.68107 345.819-7.26489 339.747-12.8487 336.71-20.6764 336.71-30.748 336.71-37.502 338.243-43.5005 341.309-48.7437 344.375-53.9868 348.693-57.971 354.262-60.6963 359.831-63.4216 366.392-64.7842 373.946-64.7842Z" stroke="#FFFFFF" stroke-linejoin="round" stroke-miterlimit="10" fill="#506E6E" fill-rule="evenodd" transform="matrix(1 0 0 1.00018 227.887 420.497)"/><text fill="#000000" fill-opacity="0" font-family="Arial,Arial_MSFontService,sans-serif" font-size="65.895" x="6.26515" y="-7.12604">HERITAG</text><path d="M6.26514-63.7178 45.9443-63.7178 45.9443-48.6992 25.4604-48.6992 25.4604-39.4126 44.7002-39.4126 44.7002-24.394 25.4604-24.394 25.4604-15.0186 47.4106-15.0186 47.4106 0 6.26514 0Z" stroke="#FFFFFF" stroke-linejoin="round" stroke-miterlimit="10" fill="#506E6E" fill-rule="evenodd" transform="matrix(1 0 0 1.00018 626.314 420.497)"/><text fill="#000000" fill-opacity="0" font-family="Arial,Arial_MSFontService,sans-serif" font-size="63.7178" x="6.26514" y="-7.96472">E</text><path d="M357.57-48.2109C357.513-47.5234 357.312-46.3919 356.969-44.8164 356.625-43.2409 354.892-36.4805 351.77-24.5352L363.543-24.5352 359.246-41.293C358.645-43.7565 358.229-46.0625 358-48.2109ZM293.621-48.7695 293.621-34.6758 296.973-34.6758C299.465-34.6758 301.47-35.3776 302.988-36.7812 304.507-38.1849 305.266-39.9466 305.266-42.0664 305.266-44.1289 304.635-45.7617 303.375-46.9648 302.115-48.168 300.138-48.7695 297.445-48.7695ZM275.059-61.6172 299.723-61.6172C308.345-61.6172 314.712-60.2064 318.822-57.3848 322.933-54.5632 324.988-50.3307 324.988-44.6875 324.988-40.4479 323.792-36.8958 321.4-34.0312 319.008-31.1667 315.449-29.0898 310.723-27.8008L310.723-27.6289C313.329-26.8268 315.499-25.5234 317.232-23.7188 318.965-21.9141 320.52-19.2357 321.895-15.6836L326.71-3.21783 346.828-61.6172 369.859-61.6172 389.84 0 369.688 0 366.98-11.3438 348.59-11.3438 345.668 0 327.953 0 325.602 0 307.027 0 302.43-13.2773C301.542-15.8841 300.389-17.9323 298.971-19.4219 297.553-20.9115 296.013-21.6562 294.352-21.6562L293.621-21.6562 293.621 0 275.059 0ZM213.371-61.6172 232.02-61.6172 232.02-27.1133C232.02-23.1602 232.757-20.1165 234.232-17.9824 235.708-15.8483 237.82-14.7812 240.57-14.7812 243.349-14.7812 245.462-15.7839 246.908-17.7891 248.355-19.7943 249.078-22.7591 249.078-26.6836L249.078-61.6172 267.77-61.6172 267.77-28.1445C267.77-18.2617 265.514-10.9212 261.002-6.12305 256.49-1.32487 249.536 1.07422 240.141 1.07422 231.375 1.07422 224.722-1.32487 220.182-6.12305 215.641-10.9212 213.371-18.1471 213.371-27.8008ZM157.332-61.6172 210.656-61.6172 210.656-47.0938 193.211-47.0938 193.211 0 174.562 0 174.562-47.0938 157.332-47.0938ZM119.059-61.6172 137.621-61.6172 137.621-14.5234 158.848-14.5234 158.848 0 119.059 0ZM56.3711-61.6172 75.0195-61.6172 75.0195-27.1133C75.0195-23.1602 75.7572-20.1165 77.2324-17.9824 78.7077-15.8483 80.8203-14.7812 83.5703-14.7812 86.349-14.7812 88.4616-15.7839 89.9082-17.7891 91.3548-19.7943 92.0781-22.7591 92.0781-26.6836L92.0781-61.6172 110.77-61.6172 110.77-28.1445C110.77-18.2617 108.514-10.9212 104.002-6.12305 99.4902-1.32487 92.5365 1.07422 83.1406 1.07422 74.375 1.07422 67.722-1.32487 63.1816-6.12305 58.6413-10.9212 56.3711-18.1471 56.3711-27.8008ZM36.4375-62.6484C41.7656-62.6484 46.9219-62.0039 51.9063-60.7148L51.9063-43.5703C50.1875-44.6016 48.1393-45.4036 45.7617-45.9766 43.3841-46.5495 40.9779-46.8359 38.543-46.8359 33.5013-46.8359 29.5267-45.3893 26.6191-42.4961 23.7116-39.6029 22.2578-35.6784 22.2578-30.7227 22.2578-25.7956 23.7116-21.9069 26.6191-19.0566 29.5267-16.2064 33.4154-14.7812 38.2852-14.7812 42.7826-14.7812 47.3229-15.9271 51.9063-18.2188L51.9063-1.67578C46.8073 0.157552 40.9206 1.07422 34.2461 1.07422 27.6862 1.07422 22.0287-0.179036 17.2734-2.68555 12.5182-5.19206 8.88738-8.75846 6.38086-13.3848 3.87435-18.0111 2.6211-23.3464 2.6211-29.3906 2.6211-35.8932 4.02474-41.6797 6.83204-46.75 9.63933-51.8203 13.6068-55.7376 18.7344-58.502 23.862-61.2663 29.763-62.6484 36.4375-62.6484Z" stroke="#FFFFFF" stroke-width="2" stroke-linejoin="round" stroke-miterlimit="10" fill="#8497B0" fill-rule="evenodd" transform="matrix(1 0 0 1.00018 235.793 355.806)"/><text fill="#000000" fill-opacity="0" font-family="Arial,Arial_MSFontService,sans-serif" font-size="63.7227" x="2.6211" y="-6.89111">CULTURA</text><path d="M6.05859-61.6172 24.6211-61.6172 24.6211-14.5234 45.8477-14.5234 45.8477 0 6.05859 0Z" stroke="#FFFFFF" stroke-width="2" stroke-linejoin="round" stroke-miterlimit="10" fill="#8497B0" fill-rule="evenodd" transform="matrix(1 0 0 1.00018 623.129 355.806)"/><text fill="#000000" fill-opacity="0" font-family="Arial,Arial_MSFontService,sans-serif" font-size="61.6172" x="6.05859" y="-7.70215">L</text><path d="M231.16-72.8203 253.098-72.8203 253.098 0 231.16 0ZM114.016-72.8203 138.086-72.8203 144.18-29.9609C144.281-29.4193 144.434-27.8451 144.637-25.2383L144.941-21.0234 145.246-21.0234C145.314-21.9036 145.517-23.4017 145.855-25.5176 146.194-27.6335 146.516-29.2161 146.82-30.2656L158.043-72.8203 181.961-72.8203 191.305-29.6562 191.965-25.3398 192.473-21.125 192.676-21.125 192.828-22.9023 193.488-29.9609 199.836-72.8203 221.469-72.8203 203.086 0 179.777 0 169.672-41.4883C169.367-42.6732 169.029-45.6185 168.656-50.3242L168.453-50.3242C167.945-46.1602 167.454-43.2148 166.98-41.4883L156.062 0 131.383 0ZM61.1602-72.8203 106.508-72.8203 106.508-55.6562 83.0977-55.6562 83.0977-45.043 105.086-45.043 105.086-27.8789 83.0977-27.8789 83.0977-17.1641 108.184-17.1641 108.184 0 61.1602 0ZM24.832-72.8203 46.8203-72.8203 46.8203-31.0781C46.8203-9.51302 36.3425 1.26953 15.3867 1.26953 13.694 1.26953 11.6628 1.06641 9.29297 0.660156 6.92318 0.253906 4.51954-0.355469 2.08204-1.16797L2.08204-21.4297C3.8086-20.2448 5.72982-19.2884 7.84571-18.5605 9.96159-17.8327 11.7135-17.4688 13.1016-17.4688 17.0287-17.4688 19.9655-18.679 21.9121-21.0996 23.8587-23.5202 24.832-27.2695 24.832-32.3477ZM295.719-74.0391C298.258-74.0391 300.594-73.9375 302.727-73.7344 304.859-73.5312 306.798-73.2773 308.541-72.9727 310.284-72.668 312.73-72.0924 315.879-71.2461L315.879-52.7109C309.751-56.0625 303.725-57.7383 297.801-57.7383 295.363-57.7383 293.4-57.2812 291.91-56.3672 290.421-55.4531 289.676-54.2005 289.676-52.6094 289.676-51.0859 290.277-49.8249 291.479-48.8262 292.68-47.8275 295.194-46.5326 299.02-44.9414 306.569-41.8945 311.909-38.5599 315.041-34.9375 318.173-31.3151 319.738-27.0156 319.738-22.0391 319.738-17.1979 318.443-12.9831 315.854-9.39453 313.264-5.80599 309.633-3.13151 304.961-1.37109 300.289 0.389323 294.669 1.26953 288.102 1.26953 280.484 1.26953 273.51-0.016927 267.18-2.58984L267.18-22.5469C270.227-20.3125 273.595-18.5098 277.285-17.1387 280.975-15.7676 284.411-15.082 287.594-15.082 289.997-15.082 291.859-15.5137 293.18-16.377 294.5-17.2402 295.16-18.5013 295.16-20.1602 295.16-21.3451 294.83-22.3861 294.17-23.2832 293.51-24.1803 292.511-25.0182 291.174-25.7969 289.837-26.5755 287.357-27.6419 283.734-28.9961 272.021-33.4987 266.164-40.7773 266.164-50.832 266.164-57.8737 268.839-63.502 274.188-67.7168 279.536-71.9316 286.714-74.0391 295.719-74.0391Z" stroke="#FFFFFF" stroke-linejoin="round" stroke-miterlimit="10" fill="#506E6E" fill-rule="evenodd" transform="matrix(1 0 0 1.00018 247.396 292.615)"/><text fill="#000000" fill-opacity="0" font-family="Arial,Arial_MSFontService,sans-serif" font-size="75.3086" x="2.08204" y="-8.14404">JEWIS</text><path d="M7.3667-74.9209 29.937-74.9209 29.937-47.1782 55.8511-47.1782 55.8511-74.9209 78.4214-74.9209 78.4214 0 55.8511 0 55.8511-27.9517 29.937-27.9517 29.937 0 7.3667 0Z" stroke="#FFFFFF" stroke-linejoin="round" stroke-miterlimit="10" fill="#506E6E" fill-rule="evenodd" transform="matrix(1 0 0 1.00018 569.836 292.615)"/><text fill="#000000" fill-opacity="0" font-family="Arial,Arial_MSFontService,sans-serif" font-size="74.9209" x="7.3667" y="-9.36511">H</text></g></svg>