<svg xmlns="http://www.w3.org/2000/svg" xmlns:xlink="http://www.w3.org/1999/xlink" width="353" height="191" viewBox="0 0 353 191">
  <defs>
    <filter id="Pfad_897" x="6.077" y="14.183" width="142.801" height="81.393" filterUnits="userSpaceOnUse">
      <feOffset dy="2" input="SourceAlpha"/>
      <feGaussianBlur stdDeviation="1.5" result="blur"/>
      <feFlood flood-opacity="0.161"/>
      <feComposite operator="in" in2="blur"/>
      <feComposite in="SourceGraphic"/>
    </filter>
    <filter id="Pfad_897-2" x="142.378" y="15.683" width="139.801" height="78.393" filterUnits="userSpaceOnUse">
      <feOffset dx="1" dy="2" input="SourceAlpha"/>
      <feGaussianBlur stdDeviation="1" result="blur-2"/>
      <feFlood flood-opacity="0.161"/>
      <feComposite operator="in" in2="blur-2"/>
      <feComposite in="SourceGraphic"/>
    </filter>
    <filter id="Differenzmenge_20" x="275.182" y="15.683" width="80.82" height="78.392" filterUnits="userSpaceOnUse">
      <feOffset dy="2" input="SourceAlpha"/>
      <feGaussianBlur stdDeviation="1" result="blur-3"/>
      <feFlood flood-opacity="0.161"/>
      <feComposite operator="in" in2="blur-3"/>
      <feComposite in="SourceGraphic"/>
    </filter>
    <filter id="Pfad_897-3" x="71.182" y="102" width="139.801" height="78.393" filterUnits="userSpaceOnUse">
      <feOffset dy="2" input="SourceAlpha"/>
      <feGaussianBlur stdDeviation="1" result="blur-4"/>
      <feFlood flood-opacity="0.161"/>
      <feComposite operator="in" in2="blur-4"/>
      <feComposite in="SourceGraphic"/>
    </filter>
    <filter id="Pfad_897-4" x="203.482" y="100.5" width="142.801" height="81.393" filterUnits="userSpaceOnUse">
      <feOffset dy="2" input="SourceAlpha"/>
      <feGaussianBlur stdDeviation="1.5" result="blur-5"/>
      <feFlood flood-opacity="0.161"/>
      <feComposite operator="in" in2="blur-5"/>
      <feComposite in="SourceGraphic"/>
    </filter>
    <filter id="Differenzmenge_21" x="-3.5" y="100.502" width="82.756" height="81.39" filterUnits="userSpaceOnUse">
      <feOffset dx="1" dy="2" input="SourceAlpha"/>
      <feGaussianBlur stdDeviation="1.5" result="blur-6"/>
      <feFlood flood-opacity="0.161"/>
      <feComposite operator="in" in2="blur-6"/>
      <feComposite in="SourceGraphic"/>
    </filter>
    <clipPath id="clip-Button_Zeitstrahl">
      <rect width="353" height="191"/>
    </clipPath>
  </defs>
  <g id="Button_Zeitstrahl" clip-path="url(#clip-Button_Zeitstrahl)">
    <rect width="353" height="191" fill="#fff"/>
    <rect id="Rechteck_2772" data-name="Rechteck 2772" width="351.988" height="192" transform="translate(1.012)" fill="#fff"/>
    <g id="Gruppe_2374" data-name="Gruppe 2374" transform="translate(-1128 -1084.013)">
      <path id="Differenzmenge_16" data-name="Differenzmenge 16" d="M17514.7-1421h353v192h-353Z" transform="translate(-16386.703 2505.013)" fill="#deddd7" opacity="0.995"/>
      <g id="Gruppe_2358" data-name="Gruppe 2358" transform="translate(1138.577 1100.696)">
        <g id="Gruppe_2347" data-name="Gruppe 2347" transform="translate(0 0)">
          <g transform="matrix(1, 0, 0, 1, -10.58, -16.68)" filter="url(#Pfad_897)">
            <path id="Pfad_897-5" data-name="Pfad 897" d="M0,0,17.755,36.2,0,72.393H116.045L133.8,36.2,116.045,0Z" transform="translate(10.58 16.68)" fill="#b1d8c2"/>
          </g>
        </g>
      </g>
      <g id="Gruppe_2359" data-name="Gruppe 2359" transform="translate(1272.378 1100.696)">
        <g id="Gruppe_2347-2" data-name="Gruppe 2347" transform="translate(0 0)">
          <g transform="matrix(1, 0, 0, 1, -144.38, -16.68)" filter="url(#Pfad_897-2)">
            <path id="Pfad_897-6" data-name="Pfad 897" d="M0,0,17.755,36.2,0,72.393H116.045L133.8,36.2,116.045,0Z" transform="translate(144.38 16.68)" fill="#fff"/>
          </g>
        </g>
      </g>
      <g transform="matrix(1, 0, 0, 1, 1128, 1084.01)" filter="url(#Differenzmenge_20)">
        <path id="Differenzmenge_20-2" data-name="Differenzmenge 20" d="M17520.822-1331.912H17446l17.756-36.2L17446-1404.3h74.82v72.39h0v0Z" transform="translate(-17167.82 1420.99)" fill="#d7bf81"/>
      </g>
      <g id="Gruppe_2360" data-name="Gruppe 2360" transform="translate(1202.182 1187.013)">
        <g id="Gruppe_2347-3" data-name="Gruppe 2347" transform="translate(0 0)">
          <g transform="matrix(1, 0, 0, 1, -74.18, -103)" filter="url(#Pfad_897-3)">
            <path id="Pfad_897-7" data-name="Pfad 897" d="M0,0,17.755,36.2,0,72.393H116.045L133.8,36.2,116.045,0Z" transform="translate(74.18 103)" fill="#d9cab7"/>
          </g>
        </g>
      </g>
      <g id="Gruppe_2362" data-name="Gruppe 2362" transform="translate(1335.982 1187.013)">
        <g id="Gruppe_2347-4" data-name="Gruppe 2347" transform="translate(0 0)">
          <g transform="matrix(1, 0, 0, 1, -207.98, -103)" filter="url(#Pfad_897-4)">
            <path id="Pfad_897-8" data-name="Pfad 897" d="M0,0,17.755,36.2,0,72.393H116.045L133.8,36.2,116.045,0Z" transform="translate(207.98 103)" fill="#b1d8c2"/>
          </g>
        </g>
      </g>
      <g transform="matrix(1, 0, 0, 1, 1128, 1084.01)" filter="url(#Differenzmenge_21)">
        <path id="Differenzmenge_21-2" data-name="Differenzmenge 21" d="M17486.426-1328.595v-72.39h56l17.756,36.195-17.756,36.195h-56Z" transform="translate(-17486.43 1503.99)" fill="#fff"/>
      </g>
      <text id="_1918_1933_Neue_Sachlichkeit" data-name=" 1918 – 1933
Neue Sachlichkeit" transform="translate(1214.627 1196)" fill="#9a8871" font-size="13" font-family="Roboto-Bold, Roboto" font-weight="700"><tspan x="13.575" y="14" xml:space="preserve"> 1918 – 1933</tspan><tspan font-size="15" font-family="Roboto-Regular, Roboto" font-weight="400"><tspan x="35.205" y="37">Neue </tspan><tspan x="11.463" y="55">Sachlichkeit</tspan></tspan></text>
      <text id="_1945_1967_Nachkriegs-literatur" data-name="1945 – 1967
Nachkriegs-literatur" transform="translate(1346.58 1196)" fill="#5b9a77" font-size="13" font-family="Roboto-Bold, Roboto" font-weight="700"><tspan x="22.042" y="14">1945 – 1967</tspan><tspan font-size="15" font-family="Roboto-Regular, Roboto" font-weight="400"><tspan x="19.369" y="37">Nachkriegs-</tspan><tspan x="33.139" y="55">literatur</tspan></tspan></text>
      <path id="Differenzmenge_22" data-name="Differenzmenge 22" d="M17543.979-1377.206a3.491,3.491,0,0,1-2.387-.771,2.208,2.208,0,0,1-.828-1.792l.018-.044h1.379a1.326,1.326,0,0,0,.568,1.123,2.2,2.2,0,0,0,1.25.357,2.056,2.056,0,0,0,1.207-.313.961.961,0,0,0,.436-.815.988.988,0,0,0-.361-.784,3.406,3.406,0,0,0-1.373-.537,5.754,5.754,0,0,1-2.172-.85,1.738,1.738,0,0,1-.73-1.471,2.079,2.079,0,0,1,.824-1.647,3.244,3.244,0,0,1,2.135-.683,3.232,3.232,0,0,1,2.2.713,2.094,2.094,0,0,1,.781,1.726l-.014.044h-1.379a1.246,1.246,0,0,0-.436-.934,1.585,1.585,0,0,0-1.154-.414,1.656,1.656,0,0,0-1.141.339,1.053,1.053,0,0,0-.375.81.91.91,0,0,0,.332.74,3.4,3.4,0,0,0,1.338.484,5.711,5.711,0,0,1,2.232.876,1.761,1.761,0,0,1,.736,1.48,2.067,2.067,0,0,1-.855,1.709A3.586,3.586,0,0,1,17543.979-1377.206Zm-8.771,0a2.565,2.565,0,0,1-2.021-.828,3.855,3.855,0,0,1-.723-2.576v-4.677h1.439v4.69a2.9,2.9,0,0,0,.375,1.744,1.383,1.383,0,0,0,1.162.476,2.385,2.385,0,0,0,1.273-.313,1.972,1.972,0,0,0,.758-.881v-5.716h1.439v7.927h-1.295l-.092-1.171a2.726,2.726,0,0,1-.961.982A2.639,2.639,0,0,1,17535.207-1377.206Zm-20.707,0a3.491,3.491,0,0,1-2.387-.771,2.188,2.188,0,0,1-.828-1.792l.014-.044h1.379a1.33,1.33,0,0,0,.572,1.123,2.2,2.2,0,0,0,1.25.357,2.056,2.056,0,0,0,1.207-.313.961.961,0,0,0,.436-.815.979.979,0,0,0-.365-.784,3.38,3.38,0,0,0-1.369-.537,5.812,5.812,0,0,1-2.176-.85,1.745,1.745,0,0,1-.727-1.471,2.08,2.08,0,0,1,.818-1.647,3.275,3.275,0,0,1,2.141-.683,3.246,3.246,0,0,1,2.2.713,2.084,2.084,0,0,1,.779,1.726l-.012.044h-1.379a1.246,1.246,0,0,0-.436-.934,1.585,1.585,0,0,0-1.154-.414,1.656,1.656,0,0,0-1.141.339,1.052,1.052,0,0,0-.375.81.921.921,0,0,0,.326.74,3.43,3.43,0,0,0,1.344.484,5.81,5.81,0,0,1,2.232.876,1.758,1.758,0,0,1,.73,1.48,2.052,2.052,0,0,1-.854,1.709A3.582,3.582,0,0,1,17514.5-1377.206Zm-16.51,0a2.6,2.6,0,0,1-1.885-.634c-.033-.032-.066-.068-.105-.112v-3.085a2.473,2.473,0,0,1,.379-.327,4.309,4.309,0,0,1,2.492-.639h1.568v-.784a1.436,1.436,0,0,0-.428-1.105,1.67,1.67,0,0,0-1.2-.405,1.738,1.738,0,0,0-1.133.357,1.066,1.066,0,0,0-.436.85H17496v-.8a2.452,2.452,0,0,1,.67-.83,3.38,3.38,0,0,1,2.223-.718,3.28,3.28,0,0,1,2.168.687,2.429,2.429,0,0,1,.818,1.973v3.814a7.231,7.231,0,0,0,.049.823,3.643,3.643,0,0,0,.158.775h-1.488c-.047-.236-.082-.443-.109-.634a4.137,4.137,0,0,1-.049-.551,3.484,3.484,0,0,1-1.053.956A2.71,2.71,0,0,1,17497.99-1377.206Zm.828-3.822a2.062,2.062,0,0,0-1.391.44,1.306,1.306,0,0,0-.529,1.031,1.113,1.113,0,0,0,.33.837,1.42,1.42,0,0,0,.979.308,2.584,2.584,0,0,0,1.412-.405,1.948,1.948,0,0,0,.82-.92v-1.29Zm26.793,3.669h-1.449v-4.752a2.6,2.6,0,0,0-.414-1.629,1.435,1.435,0,0,0-1.189-.52,1.971,1.971,0,0,0-1.082.273,1.727,1.727,0,0,0-.652.762v5.866h-1.445v-7.927h1.291l.1,1.044a2.661,2.661,0,0,1,.986-.876,2.974,2.974,0,0,1,1.387-.313,2.457,2.457,0,0,1,1.357.366,2.247,2.247,0,0,1,.854,1.1,2.971,2.971,0,0,1,.986-1.07,2.585,2.585,0,0,1,1.436-.4,2.366,2.366,0,0,1,1.916.832,3.835,3.835,0,0,1,.7,2.5v4.737h-1.439v-4.752a2.647,2.647,0,0,0-.4-1.66,1.475,1.475,0,0,0-1.2-.489,1.526,1.526,0,0,0-1.193.515,2.191,2.191,0,0,0-.541,1.295v5.091Zm-16.295,0h-1.443v-7.927h1.443v7.926Zm-3.777,0h-1.445v-11.428h1.445v11.427Zm3.777-9.952h-1.443v-1.475h1.443v1.474Zm26.867-12.916a2.925,2.925,0,0,1-2.293-.947,4.025,4.025,0,0,1-.842-2.783V-1406a4.039,4.039,0,0,1,.842-2.783,2.9,2.9,0,0,1,2.281-.956,2.9,2.9,0,0,1,2.279.956,4.1,4.1,0,0,1,.846,2.783v2.039a4.106,4.106,0,0,1-.836,2.783A2.874,2.874,0,0,1,17536.184-1400.229Zm-.012-8.076a1.059,1.059,0,0,0-.951.506,3.093,3.093,0,0,0-.326,1.612v2.4a3.127,3.127,0,0,0,.326,1.625,1.08,1.08,0,0,0,.963.511,1.055,1.055,0,0,0,.947-.511,3.173,3.173,0,0,0,.322-1.625v-2.4a3.054,3.054,0,0,0-.33-1.607A1.065,1.065,0,0,0,17536.172-1408.305Zm-7.447,8.076a2.929,2.929,0,0,1-2.291-.947,4.09,4.09,0,0,1-.846-2.783V-1406a4.117,4.117,0,0,1,.842-2.783,2.9,2.9,0,0,1,2.281-.956,2.915,2.915,0,0,1,2.281.956,4.086,4.086,0,0,1,.85,2.783v2.039a4.094,4.094,0,0,1-.842,2.783A2.9,2.9,0,0,1,17528.725-1400.229Zm-.014-8.076a1.063,1.063,0,0,0-.951.506,3.109,3.109,0,0,0-.326,1.612v2.4a3.142,3.142,0,0,0,.326,1.625,1.085,1.085,0,0,0,.965.511,1.061,1.061,0,0,0,.947-.511,3.159,3.159,0,0,0,.32-1.625v-2.4a2.969,2.969,0,0,0-.33-1.607A1.055,1.055,0,0,0,17528.711-1408.305Zm-7.883,8.076a5.237,5.237,0,0,1-.994-.1,4.787,4.787,0,0,1-.947-.286l.215-1.343a4.43,4.43,0,0,0,.814.233,5.2,5.2,0,0,0,.912.075,1.488,1.488,0,0,0,1.189-.546,2.331,2.331,0,0,0,.463-1.55v-.458a2.106,2.106,0,0,1-.74.6,2.2,2.2,0,0,1-.926.2,2.576,2.576,0,0,1-2.029-.841,3.373,3.373,0,0,1-.74-2.277,3.192,3.192,0,0,1,.881-2.3,2.958,2.958,0,0,1,2.229-.92,2.966,2.966,0,0,1,2.295.973,3.959,3.959,0,0,1,.885,2.739v2.184a3.541,3.541,0,0,1-.99,2.647A3.462,3.462,0,0,1,17520.828-1400.229Zm.33-8.076a1.063,1.063,0,0,0-.912.52,2.233,2.233,0,0,0-.352,1.268,2.246,2.246,0,0,0,.322,1.273,1.02,1.02,0,0,0,.91.484,1.757,1.757,0,0,0,.8-.172,1.536,1.536,0,0,0,.555-.453v-.854a2.757,2.757,0,0,0-.357-1.541A1.1,1.1,0,0,0,17521.158-1408.305Zm-6.27,7.944h-1.855v-7.605h-1.879v-1.308l3.734-.33v9.243Zm-9.184-3.814h-6.877v-1.449h6.877v1.448Z" transform="translate(-16368 2618)" fill="#939393" stroke="rgba(0,0,0,0)" stroke-miterlimit="10" stroke-width="1"/>
      <text id="_1720_1800_Aufklärung" data-name="1720 – 1800
Aufklärung" transform="translate(1142.182 1117)" fill="#5b9a77" font-size="13" font-family="Roboto-Bold, Roboto" font-weight="700"><tspan x="25.042" y="14">1720 – 1800</tspan><tspan font-size="15" font-family="Roboto-Regular, Roboto" font-weight="400"><tspan x="25.673" y="37">Aufklärung</tspan></tspan></text>
      <text id="_1795_1830_Romantik" data-name="1795 – 1830
Romantik" transform="translate(1270.527 1117)" fill="#939393" font-size="13" font-family="Roboto-Bold, Roboto" font-weight="700"><tspan x="35.394" y="14">1795 – 1830</tspan><tspan font-size="15" font-family="Roboto-Regular, Roboto" font-weight="400"><tspan x="40.449" y="37">Romantik</tspan></tspan></text>
      <path id="Differenzmenge_23" data-name="Differenzmenge 23" d="M17478.84-1343.848a3.375,3.375,0,0,1-2.635-1.1,4.193,4.193,0,0,1-.975-2.864v-.322a4.087,4.087,0,0,1,1.006-2.816,3.11,3.11,0,0,1,2.383-1.121,3.02,3.02,0,0,1,2.428.967,3.886,3.886,0,0,1,.816,2.577v.9h-5.137l-.021.035a3.121,3.121,0,0,0,.578,1.88,1.841,1.841,0,0,0,1.557.737,3.625,3.625,0,0,0,1.289-.212,2.966,2.966,0,0,0,.953-.574l.564.94a3.328,3.328,0,0,1-1.121.693A4.558,4.558,0,0,1,17478.84-1343.848Zm-.221-7.088a1.563,1.563,0,0,0-1.234.609,2.918,2.918,0,0,0-.631,1.536l.012.035h3.654v-.19a2.252,2.252,0,0,0-.449-1.421A1.636,1.636,0,0,0,17478.619-1350.935Zm-8.83,7.088a2.73,2.73,0,0,1-2.273-1.05,4.384,4.384,0,0,1-.82-2.763v-.154a5.326,5.326,0,0,1,.816-3.085,2.647,2.647,0,0,1,2.291-1.17,2.812,2.812,0,0,1,1.234.256,2.47,2.47,0,0,1,.918.746v-4.36h1.443V-1344h-1.178l-.168-.971a2.654,2.654,0,0,1-.953.843A2.886,2.886,0,0,1,17469.789-1343.848Zm.379-7.052a1.658,1.658,0,0,0-1.535.856,4.493,4.493,0,0,0-.49,2.229v.154a3.377,3.377,0,0,0,.49,1.92,1.7,1.7,0,0,0,1.521.724,1.882,1.882,0,0,0,1.082-.3,2.175,2.175,0,0,0,.719-.816v-3.7a2.212,2.212,0,0,0-.719-.777A1.905,1.905,0,0,0,17470.168-1350.9Zm-7.785,7.052a3.375,3.375,0,0,1-2.635-1.1,4.177,4.177,0,0,1-.975-2.864v-.322a4.087,4.087,0,0,1,1.006-2.816,3.11,3.11,0,0,1,2.383-1.121,3,3,0,0,1,2.424.967,3.874,3.874,0,0,1,.82,2.577v.9h-5.141l-.023.035a3.166,3.166,0,0,0,.584,1.88,1.846,1.846,0,0,0,1.557.737,3.58,3.58,0,0,0,1.285-.212,2.942,2.942,0,0,0,.957-.574l.561.94a3.264,3.264,0,0,1-1.115.693A4.612,4.612,0,0,1,17462.383-1343.848Zm-.221-7.088a1.563,1.563,0,0,0-1.234.609,2.918,2.918,0,0,0-.631,1.536l.012.035h3.654v-.19a2.252,2.252,0,0,0-.449-1.421A1.636,1.636,0,0,0,17462.162-1350.935Zm26.7,6.933h-.238v-7.922h.238V-1344Zm-3.937,0h-1.443v-7.922h1.289l.141,1.156a2.81,2.81,0,0,1,.83-.958,1.961,1.961,0,0,1,1.139-.344,2.233,2.233,0,0,1,.309.022,1.671,1.671,0,0,1,.244.057l-.2,1.342-.742-.044a1.647,1.647,0,0,0-.961.269,1.759,1.759,0,0,0-.605.763V-1344Zm-28.051,0h-1.441v-7.922h1.441V-1344Zm-6.937,0H17446v-10.662h3.477a4.239,4.239,0,0,1,2.613.724,2.557,2.557,0,0,1,.945,2.162,1.976,1.976,0,0,1-.455,1.271,2.638,2.638,0,0,1-1.191.83,2.471,2.471,0,0,1,1.518.944,2.8,2.8,0,0,1,.557,1.721,2.727,2.727,0,0,1-.949,2.238A3.989,3.989,0,0,1,17449.938-1344Zm-2.5-5h0v3.875h2.5a2.247,2.247,0,0,0,1.531-.485,1.76,1.76,0,0,0,.553-1.381,2.214,2.214,0,0,0-.459-1.474,1.755,1.755,0,0,0-1.408-.534h-2.715Zm0-4.528h0v3.4h2.34a1.9,1.9,0,0,0,1.311-.441,1.567,1.567,0,0,0,.5-1.236,1.555,1.555,0,0,0-.543-1.293,2.542,2.542,0,0,0-1.572-.428h-2.039Zm9.436-.423h-1.441v-1.474h1.441v1.473Zm28.943-12.913a3.507,3.507,0,0,1-2.186-.693,2.213,2.213,0,0,1-.873-1.915l.008-.031,1.783-.088a1.278,1.278,0,0,0,.354.958,1.222,1.222,0,0,0,.914.349,1.069,1.069,0,0,0,.953-.459,2.141,2.141,0,0,0,.309-1.2,2.246,2.246,0,0,0-.332-1.284,1.114,1.114,0,0,0-.975-.481,1.4,1.4,0,0,0-.816.2,1.082,1.082,0,0,0-.406.534l-1.629-.11.535-5.146h5.154v1.483h-3.637l-.256,2.132a2.342,2.342,0,0,1,.613-.313,2.7,2.7,0,0,1,.8-.128h.063a2.564,2.564,0,0,1,2,.8,2.918,2.918,0,0,1,.662,1.447v1.6a3.009,3.009,0,0,1-.732,1.466A2.986,2.986,0,0,1,17485.818-1366.867Zm-14.939,0a3.6,3.6,0,0,1-2.285-.688,2.371,2.371,0,0,1-.875-1.973,2.159,2.159,0,0,1,.424-1.32,2.714,2.714,0,0,1,1.166-.9,2.381,2.381,0,0,1-1.012-.825,2.115,2.115,0,0,1-.361-1.222,2.357,2.357,0,0,1,.807-1.906,3.2,3.2,0,0,1,2.123-.68,3.2,3.2,0,0,1,2.127.68,2.345,2.345,0,0,1,.813,1.906,2.115,2.115,0,0,1-.361,1.222,2.428,2.428,0,0,1-1.006.834,2.734,2.734,0,0,1,1.16.887,2.175,2.175,0,0,1,.428,1.32,2.377,2.377,0,0,1-.873,1.973A3.568,3.568,0,0,1,17470.879-1366.867Zm-.014-4.157a1.218,1.218,0,0,0-.936.375,1.4,1.4,0,0,0-.348,1,1.346,1.346,0,0,0,.354,1,1.269,1.269,0,0,0,.943.366,1.23,1.23,0,0,0,.936-.371,1.358,1.358,0,0,0,.357-.993,1.368,1.368,0,0,0-.365-1A1.237,1.237,0,0,0,17470.865-1371.024Zm0-3.923a.98.98,0,0,0-.789.335,1.345,1.345,0,0,0-.287.9,1.364,1.364,0,0,0,.291.914.981.981,0,0,0,.8.34.977.977,0,0,0,.795-.34,1.375,1.375,0,0,0,.287-.914,1.317,1.317,0,0,0-.3-.9A1,1,0,0,0,17470.865-1374.948Zm8.553,7.948h-1.854v-7.6h-1.879v-1.311l3.732-.327v9.24Zm-14.916,0h-1.854v-7.6h-1.881v-1.311l3.734-.327v9.24Z" transform="translate(-16007.863 2498)" fill="#b28b25" stroke="rgba(0,0,0,0)" stroke-miterlimit="10" stroke-width="1"/>
    </g>
  </g>
</svg>
