<svg xmlns="http://www.w3.org/2000/svg" xmlns:xlink="http://www.w3.org/1999/xlink" width="353" height="191" viewBox="0 0 353 191">
  <defs>
    <filter id="Differenzmenge_8" x="219.994" y="-1" width="126.002" height="103.001" filterUnits="userSpaceOnUse">
      <feOffset dy="2" input="SourceAlpha"/>
      <feGaussianBlur stdDeviation="1" result="blur"/>
      <feFlood flood-opacity="0.161"/>
      <feComposite operator="in" in2="blur"/>
      <feComposite in="SourceGraphic"/>
    </filter>
    <filter id="Ellipse_21" x="55" y="75.001" width="84" height="85" filterUnits="userSpaceOnUse">
      <feOffset dx="2" dy="2" input="SourceAlpha"/>
      <feGaussianBlur stdDeviation="1" result="blur-2"/>
      <feFlood flood-opacity="0.161"/>
      <feComposite operator="in" in2="blur-2"/>
      <feComposite in="SourceGraphic"/>
    </filter>
    <filter id="Differenzmenge_6" x="-2.506" y="33.501" width="85.002" height="93.002" filterUnits="userSpaceOnUse">
      <feOffset dx="2" input="SourceAlpha"/>
      <feGaussianBlur stdDeviation="1.5" result="blur-3"/>
      <feFlood flood-opacity="0.161"/>
      <feComposite operator="in" in2="blur-3"/>
      <feComposite in="SourceGraphic"/>
    </filter>
    <filter id="Differenzmenge_10" x="122.994" y="131" width="84.004" height="64.002" filterUnits="userSpaceOnUse">
      <feOffset dx="2" input="SourceAlpha"/>
      <feGaussianBlur stdDeviation="1" result="blur-4"/>
      <feFlood flood-opacity="0.161"/>
      <feComposite operator="in" in2="blur-4"/>
      <feComposite in="SourceGraphic"/>
    </filter>
    <filter id="Differenzmenge_7" x="93.994" y="-1" width="101.002" height="82.002" filterUnits="userSpaceOnUse">
      <feOffset dy="2" input="SourceAlpha"/>
      <feGaussianBlur stdDeviation="1" result="blur-5"/>
      <feFlood flood-opacity="0.161"/>
      <feComposite operator="in" in2="blur-5"/>
      <feComposite in="SourceGraphic"/>
    </filter>
    <filter id="Pfad_859" x="142.785" y="26.497" width="145.04" height="145.04" filterUnits="userSpaceOnUse">
      <feOffset dx="3" dy="3" input="SourceAlpha"/>
      <feGaussianBlur stdDeviation="1.5" result="blur-6"/>
      <feFlood flood-opacity="0.161"/>
      <feComposite operator="in" in2="blur-6"/>
      <feComposite in="SourceGraphic"/>
    </filter>
    <filter id="Differenzmenge_9" x="224.494" y="108.5" width="96" height="88.002" filterUnits="userSpaceOnUse">
      <feOffset dx="2" input="SourceAlpha"/>
      <feGaussianBlur stdDeviation="1.5" result="blur-7"/>
      <feFlood flood-opacity="0.161"/>
      <feComposite operator="in" in2="blur-7"/>
      <feComposite in="SourceGraphic"/>
    </filter>
    <clipPath id="clip-Button_Themen">
      <rect width="353" height="191"/>
    </clipPath>
  </defs>
  <g id="Button_Themen" clip-path="url(#clip-Button_Themen)">
    <rect width="353" height="191" fill="#fff"/>
    <g id="Gruppe_2372" data-name="Gruppe 2372" transform="translate(-282.004 -1083.498)">
      <rect id="Rechteck_2781" data-name="Rechteck 2781" width="353" height="192" transform="translate(282.004 1083.499)" fill="#deddd7" opacity="0.995"/>
      <g transform="matrix(1, 0, 0, 1, 282, 1083.5)" filter="url(#Differenzmenge_8)">
        <path id="Differenzmenge_8-2" data-name="Differenzmenge 8" d="M17767-1260a60.053,60.053,0,0,1-23.355-4.676,60.133,60.133,0,0,1-10.193-5.486,60.283,60.283,0,0,1-8.881-7.266,60.067,60.067,0,0,1-7.326-8.806,59.254,59.254,0,0,1-5.531-10.107A58.7,58.7,0,0,1,17707-1319.5a58.817,58.817,0,0,1,3.564-20.243,59.131,59.131,0,0,1,9.854-17.257h93.168a59.119,59.119,0,0,1,9.854,17.257A58.872,58.872,0,0,1,17827-1319.5a58.7,58.7,0,0,1-4.717,23.161,59.24,59.24,0,0,1-5.531,10.107,60.041,60.041,0,0,1-7.326,8.806,60.341,60.341,0,0,1-8.879,7.266,60.145,60.145,0,0,1-10.191,5.486A60.05,60.05,0,0,1,17767-1260Z" transform="translate(-17484 1357)" fill="#cba237" opacity="0.578"/>
      </g>
      <g transform="matrix(1, 0, 0, 1, 282, 1083.5)" filter="url(#Ellipse_21)">
        <ellipse id="Ellipse_21-2" data-name="Ellipse 21" cx="39" cy="39.5" rx="39" ry="39.5" transform="translate(56 76)" fill="#fff" opacity="0.999"/>
      </g>
      <g transform="matrix(1, 0, 0, 1, 282, 1083.5)" filter="url(#Differenzmenge_6)">
        <path id="Differenzmenge_6-2" data-name="Differenzmenge 6" d="M17541.871-1270a42.433,42.433,0,0,1-10.068-1.207,42.032,42.032,0,0,1-9.2-3.431,42.221,42.221,0,0,1-8.029-5.366,42.378,42.378,0,0,1-6.58-7.015v-49.964a42.193,42.193,0,0,1,6.58-7.015,42.24,42.24,0,0,1,8.029-5.366,42.008,42.008,0,0,1,9.2-3.431,42.427,42.427,0,0,1,10.068-1.207,41.977,41.977,0,0,1,16.4,3.3,41.988,41.988,0,0,1,13.389,9,41.828,41.828,0,0,1,9.029,13.351A41.614,41.614,0,0,1,17584-1312a41.606,41.606,0,0,1-3.312,16.347,41.824,41.824,0,0,1-9.029,13.35,41.993,41.993,0,0,1-13.389,9A41.977,41.977,0,0,1,17541.871-1270Z" transform="translate(-17508 1392)" fill="#b1d8c2" opacity="0.998"/>
      </g>
      <g transform="matrix(1, 0, 0, 1, 282, 1083.5)" filter="url(#Differenzmenge_10)">
        <path id="Differenzmenge_10-2" data-name="Differenzmenge 10" d="M17675.068-1363h-68.137a38.737,38.737,0,0,1-3.645-9.021A39.026,39.026,0,0,1,17602-1382a38.741,38.741,0,0,1,3.066-15.182,38.868,38.868,0,0,1,8.357-12.4,38.848,38.848,0,0,1,12.4-8.359A38.758,38.758,0,0,1,17641-1421a38.755,38.755,0,0,1,15.18,3.065,38.851,38.851,0,0,1,12.4,8.359,38.862,38.862,0,0,1,8.357,12.4A38.708,38.708,0,0,1,17680-1382a39.122,39.122,0,0,1-1.289,9.977,38.78,38.78,0,0,1-3.645,9.02Z" transform="translate(-17478 1555)" fill="#d9cab7"/>
      </g>
      <g transform="matrix(1, 0, 0, 1, 282, 1083.5)" filter="url(#Differenzmenge_7)">
        <path id="Differenzmenge_7-2" data-name="Differenzmenge 7" d="M17628.5-1281a47.211,47.211,0,0,1-18.488-3.733,47.361,47.361,0,0,1-15.1-10.18,47.331,47.331,0,0,1-10.18-15.1A47.176,47.176,0,0,1,17581-1328.5a47.371,47.371,0,0,1,2.514-15.284A47.274,47.274,0,0,1,17590.5-1357h76a47.294,47.294,0,0,1,6.984,13.218A47.373,47.373,0,0,1,17676-1328.5a47.186,47.186,0,0,1-3.732,18.489,47.328,47.328,0,0,1-10.18,15.1,47.329,47.329,0,0,1-15.1,10.18A47.2,47.2,0,0,1,17628.5-1281Z" transform="translate(-17484 1357)" fill="#fff"/>
      </g>
      <g transform="matrix(1, 0, 0, 1, 282, 1083.5)" filter="url(#Pfad_859)">
        <path id="Pfad_859-2" data-name="Pfad 859" d="M68.02,0A68.02,68.02,0,1,1,0,68.02,68.02,68.02,0,0,1,68.02,0Z" transform="translate(144.29 28)" fill="#b1d8c2"/>
      </g>
      <g transform="matrix(1, 0, 0, 1, 282, 1083.5)" filter="url(#Differenzmenge_9)">
        <path id="Differenzmenge_9-2" data-name="Differenzmenge 9" d="M17760.643-1342v0h-50.289a43.851,43.851,0,0,1-13.342-15.208,43.224,43.224,0,0,1-3.707-9.669A43.579,43.579,0,0,1,17692-1377.5a43.185,43.185,0,0,1,3.42-16.933,43.326,43.326,0,0,1,9.322-13.828,43.333,43.333,0,0,1,13.828-9.323A43.215,43.215,0,0,1,17735.5-1421a43.206,43.206,0,0,1,16.93,3.419,43.337,43.337,0,0,1,13.826,9.323,43.312,43.312,0,0,1,9.322,13.828,43.186,43.186,0,0,1,3.42,16.933,43.578,43.578,0,0,1-1.307,10.622,43.231,43.231,0,0,1-3.705,9.669,43.852,43.852,0,0,1-13.342,15.208Z" transform="translate(-17465 1534)" fill="#fff"/>
      </g>
      <g id="Gruppe_2322" data-name="Gruppe 2322" transform="translate(-442.566 -249.825)">
        <path id="Pfad_857" data-name="Pfad 857" d="M20.123,6.235h1.791v9.575a3.651,3.651,0,0,1-1.123,2.814,4.116,4.116,0,0,1-2.914,1.041A4.5,4.5,0,0,1,14.84,18.7a3.388,3.388,0,0,1-1.082-2.814l.018-.055H15.5a2.446,2.446,0,0,0,.623,1.832,2.422,2.422,0,0,0,1.759.6A2.12,2.12,0,0,0,19.5,17.6a2.5,2.5,0,0,0,.627-1.787ZM30.98,18.019a3.332,3.332,0,0,1-1.191,1.218,3.259,3.259,0,0,1-1.682.427,3.161,3.161,0,0,1-2.51-1.027,4.771,4.771,0,0,1-.9-3.2v-5.8h1.791v5.819a3.663,3.663,0,0,0,.464,2.164,1.724,1.724,0,0,0,1.446.591,2.946,2.946,0,0,0,1.578-.386,2.418,2.418,0,0,0,.941-1.1V9.635h1.791v9.838H31.1ZM31.844,8H29.853V6.18h1.991ZM27.57,8H25.579V6.18H27.57Zm7.338,6.738a6.566,6.566,0,0,1,1.014-3.828,3.267,3.267,0,0,1,2.841-1.455,3.523,3.523,0,0,1,1.532.318,3.14,3.14,0,0,1,1.141.927V5.289h1.791V19.474H41.764l-.209-1.209a3.189,3.189,0,0,1-1.182,1.046,3.556,3.556,0,0,1-1.628.355,3.376,3.376,0,0,1-2.819-1.3,5.423,5.423,0,0,1-1.018-3.433Zm1.791.191a4.176,4.176,0,0,0,.609,2.387,2.127,2.127,0,0,0,1.891.9,2.373,2.373,0,0,0,1.346-.364,2.716,2.716,0,0,0,.891-1.018V12.236a2.758,2.758,0,0,0-.9-.968,2.367,2.367,0,0,0-1.323-.359,2.047,2.047,0,0,0-1.9,1.064,5.491,5.491,0,0,0-.614,2.764Zm11.139,4.546H46.047V9.635h1.791Zm0-12.357H46.047V5.289h1.791Zm8.474,9.747a1.22,1.22,0,0,0-.45-.973,4.232,4.232,0,0,0-1.7-.664,7.167,7.167,0,0,1-2.7-1.059,2.146,2.146,0,0,1-.9-1.823A2.573,2.573,0,0,1,51.575,10.3a4.632,4.632,0,0,1,5.387.036,2.608,2.608,0,0,1,.968,2.146l-.018.055H56.2a1.565,1.565,0,0,0-.541-1.159,1.994,1.994,0,0,0-1.432-.514,2.065,2.065,0,0,0-1.418.418,1.311,1.311,0,0,0-.464,1.009,1.125,1.125,0,0,0,.409.918,4.243,4.243,0,0,0,1.664.6A7.168,7.168,0,0,1,57.194,14.9a2.19,2.19,0,0,1,.909,1.841,2.542,2.542,0,0,1-1.059,2.119,4.438,4.438,0,0,1-2.769.809,4.324,4.324,0,0,1-2.964-.955,2.724,2.724,0,0,1-1.027-2.228l.018-.055h1.709a1.657,1.657,0,0,0,.709,1.4,2.744,2.744,0,0,0,1.555.441,2.535,2.535,0,0,0,1.5-.386A1.191,1.191,0,0,0,56.312,16.864Zm8.02,1.4a2.416,2.416,0,0,0,1.568-.55,1.679,1.679,0,0,0,.677-1.35h1.609l.018.055a2.759,2.759,0,0,1-1.132,2.26,4.14,4.14,0,0,1-2.741.987,3.982,3.982,0,0,1-3.282-1.4,5.4,5.4,0,0,1-1.137-3.519v-.382a5.379,5.379,0,0,1,1.141-3.505,4.479,4.479,0,0,1,6.1-.386,3.167,3.167,0,0,1,1.059,2.5l-.018.055H66.578a2.079,2.079,0,0,0-.636-1.532,2.19,2.19,0,0,0-1.609-.632,2.158,2.158,0,0,0-2.014,1.014,4.776,4.776,0,0,0-.6,2.487v.382a4.833,4.833,0,0,0,.6,2.514A2.162,2.162,0,0,0,64.332,18.264Zm7.674-7.311a3.63,3.63,0,0,1,1.25-1.1,3.43,3.43,0,0,1,1.641-.4,3.178,3.178,0,0,1,2.45.946,4.16,4.16,0,0,1,.877,2.91v6.165H76.435V13.291a2.634,2.634,0,0,0-.523-1.8,1.99,1.99,0,0,0-1.559-.582,2.646,2.646,0,0,0-1.35.35,2.925,2.925,0,0,0-1,.95v7.265H70.215V5.289h1.791Zm12.875,8.711A4.15,4.15,0,0,1,81.613,18.3,5.151,5.151,0,0,1,80.4,14.746v-.4a5.045,5.045,0,0,1,1.25-3.5,3.851,3.851,0,0,1,2.96-1.4,3.727,3.727,0,0,1,3.01,1.2,4.782,4.782,0,0,1,1.018,3.2v1.118H82.254l-.027.045a3.889,3.889,0,0,0,.718,2.332,2.288,2.288,0,0,0,1.937.914,4.506,4.506,0,0,0,1.6-.259,3.668,3.668,0,0,0,1.187-.714l.7,1.164a4.161,4.161,0,0,1-1.391.864A5.636,5.636,0,0,1,84.882,19.665Zm-.273-8.8a1.94,1.94,0,0,0-1.537.759,3.6,3.6,0,0,0-.782,1.9l.018.045h4.537v-.236a2.746,2.746,0,0,0-.564-1.764A2.008,2.008,0,0,0,84.609,10.863ZM34.99,40.165H33.2L26.825,29.926l-.055.018v10.22H24.979V26.926H26.77l6.374,10.22.055-.018v-10.2H34.99Zm8.984,0q-.091-.446-.141-.787a5.773,5.773,0,0,1-.059-.687,4.177,4.177,0,0,1-1.3,1.187,3.337,3.337,0,0,1-1.732.477,3.216,3.216,0,0,1-2.341-.787,2.893,2.893,0,0,1-.8-2.169,2.541,2.541,0,0,1,1.141-2.2,5.329,5.329,0,0,1,3.1-.8h1.946v-.973a1.8,1.8,0,0,0-.527-1.368,2.071,2.071,0,0,0-1.491-.5,2.153,2.153,0,0,0-1.4.441,1.326,1.326,0,0,0-.541,1.059H38.1L38.081,33A2.381,2.381,0,0,1,39.1,31.036a4.164,4.164,0,0,1,2.76-.891,4.062,4.062,0,0,1,2.691.85,3.012,3.012,0,0,1,1.018,2.45v4.737a9.222,9.222,0,0,0,.055,1.018,5.237,5.237,0,0,0,.2.964ZM41,38.855a3.188,3.188,0,0,0,1.755-.5,2.377,2.377,0,0,0,1.018-1.146v-1.6H41.764a2.607,2.607,0,0,0-1.732.546,1.632,1.632,0,0,0-.65,1.282,1.349,1.349,0,0,0,.409,1.037A1.713,1.713,0,0,0,41,38.855Zm9.529-10.9v2.373h1.864v1.328H50.529v5.974a1.338,1.338,0,0,0,.286.973,1.036,1.036,0,0,0,.759.282,1.792,1.792,0,0,0,.341-.036,2.086,2.086,0,0,0,.332-.091l.236,1.228a1.581,1.581,0,0,1-.586.268,2.964,2.964,0,0,1-.777.1,2.32,2.32,0,0,1-1.737-.659,2.863,2.863,0,0,1-.646-2.069V31.654H47.174V30.326h1.564V27.953Zm6.01,12.212H54.748V30.326H56.54Zm0-12.357H54.748V25.98H56.54Zm2.337,7.347a5.416,5.416,0,0,1,1.182-3.6,4.381,4.381,0,0,1,6.442,0,5.4,5.4,0,0,1,1.187,3.6v.2a5.39,5.39,0,0,1-1.182,3.6,4.4,4.4,0,0,1-6.442,0,5.381,5.381,0,0,1-1.187-3.6Zm1.791.2a4.666,4.666,0,0,0,.659,2.582,2.381,2.381,0,0,0,3.905,0,4.642,4.642,0,0,0,.664-2.582v-.2a4.628,4.628,0,0,0-.668-2.573,2.19,2.19,0,0,0-1.959-1.027,2.16,2.16,0,0,0-1.941,1.027,4.676,4.676,0,0,0-.659,2.573Zm10.811-5.028.127,1.464a3.572,3.572,0,0,1,1.232-1.214,3.287,3.287,0,0,1,1.687-.432,3.211,3.211,0,0,1,2.464.932,4.091,4.091,0,0,1,.873,2.878v6.21H76.071V33.991a2.661,2.661,0,0,0-.514-1.846,2.058,2.058,0,0,0-1.568-.546,2.525,2.525,0,0,0-1.368.373,2.722,2.722,0,0,0-.95,1.018v7.174H69.879V30.326Z" transform="translate(963.932 1346.711)" fill="#b28b25"/>
        <path id="Pfad_854" data-name="Pfad 854" d="M28.3,19.192H26.632V13.756H20.654v5.436H18.989V6.883h1.665v5.563h5.977V6.883H28.3Zm4.531,0H31.163V10.045h1.665Zm0-11.489H31.163V6h1.665Zm4.05,2.342.118,1.2a3.107,3.107,0,0,1,1.137-1.01,3.417,3.417,0,0,1,1.6-.359A2.83,2.83,0,0,1,41.3,10.3a2.557,2.557,0,0,1,.985,1.268,3.393,3.393,0,0,1,1.141-1.234,3,3,0,0,1,1.657-.457,2.739,2.739,0,0,1,2.207.96,4.384,4.384,0,0,1,.812,2.887v5.47H46.44V13.706a3.041,3.041,0,0,0-.465-1.915,1.7,1.7,0,0,0-1.386-.562,1.765,1.765,0,0,0-1.382.592,2.576,2.576,0,0,0-.621,1.5v5.876H40.911V13.706a3,3,0,0,0-.478-1.881,1.658,1.658,0,0,0-1.374-.6,2.288,2.288,0,0,0-1.251.313,2.021,2.021,0,0,0-.752.879v6.772H35.39V10.045Zm15.133,0,.118,1.2a3.107,3.107,0,0,1,1.137-1.01,3.417,3.417,0,0,1,1.6-.359,2.83,2.83,0,0,1,1.568.423,2.557,2.557,0,0,1,.985,1.268,3.393,3.393,0,0,1,1.141-1.234,3,3,0,0,1,1.657-.457,2.739,2.739,0,0,1,2.207.96,4.384,4.384,0,0,1,.812,2.887v5.47H61.573V13.706a3.041,3.041,0,0,0-.465-1.915,1.7,1.7,0,0,0-1.386-.562,1.765,1.765,0,0,0-1.382.592,2.576,2.576,0,0,0-.621,1.5v5.876H56.044V13.706a3,3,0,0,0-.478-1.881,1.658,1.658,0,0,0-1.374-.6,2.288,2.288,0,0,0-1.251.313,2.021,2.021,0,0,0-.752.879v6.772H50.523V10.045Zm15.446,9.147H65.791V6h1.665Zm4.362,0H70.154V10.045h1.665Zm0-11.489H70.154V6h1.665ZM79.7,16.766a1.134,1.134,0,0,0-.418-.9,3.935,3.935,0,0,0-1.585-.617,6.664,6.664,0,0,1-2.507-.985,2,2,0,0,1-.841-1.7,2.392,2.392,0,0,1,.947-1.9A4.307,4.307,0,0,1,80.3,10.7a2.425,2.425,0,0,1,.9,2l-.017.051H79.6a1.455,1.455,0,0,0-.5-1.078,1.854,1.854,0,0,0-1.332-.478,1.92,1.92,0,0,0-1.319.389,1.219,1.219,0,0,0-.431.938,1.046,1.046,0,0,0,.38.854,3.945,3.945,0,0,0,1.547.558,6.664,6.664,0,0,1,2.579,1.01,2.036,2.036,0,0,1,.845,1.712,2.363,2.363,0,0,1-.985,1.97,4.126,4.126,0,0,1-2.574.752,4.02,4.02,0,0,1-2.756-.888,2.533,2.533,0,0,1-.955-2.071l.017-.051H75.7a1.54,1.54,0,0,0,.659,1.3,2.551,2.551,0,0,0,1.446.41,2.357,2.357,0,0,0,1.391-.359A1.108,1.108,0,0,0,79.7,16.766Zm7.457,1.3a2.246,2.246,0,0,0,1.458-.511,1.561,1.561,0,0,0,.63-1.255h1.5l.017.051a2.565,2.565,0,0,1-1.053,2.1,3.849,3.849,0,0,1-2.549.917,3.7,3.7,0,0,1-3.052-1.3A5.023,5.023,0,0,1,83.046,14.8v-.355a5,5,0,0,1,1.061-3.259,4.165,4.165,0,0,1,5.673-.359,2.945,2.945,0,0,1,.985,2.325l-.017.051h-1.5a1.933,1.933,0,0,0-.592-1.425,2.036,2.036,0,0,0-1.5-.588,2.007,2.007,0,0,0-1.873.943,4.441,4.441,0,0,0-.562,2.312V14.8a4.493,4.493,0,0,0,.558,2.338A2.01,2.01,0,0,0,87.155,18.068Zm7.135-6.8a3.375,3.375,0,0,1,1.162-1.027,3.189,3.189,0,0,1,1.526-.368,2.954,2.954,0,0,1,2.278.879,3.868,3.868,0,0,1,.816,2.705v5.732H98.408V13.444a2.449,2.449,0,0,0-.486-1.674,1.85,1.85,0,0,0-1.45-.541,2.46,2.46,0,0,0-1.255.325,2.719,2.719,0,0,0-.926.883v6.755H92.625V6h1.665Zm11.971,8.1a3.859,3.859,0,0,1-3.039-1.272,4.79,4.79,0,0,1-1.129-3.3v-.372a4.691,4.691,0,0,1,1.162-3.251,3.581,3.581,0,0,1,2.752-1.3,3.465,3.465,0,0,1,2.8,1.116,4.446,4.446,0,0,1,.947,2.976v1.04h-5.935l-.025.042a3.616,3.616,0,0,0,.668,2.168,2.128,2.128,0,0,0,1.8.85,4.19,4.19,0,0,0,1.484-.241,3.411,3.411,0,0,0,1.1-.664l.651,1.082a3.869,3.869,0,0,1-1.293.8A5.24,5.24,0,0,1,106.262,19.37Zm-.254-8.184a1.8,1.8,0,0,0-1.429.706,3.345,3.345,0,0,0-.727,1.771l.017.042h4.219v-.22a2.553,2.553,0,0,0-.524-1.64A1.867,1.867,0,0,0,106.008,11.186Zm10.931,5.58a1.134,1.134,0,0,0-.418-.9,3.935,3.935,0,0,0-1.585-.617,6.664,6.664,0,0,1-2.507-.985,2,2,0,0,1-.841-1.7,2.392,2.392,0,0,1,.947-1.9,4.307,4.307,0,0,1,5.009.034,2.425,2.425,0,0,1,.9,2l-.017.051h-1.589a1.455,1.455,0,0,0-.5-1.078A1.854,1.854,0,0,0,115,11.186a1.92,1.92,0,0,0-1.319.389,1.219,1.219,0,0,0-.431.938,1.046,1.046,0,0,0,.38.854,3.945,3.945,0,0,0,1.547.558,6.664,6.664,0,0,1,2.579,1.01,2.036,2.036,0,0,1,.845,1.712,2.363,2.363,0,0,1-.985,1.97,4.126,4.126,0,0,1-2.574.752,4.02,4.02,0,0,1-2.756-.888,2.533,2.533,0,0,1-.955-2.071l.017-.051h1.589a1.54,1.54,0,0,0,.659,1.3,2.551,2.551,0,0,0,1.446.41,2.357,2.357,0,0,0,1.391-.359A1.108,1.108,0,0,0,116.939,16.766Zm-82.851,9.9h1.665v8.9A3.4,3.4,0,0,1,34.71,38.19a3.827,3.827,0,0,1-2.71.968,4.187,4.187,0,0,1-2.824-.9,3.15,3.15,0,0,1-1.006-2.617l.017-.051h1.6a2.275,2.275,0,0,0,.579,1.7A2.252,2.252,0,0,0,32,37.856a1.971,1.971,0,0,0,1.5-.621,2.329,2.329,0,0,0,.583-1.661ZM42.17,39.158a3.859,3.859,0,0,1-3.039-1.272A4.79,4.79,0,0,1,38,34.584v-.372a4.691,4.691,0,0,1,1.162-3.251,3.581,3.581,0,0,1,2.752-1.3,3.465,3.465,0,0,1,2.8,1.116,4.446,4.446,0,0,1,.947,2.976V34.8H39.727l-.025.042a3.616,3.616,0,0,0,.668,2.169,2.128,2.128,0,0,0,1.8.85,4.19,4.19,0,0,0,1.484-.241,3.411,3.411,0,0,0,1.1-.664l.651,1.082a3.869,3.869,0,0,1-1.293.8A5.24,5.24,0,0,1,42.17,39.158Zm-.254-8.184a1.8,1.8,0,0,0-1.429.706,3.344,3.344,0,0,0-.727,1.771l.017.042H44v-.22a2.553,2.553,0,0,0-.524-1.64A1.867,1.867,0,0,0,41.917,30.974Zm9.942.33-.854-.051a1.907,1.907,0,0,0-1.112.313,2.007,2.007,0,0,0-.7.879V38.98H47.53V29.833h1.488l.161,1.336a3.175,3.175,0,0,1,.96-1.107,2.244,2.244,0,0,1,1.315-.4,2.058,2.058,0,0,1,.355.03,2.353,2.353,0,0,1,.279.063Zm7.414,6.324a3.1,3.1,0,0,1-1.108,1.133,3.03,3.03,0,0,1-1.564.4,2.939,2.939,0,0,1-2.333-.955,4.436,4.436,0,0,1-.837-2.976V29.833H55.1v5.411a3.406,3.406,0,0,0,.431,2.012,1.6,1.6,0,0,0,1.344.55,2.739,2.739,0,0,0,1.467-.359,2.248,2.248,0,0,0,.875-1.019V29.833H60.88V38.98h-1.5Zm9.35-1.074a1.134,1.134,0,0,0-.418-.9,3.935,3.935,0,0,0-1.585-.617,6.664,6.664,0,0,1-2.507-.985,2,2,0,0,1-.841-1.7,2.392,2.392,0,0,1,.947-1.9,4.307,4.307,0,0,1,5.009.034,2.425,2.425,0,0,1,.9,2l-.017.051H68.522a1.455,1.455,0,0,0-.5-1.078,1.854,1.854,0,0,0-1.332-.478,1.92,1.92,0,0,0-1.319.389,1.219,1.219,0,0,0-.431.938,1.046,1.046,0,0,0,.38.854,3.945,3.945,0,0,0,1.547.558,6.664,6.664,0,0,1,2.579,1.01,2.036,2.036,0,0,1,.845,1.712,2.363,2.363,0,0,1-.985,1.97,4.126,4.126,0,0,1-2.574.752,4.02,4.02,0,0,1-2.756-.888,2.533,2.533,0,0,1-.955-2.071l.017-.051h1.589a1.54,1.54,0,0,0,.659,1.3,2.551,2.551,0,0,0,1.446.41,2.357,2.357,0,0,0,1.391-.359A1.108,1.108,0,0,0,68.624,36.554Zm9.359,2.426q-.085-.414-.131-.731a5.367,5.367,0,0,1-.055-.638,3.883,3.883,0,0,1-1.213,1.1,3.1,3.1,0,0,1-1.611.444,2.99,2.99,0,0,1-2.177-.731,2.69,2.69,0,0,1-.748-2.016,2.362,2.362,0,0,1,1.061-2.05,4.955,4.955,0,0,1,2.879-.74H77.8v-.9a1.678,1.678,0,0,0-.49-1.272,1.925,1.925,0,0,0-1.386-.469,2,2,0,0,0-1.306.41,1.233,1.233,0,0,0-.5.985H72.521l-.017-.051a2.214,2.214,0,0,1,.943-1.826,3.872,3.872,0,0,1,2.566-.829,3.777,3.777,0,0,1,2.5.79,2.8,2.8,0,0,1,.947,2.278v4.4a8.574,8.574,0,0,0,.051.947,4.869,4.869,0,0,0,.186.9Zm-2.765-1.217A2.964,2.964,0,0,0,76.85,37.3a2.21,2.21,0,0,0,.947-1.065V34.745H75.928a2.424,2.424,0,0,0-1.611.507,1.517,1.517,0,0,0-.6,1.192,1.254,1.254,0,0,0,.38.964A1.593,1.593,0,0,0,75.218,37.763Zm8.463,1.217H82.015V25.792h1.665Zm6.358.178A3.859,3.859,0,0,1,87,37.885a4.79,4.79,0,0,1-1.129-3.3v-.372a4.691,4.691,0,0,1,1.162-3.251,3.581,3.581,0,0,1,2.752-1.3,3.465,3.465,0,0,1,2.8,1.116,4.446,4.446,0,0,1,.947,2.976V34.8H87.595l-.025.042a3.616,3.616,0,0,0,.668,2.169,2.128,2.128,0,0,0,1.8.85,4.19,4.19,0,0,0,1.484-.241,3.411,3.411,0,0,0,1.1-.664l.651,1.082a3.869,3.869,0,0,1-1.293.8A5.24,5.24,0,0,1,90.038,39.158Zm-.254-8.184a1.8,1.8,0,0,0-1.429.706,3.344,3.344,0,0,0-.727,1.771l.017.042h4.219v-.22a2.553,2.553,0,0,0-.524-1.64A1.867,1.867,0,0,0,89.784,30.974Zm7.1-1.141.118,1.2a3.107,3.107,0,0,1,1.137-1.01,3.417,3.417,0,0,1,1.6-.359,2.83,2.83,0,0,1,1.568.423,2.557,2.557,0,0,1,.985,1.268,3.393,3.393,0,0,1,1.141-1.234,3,3,0,0,1,1.657-.457,2.739,2.739,0,0,1,2.207.96,4.384,4.384,0,0,1,.812,2.887v5.47h-1.665V33.493a3.041,3.041,0,0,0-.465-1.915,1.7,1.7,0,0,0-1.386-.562,1.765,1.765,0,0,0-1.382.592,2.576,2.576,0,0,0-.621,1.5V38.98h-1.674V33.493a3,3,0,0,0-.478-1.881,1.658,1.658,0,0,0-1.374-.6,2.288,2.288,0,0,0-1.251.313,2.021,2.021,0,0,0-.752.879V38.98H95.4V29.833Z" transform="translate(871.029 1405.566)" fill="#5b9a77"/>
        <path id="Pfad_853" data-name="Pfad 853" d="M10.5,6.043l3.362,8.573h.043l3.362-8.573h1.826V16.594H17.666V12.42l.145-4.29-.036-.007-3.42,8.471h-.949L10,8.144l-.036.007L10.1,12.42v4.174H8.673V6.043ZM22.985,16.594H21.558V8.753h1.428Zm0-9.848H21.558V5.289h1.428Zm1.884,6.073A5.147,5.147,0,0,1,25.7,9.767a2.649,2.649,0,0,1,2.283-1.159,2.751,2.751,0,0,1,1.312.3,2.58,2.58,0,0,1,.942.866l.174-1.022h1.138v7.884a2.991,2.991,0,0,1-.877,2.315,3.6,3.6,0,0,1-2.529.808,5.3,5.3,0,0,1-1.221-.156,4.774,4.774,0,0,1-1.156-.424l.362-1.109a3.663,3.663,0,0,0,.928.351,4.466,4.466,0,0,0,1.072.134,2.079,2.079,0,0,0,1.518-.475,1.967,1.967,0,0,0,.475-1.446v-.884a2.493,2.493,0,0,1-.92.743,2.885,2.885,0,0,1-1.232.25A2.735,2.735,0,0,1,25.7,15.7a4.272,4.272,0,0,1-.826-2.732Zm1.428.152a3.258,3.258,0,0,0,.5,1.9,1.73,1.73,0,0,0,1.522.717,1.887,1.887,0,0,0,1.08-.293,2.227,2.227,0,0,0,.717-.83V10.854a2.215,2.215,0,0,0-.717-.793,1.882,1.882,0,0,0-1.065-.293,1.663,1.663,0,0,0-1.529.855,4.257,4.257,0,0,0-.507,2.2Zm11.029-2.957-.732-.043a1.635,1.635,0,0,0-.953.268,1.72,1.72,0,0,0-.6.754v5.6H33.616V8.753h1.275L35.029,9.9a2.722,2.722,0,0,1,.822-.949,1.923,1.923,0,0,1,1.127-.341,1.764,1.764,0,0,1,.3.025,2.017,2.017,0,0,1,.239.054Zm6.2,6.58q-.072-.355-.112-.627a4.6,4.6,0,0,1-.047-.547,3.329,3.329,0,0,1-1.04.946,2.659,2.659,0,0,1-1.38.38,2.563,2.563,0,0,1-1.866-.627,2.306,2.306,0,0,1-.641-1.728,2.025,2.025,0,0,1,.909-1.757A4.247,4.247,0,0,1,41.811,12h1.551v-.775a1.438,1.438,0,0,0-.42-1.091,1.65,1.65,0,0,0-1.188-.4,1.716,1.716,0,0,0-1.12.351,1.057,1.057,0,0,0-.431.844H38.84l-.014-.043a1.9,1.9,0,0,1,.808-1.565,3.319,3.319,0,0,1,2.2-.71,3.238,3.238,0,0,1,2.145.678,2.4,2.4,0,0,1,.812,1.953v3.775a7.349,7.349,0,0,0,.043.812,4.173,4.173,0,0,0,.159.768Zm-2.37-1.043a2.541,2.541,0,0,0,1.4-.4,1.894,1.894,0,0,0,.812-.913V12.963h-1.6a2.077,2.077,0,0,0-1.38.435,1.3,1.3,0,0,0-.518,1.022,1.075,1.075,0,0,0,.326.826A1.365,1.365,0,0,0,41.152,15.55Zm7.594-8.688V8.753h1.486V9.811H48.746v4.761a1.066,1.066,0,0,0,.228.775.825.825,0,0,0,.605.225,1.428,1.428,0,0,0,.272-.029,1.663,1.663,0,0,0,.264-.072l.188.978a1.26,1.26,0,0,1-.467.214,2.363,2.363,0,0,1-.62.083,1.849,1.849,0,0,1-1.384-.525,2.282,2.282,0,0,1-.514-1.649V9.811H46.072V8.753h1.246V6.862Zm4.79,9.732H52.109V8.753h1.428Zm0-9.848H52.109V5.289h1.428ZM55.4,12.6a4.317,4.317,0,0,1,.942-2.866,3.491,3.491,0,0,1,5.134,0,4.3,4.3,0,0,1,.946,2.87v.159a4.3,4.3,0,0,1-.942,2.87,3.507,3.507,0,0,1-5.134,0A4.288,4.288,0,0,1,55.4,12.76Zm1.428.159a3.719,3.719,0,0,0,.525,2.058,1.9,1.9,0,0,0,3.112,0,3.7,3.7,0,0,0,.529-2.058V12.6a3.688,3.688,0,0,0-.533-2.051A1.746,1.746,0,0,0,58.9,9.731a1.722,1.722,0,0,0-1.547.819,3.727,3.727,0,0,0-.525,2.051Zm8.616-4.007.1,1.167a2.847,2.847,0,0,1,.982-.967,2.62,2.62,0,0,1,1.344-.344,2.559,2.559,0,0,1,1.964.743,3.261,3.261,0,0,1,.7,2.294v4.949H69.1v-4.92a2.121,2.121,0,0,0-.409-1.471,1.64,1.64,0,0,0-1.25-.435,2.012,2.012,0,0,0-1.091.3,2.17,2.17,0,0,0-.757.812v5.717H64.167V8.753Z" transform="translate(832.008 1347.219)" fill="#939393"/>
        <path id="Pfad_858" data-name="Pfad 858" d="M18.71,14.95a1.751,1.751,0,0,0-.607-1.356,5.106,5.106,0,0,0-2.154-.919,7.137,7.137,0,0,1-2.919-1.312,2.71,2.71,0,0,1-1.049-2.178,2.855,2.855,0,0,1,1.13-2.3,4.478,4.478,0,0,1,2.927-.923,4.356,4.356,0,0,1,3.081,1.061,3.13,3.13,0,0,1,1.105,2.462l-.016.049H18.686A2.188,2.188,0,0,0,18,7.856a2.77,2.77,0,0,0-1.964-.64,2.75,2.75,0,0,0-1.826.538,1.754,1.754,0,0,0-.636,1.4,1.548,1.548,0,0,0,.688,1.283,6.532,6.532,0,0,0,2.235.9,6.377,6.377,0,0,1,2.834,1.36,2.911,2.911,0,0,1,.972,2.227,2.719,2.719,0,0,1-1.166,2.292,4.978,4.978,0,0,1-3.045.866,5.285,5.285,0,0,1-3.122-.956,2.883,2.883,0,0,1-1.316-2.559l.016-.049H13.2a1.981,1.981,0,0,0,.834,1.725,3.481,3.481,0,0,0,2.065.591,3.2,3.2,0,0,0,1.911-.51A1.621,1.621,0,0,0,18.71,14.95Zm6.3-.275.283,1.1h.049L27.5,9.16H29.27L25.585,19.266a4.543,4.543,0,0,1-.951,1.539,2.19,2.19,0,0,1-1.672.656,3.486,3.486,0,0,1-.494-.045q-.3-.045-.462-.085l.162-1.255a2.137,2.137,0,0,1,.287.016q.336.024.425.024a.985.985,0,0,0,.834-.453,4.708,4.708,0,0,0,.543-1l.381-.915L21.382,9.16h1.781ZM32.1,9.16l.113,1.15A2.976,2.976,0,0,1,33.3,9.342,3.273,3.273,0,0,1,34.833,9a2.711,2.711,0,0,1,1.5.4,2.449,2.449,0,0,1,.943,1.215,3.25,3.25,0,0,1,1.093-1.182A2.87,2.87,0,0,1,39.958,9a2.623,2.623,0,0,1,2.113.919,4.2,4.2,0,0,1,.777,2.765v5.239h-1.6V12.666a2.912,2.912,0,0,0-.445-1.834,1.624,1.624,0,0,0-1.328-.538,1.691,1.691,0,0,0-1.324.567,2.468,2.468,0,0,0-.6,1.433v5.628h-1.6V12.666a2.873,2.873,0,0,0-.458-1.8,1.588,1.588,0,0,0-1.316-.571,2.192,2.192,0,0,0-1.2.3,1.936,1.936,0,0,0-.721.842v6.486h-1.6V9.16Zm20.552,4.713a4.814,4.814,0,0,1-.911,3.057,3.01,3.01,0,0,1-2.506,1.162,3.2,3.2,0,0,1-1.506-.336,2.8,2.8,0,0,1-1.061-.992l-.194,1.158h-1.3V5.289h1.6V10.2a2.768,2.768,0,0,1,1.024-.891A3.141,3.141,0,0,1,49.214,9a2.912,2.912,0,0,1,2.526,1.3,5.828,5.828,0,0,1,.907,3.409Zm-1.6-.17a4.837,4.837,0,0,0-.555-2.458,1.826,1.826,0,0,0-1.688-.951,2.088,2.088,0,0,0-1.243.36,2.541,2.541,0,0,0-.806.968v3.8a2.609,2.609,0,0,0,.806,1.012,2.077,2.077,0,0,0,1.259.364,1.9,1.9,0,0,0,1.676-.8,3.681,3.681,0,0,0,.551-2.122Zm3.166-.243a4.824,4.824,0,0,1,1.053-3.2,3.9,3.9,0,0,1,5.737,0,4.808,4.808,0,0,1,1.057,3.207v.178a4.8,4.8,0,0,1-1.053,3.207,3.919,3.919,0,0,1-5.737,0,4.792,4.792,0,0,1-1.057-3.2Zm1.6.178a4.156,4.156,0,0,0,.587,2.3,2.121,2.121,0,0,0,3.478,0,4.134,4.134,0,0,0,.591-2.3V13.46a4.121,4.121,0,0,0-.6-2.292,1.951,1.951,0,0,0-1.745-.915,1.924,1.924,0,0,0-1.729.915,4.165,4.165,0,0,0-.587,2.292Zm9.928,4.284h-1.6V5.289h1.6Zm6.089.17a3.7,3.7,0,0,1-2.911-1.219,4.588,4.588,0,0,1-1.081-3.162v-.356a4.493,4.493,0,0,1,1.113-3.114A3.43,3.43,0,0,1,71.588,9a3.319,3.319,0,0,1,2.68,1.069,4.258,4.258,0,0,1,.907,2.85v1H69.49l-.024.04a3.463,3.463,0,0,0,.64,2.077,2.038,2.038,0,0,0,1.725.814,4.013,4.013,0,0,0,1.421-.231,3.267,3.267,0,0,0,1.057-.636l.624,1.036a3.706,3.706,0,0,1-1.239.769A5.019,5.019,0,0,1,71.831,18.091Zm-.243-7.839a1.728,1.728,0,0,0-1.369.676,3.2,3.2,0,0,0-.7,1.7l.016.04H73.58v-.211a2.445,2.445,0,0,0-.5-1.571A1.789,1.789,0,0,0,71.588,10.253Z" transform="translate(953.926 1478.089)" fill="#939393"/>
        <path id="Pfad_855" data-name="Pfad 855" d="M10.04,13.161H5.865L4.92,15.727H3.545L7.4,5.763H8.554l3.792,9.965H10.97ZM6.282,12.032H9.636L7.993,7.494H7.952Zm9.41.281h-.876v3.415H13.468V5.051h1.348v6.187h.862L17.7,8.322H19.32l-2.532,3.367,2.895,4.038H18.095Zm7.186,0H22v3.415H20.654V5.051H22v6.187h.862l2.026-2.915h1.615l-2.532,3.367,2.895,4.038H25.281Zm9.657,2.32a2.508,2.508,0,0,1-.9.917,2.453,2.453,0,0,1-1.266.322,2.379,2.379,0,0,1-1.889-.773,3.591,3.591,0,0,1-.678-2.409V8.322h1.348V12.7a2.757,2.757,0,0,0,.349,1.629,1.3,1.3,0,0,0,1.088.445,2.218,2.218,0,0,0,1.187-.291,1.82,1.82,0,0,0,.708-.825V8.322h1.348v7.405H32.624Zm4.722,1.1H35.909V5.051h1.348Zm3.853-9.191V8.322h1.4v1h-1.4v4.5a1.007,1.007,0,0,0,.216.732.779.779,0,0,0,.571.212,1.349,1.349,0,0,0,.257-.027,1.57,1.57,0,0,0,.25-.068l.178.924a1.19,1.19,0,0,1-.441.2,2.231,2.231,0,0,1-.585.079,1.746,1.746,0,0,1-1.307-.5,2.155,2.155,0,0,1-.486-1.557v-4.5H38.585v-1h1.177V6.536Zm7.768,8.1a2.508,2.508,0,0,1-.9.917,2.453,2.453,0,0,1-1.266.322,2.379,2.379,0,0,1-1.889-.773,3.591,3.591,0,0,1-.678-2.409V8.322H45.5V12.7a2.757,2.757,0,0,0,.349,1.629,1.3,1.3,0,0,0,1.088.445,2.218,2.218,0,0,0,1.187-.291,1.82,1.82,0,0,0,.708-.825V8.322h1.348v7.405H48.967Zm6.769-5.119-.691-.041a1.544,1.544,0,0,0-.9.253,1.625,1.625,0,0,0-.565.712v5.29H52.143V8.322h1.2l.13,1.081a2.57,2.57,0,0,1,.777-.9,1.816,1.816,0,0,1,1.064-.322,1.666,1.666,0,0,1,.287.024,1.9,1.9,0,0,1,.226.051Zm3.915,2.532H56.208V10.991h3.353ZM21.13,32.217q-.068-.335-.106-.592a4.345,4.345,0,0,1-.044-.517A3.144,3.144,0,0,1,20,32a2.512,2.512,0,0,1-1.3.359,2.421,2.421,0,0,1-1.762-.592,2.177,2.177,0,0,1-.606-1.632,1.912,1.912,0,0,1,.859-1.66,4.011,4.011,0,0,1,2.33-.6h1.465v-.732a1.358,1.358,0,0,0-.4-1.03,1.559,1.559,0,0,0-1.122-.38,1.62,1.62,0,0,0-1.057.332,1,1,0,0,0-.407.8H16.709l-.014-.041a1.792,1.792,0,0,1,.763-1.478,3.134,3.134,0,0,1,2.077-.671,3.058,3.058,0,0,1,2.026.64,2.267,2.267,0,0,1,.767,1.844v3.566a6.94,6.94,0,0,0,.041.767,3.941,3.941,0,0,0,.151.725Zm-2.238-.986a2.4,2.4,0,0,0,1.321-.376,1.789,1.789,0,0,0,.767-.862v-1.2H19.467a1.962,1.962,0,0,0-1.3.411,1.228,1.228,0,0,0-.489.965,1.016,1.016,0,0,0,.308.78A1.289,1.289,0,0,0,18.892,31.231Zm7.172-8.206v1.786h1.4v1h-1.4v4.5a1.007,1.007,0,0,0,.216.732.779.779,0,0,0,.571.212,1.349,1.349,0,0,0,.257-.027,1.571,1.571,0,0,0,.25-.068l.178.924a1.19,1.19,0,0,1-.441.2,2.231,2.231,0,0,1-.585.079,1.746,1.746,0,0,1-1.307-.5,2.155,2.155,0,0,1-.486-1.557v-4.5H23.539v-1h1.177V23.026Zm4.524,9.191H29.24V24.812h1.348Zm0-9.3H29.24V21.54h1.348Zm1.759,5.53a4.077,4.077,0,0,1,.89-2.707,3.3,3.3,0,0,1,4.849,0,4.064,4.064,0,0,1,.893,2.71V28.6a4.057,4.057,0,0,1-.89,2.71,3.312,3.312,0,0,1-4.849,0,4.05,4.05,0,0,1-.893-2.707ZM33.7,28.6a3.512,3.512,0,0,0,.5,1.944,1.792,1.792,0,0,0,2.939,0,3.494,3.494,0,0,0,.5-1.944v-.151a3.483,3.483,0,0,0-.5-1.937,1.649,1.649,0,0,0-1.475-.773,1.626,1.626,0,0,0-1.461.773,3.52,3.52,0,0,0-.5,1.937Zm8.137-3.785.1,1.1A2.689,2.689,0,0,1,42.856,25a2.474,2.474,0,0,1,1.27-.325,2.417,2.417,0,0,1,1.855.7,3.08,3.08,0,0,1,.657,2.166v4.674H45.289V27.57a2,2,0,0,0-.387-1.389,1.549,1.549,0,0,0-1.181-.411,1.9,1.9,0,0,0-1.03.281,2.049,2.049,0,0,0-.715.767v5.4H40.628V24.812Z" transform="translate(788.949 1431.407)" fill="#939393"/>
        <path id="Pfad_856" data-name="Pfad 856" d="M26.419,13.216a1.48,1.48,0,0,0-.513-1.146,4.316,4.316,0,0,0-1.82-.777,6.032,6.032,0,0,1-2.467-1.109,2.29,2.29,0,0,1-.886-1.841A2.413,2.413,0,0,1,21.687,6.4a3.784,3.784,0,0,1,2.474-.78,3.682,3.682,0,0,1,2.6.9A2.646,2.646,0,0,1,27.7,8.6l-.014.041H26.4A1.849,1.849,0,0,0,25.82,7.22a2.341,2.341,0,0,0-1.66-.541,2.324,2.324,0,0,0-1.543.455,1.482,1.482,0,0,0-.537,1.187,1.308,1.308,0,0,0,.582,1.085,5.52,5.52,0,0,0,1.889.763,5.39,5.39,0,0,1,2.4,1.15,2.461,2.461,0,0,1,.821,1.882,2.3,2.3,0,0,1-.986,1.937,4.207,4.207,0,0,1-2.573.732,4.466,4.466,0,0,1-2.638-.808A2.436,2.436,0,0,1,20.458,12.9l.014-.041h1.287a1.674,1.674,0,0,0,.7,1.458,2.942,2.942,0,0,0,1.745.5,2.7,2.7,0,0,0,1.615-.431A1.37,1.37,0,0,0,26.419,13.216Zm7.61,2.512q-.068-.335-.106-.592a4.345,4.345,0,0,1-.044-.517,3.144,3.144,0,0,1-.982.893,2.512,2.512,0,0,1-1.3.359,2.421,2.421,0,0,1-1.762-.592,2.177,2.177,0,0,1-.606-1.632,1.912,1.912,0,0,1,.859-1.66,4.011,4.011,0,0,1,2.33-.6h1.465v-.732a1.358,1.358,0,0,0-.4-1.03,1.559,1.559,0,0,0-1.122-.38,1.62,1.62,0,0,0-1.057.332,1,1,0,0,0-.407.8H29.609l-.014-.041a1.792,1.792,0,0,1,.763-1.478,3.134,3.134,0,0,1,2.077-.671,3.058,3.058,0,0,1,2.026.64,2.267,2.267,0,0,1,.767,1.844v3.566a6.941,6.941,0,0,0,.041.767,3.941,3.941,0,0,0,.151.725Zm-2.238-.986a2.4,2.4,0,0,0,1.321-.376,1.789,1.789,0,0,0,.767-.862V12.3H32.367a1.962,1.962,0,0,0-1.3.411,1.228,1.228,0,0,0-.489.965,1.015,1.015,0,0,0,.308.78A1.289,1.289,0,0,0,31.792,14.742Zm7.624-2.43H38.54v3.415H37.192V5.051H38.54v6.187H39.4l2.026-2.915h1.615l-2.532,3.367,2.895,4.038H41.818Zm8.459-2.8-.691-.041a1.544,1.544,0,0,0-.9.253,1.625,1.625,0,0,0-.565.712v5.29H44.371V8.322h1.2l.13,1.081a2.571,2.571,0,0,1,.777-.9,1.816,1.816,0,0,1,1.064-.322,1.666,1.666,0,0,1,.287.024,1.9,1.9,0,0,1,.226.051Zm5.852,6.214q-.068-.335-.106-.592a4.345,4.345,0,0,1-.044-.517,3.144,3.144,0,0,1-.982.893,2.512,2.512,0,0,1-1.3.359,2.421,2.421,0,0,1-1.762-.592,2.177,2.177,0,0,1-.606-1.632,1.912,1.912,0,0,1,.859-1.66,4.011,4.011,0,0,1,2.33-.6h1.465v-.732a1.358,1.358,0,0,0-.4-1.03,1.559,1.559,0,0,0-1.122-.38A1.62,1.62,0,0,0,51,9.578a1,1,0,0,0-.407.8H49.305l-.014-.041a1.792,1.792,0,0,1,.763-1.478,3.134,3.134,0,0,1,2.077-.671,3.058,3.058,0,0,1,2.026.64,2.267,2.267,0,0,1,.767,1.844v3.566a6.941,6.941,0,0,0,.041.767,3.942,3.942,0,0,0,.151.725Zm-2.238-.986a2.4,2.4,0,0,0,1.321-.376,1.789,1.789,0,0,0,.767-.862V12.3H52.063a1.962,1.962,0,0,0-1.3.411,1.228,1.228,0,0,0-.489.965,1.016,1.016,0,0,0,.308.78A1.289,1.289,0,0,0,51.488,14.742Zm6.851.986H56.991V5.051h1.348Zm4.688-3.682H59.674V10.991h3.353ZM26.888,29.619a4.069,4.069,0,0,1-.77,2.584A2.544,2.544,0,0,1,24,33.185a2.7,2.7,0,0,1-1.273-.284,2.367,2.367,0,0,1-.9-.838l-.164.979h-1.1V22.365h1.348v4.147a2.34,2.34,0,0,1,.866-.753,2.654,2.654,0,0,1,1.208-.26,2.461,2.461,0,0,1,2.135,1.1,4.925,4.925,0,0,1,.767,2.881Zm-1.348-.144a4.088,4.088,0,0,0-.469-2.077,1.543,1.543,0,0,0-1.427-.8,1.765,1.765,0,0,0-1.051.3,2.148,2.148,0,0,0-.681.818v3.21a2.2,2.2,0,0,0,.681.855,1.755,1.755,0,0,0,1.064.308,1.6,1.6,0,0,0,1.417-.678,3.111,3.111,0,0,0,.465-1.793Zm7.542,3.566q-.068-.335-.106-.592a4.345,4.345,0,0,1-.044-.517,3.144,3.144,0,0,1-.982.893,2.512,2.512,0,0,1-1.3.359,2.421,2.421,0,0,1-1.762-.592,2.177,2.177,0,0,1-.606-1.632,1.912,1.912,0,0,1,.859-1.66,4.011,4.011,0,0,1,2.33-.6h1.465V27.97a1.358,1.358,0,0,0-.4-1.03,1.559,1.559,0,0,0-1.122-.38,1.62,1.62,0,0,0-1.057.332,1,1,0,0,0-.407.8H28.661l-.014-.041a1.792,1.792,0,0,1,.763-1.478,3.134,3.134,0,0,1,2.077-.671,3.058,3.058,0,0,1,2.026.64,2.267,2.267,0,0,1,.767,1.844v3.566a6.941,6.941,0,0,0,.041.767,3.941,3.941,0,0,0,.151.725Zm-2.238-.986a2.4,2.4,0,0,0,1.321-.376,1.789,1.789,0,0,0,.767-.862v-1.2H31.419a1.962,1.962,0,0,0-1.3.411,1.228,1.228,0,0,0-.489.965,1.015,1.015,0,0,0,.308.78A1.289,1.289,0,0,0,30.844,32.056Zm10.095-.11a2.508,2.508,0,0,1-.9.917,2.453,2.453,0,0,1-1.266.322,2.379,2.379,0,0,1-1.889-.773A3.591,3.591,0,0,1,36.209,30V25.636h1.348v4.38a2.757,2.757,0,0,0,.349,1.629,1.3,1.3,0,0,0,1.088.445,2.218,2.218,0,0,0,1.187-.291,1.82,1.82,0,0,0,.708-.825V25.636h1.348v7.405H41.028Zm5.044-8.1v1.786h1.4v1h-1.4v4.5a1.007,1.007,0,0,0,.216.732.779.779,0,0,0,.571.212,1.349,1.349,0,0,0,.257-.027,1.571,1.571,0,0,0,.25-.068l.178.924a1.19,1.19,0,0,1-.441.2,2.231,2.231,0,0,1-.585.079,1.746,1.746,0,0,1-1.307-.5,2.155,2.155,0,0,1-.486-1.557v-4.5H43.457v-1h1.177V23.85Zm6.139,9.335a3.124,3.124,0,0,1-2.46-1.03,3.877,3.877,0,0,1-.914-2.673v-.3a3.8,3.8,0,0,1,.941-2.631A2.9,2.9,0,0,1,51.916,25.5a2.8,2.8,0,0,1,2.265.9,3.6,3.6,0,0,1,.767,2.409v.842h-4.8l-.021.034a2.927,2.927,0,0,0,.541,1.755,1.722,1.722,0,0,0,1.458.688,3.392,3.392,0,0,0,1.2-.2,2.761,2.761,0,0,0,.893-.537l.527.876a3.132,3.132,0,0,1-1.047.65A4.242,4.242,0,0,1,52.121,33.185Zm-.205-6.625a1.46,1.46,0,0,0-1.157.571,2.707,2.707,0,0,0-.589,1.434l.014.034H53.6v-.178a2.067,2.067,0,0,0-.424-1.328A1.512,1.512,0,0,0,51.916,26.56Zm5.749-.924.1,1.1a2.689,2.689,0,0,1,.927-.914,2.474,2.474,0,0,1,1.27-.325,2.417,2.417,0,0,1,1.855.7,3.08,3.08,0,0,1,.657,2.166v4.674H61.121V28.394a2,2,0,0,0-.387-1.389,1.549,1.549,0,0,0-1.181-.411,1.9,1.9,0,0,0-1.03.281,2.049,2.049,0,0,0-.715.767v5.4H56.46V25.636Z" transform="translate(845.098 1485.325)" fill="#8e7f6c"/>
        <path id="Pfad_852" data-name="Pfad 852" d="M30.258,12.664a1.337,1.337,0,0,0-.464-1.036,3.9,3.9,0,0,0-1.644-.7,5.449,5.449,0,0,1-2.229-1,2.069,2.069,0,0,1-.8-1.663,2.18,2.18,0,0,1,.862-1.756,3.418,3.418,0,0,1,2.235-.7,3.326,3.326,0,0,1,2.352.81,2.39,2.39,0,0,1,.844,1.879l-.012.037H30.24a1.671,1.671,0,0,0-.522-1.28,2.557,2.557,0,0,0-2.893-.077,1.339,1.339,0,0,0-.485,1.073,1.182,1.182,0,0,0,.525.98,4.987,4.987,0,0,0,1.706.689,4.869,4.869,0,0,1,2.164,1.039,2.223,2.223,0,0,1,.742,1.7,2.076,2.076,0,0,1-.89,1.75,3.8,3.8,0,0,1-2.324.661,4.034,4.034,0,0,1-2.383-.729,2.2,2.2,0,0,1-1-1.954l.012-.037h1.162a1.512,1.512,0,0,0,.637,1.317,2.657,2.657,0,0,0,1.576.451,2.441,2.441,0,0,0,1.459-.389A1.237,1.237,0,0,0,30.258,12.664Zm5.539,2.4a2.822,2.822,0,0,1-2.222-.93,3.5,3.5,0,0,1-.825-2.414v-.272a3.43,3.43,0,0,1,.85-2.377,2.618,2.618,0,0,1,2.012-.949,2.534,2.534,0,0,1,2.046.816,3.251,3.251,0,0,1,.692,2.176v.76h-4.34l-.019.031a2.644,2.644,0,0,0,.488,1.586,1.556,1.556,0,0,0,1.317.621,3.064,3.064,0,0,0,1.085-.176,2.494,2.494,0,0,0,.807-.485l.476.791a2.829,2.829,0,0,1-.946.587A3.832,3.832,0,0,1,35.8,15.063Zm-.185-5.984a1.319,1.319,0,0,0-1.045.516,2.446,2.446,0,0,0-.532,1.3l.012.031h3.085V10.76a1.867,1.867,0,0,0-.383-1.2A1.366,1.366,0,0,0,35.612,9.079Zm5.323.062a2.468,2.468,0,0,1,.85-.751A2.332,2.332,0,0,1,42.9,8.12a2.16,2.16,0,0,1,1.666.643,2.829,2.829,0,0,1,.6,1.978v4.191H43.945v-4.2a1.791,1.791,0,0,0-.355-1.224,1.353,1.353,0,0,0-1.06-.4,1.8,1.8,0,0,0-.918.238,1.989,1.989,0,0,0-.677.646v4.94H39.717V5.289h1.218ZM48,8.244l.087,1a2.429,2.429,0,0,1,.838-.825,2.235,2.235,0,0,1,1.147-.294,2.183,2.183,0,0,1,1.675.634,2.782,2.782,0,0,1,.593,1.957v4.222H51.123v-4.2a1.809,1.809,0,0,0-.349-1.255,1.4,1.4,0,0,0-1.066-.371,1.717,1.717,0,0,0-.93.253,1.851,1.851,0,0,0-.646.692v4.878H46.913V8.244Zm8.47,3.363H53.441v-.952H56.47ZM14.518,28.634a.829.829,0,0,0-.306-.661,2.877,2.877,0,0,0-1.159-.451,4.873,4.873,0,0,1-1.833-.72,1.459,1.459,0,0,1-.615-1.24A1.749,1.749,0,0,1,11.3,24.17,2.733,2.733,0,0,1,13.1,23.6a2.732,2.732,0,0,1,1.858.6,1.773,1.773,0,0,1,.658,1.459l-.012.037H14.444a1.064,1.064,0,0,0-.368-.788,1.356,1.356,0,0,0-.974-.349,1.4,1.4,0,0,0-.964.284.892.892,0,0,0-.315.686.765.765,0,0,0,.278.624,2.885,2.885,0,0,0,1.131.408,4.873,4.873,0,0,1,1.886.739,1.489,1.489,0,0,1,.618,1.252,1.728,1.728,0,0,1-.72,1.44,3.017,3.017,0,0,1-1.882.55,2.94,2.94,0,0,1-2.015-.649,1.852,1.852,0,0,1-.7-1.515l.012-.037h1.162a1.126,1.126,0,0,0,.482.949,1.866,1.866,0,0,0,1.057.3,1.724,1.724,0,0,0,1.017-.263A.81.81,0,0,0,14.518,28.634Zm6.98.785a2.266,2.266,0,0,1-.81.828,2.216,2.216,0,0,1-1.144.291,2.149,2.149,0,0,1-1.706-.7,3.243,3.243,0,0,1-.612-2.176V23.719h1.218v3.957a2.49,2.49,0,0,0,.315,1.471,1.172,1.172,0,0,0,.983.4,2,2,0,0,0,1.073-.263,1.644,1.644,0,0,0,.64-.745V23.719h1.218v6.689H21.578Zm5.669.167a1.642,1.642,0,0,0,1.066-.374,1.141,1.141,0,0,0,.461-.918h1.094l.012.037a1.876,1.876,0,0,1-.77,1.536,2.815,2.815,0,0,1-1.864.671,2.708,2.708,0,0,1-2.232-.952,3.673,3.673,0,0,1-.773-2.392v-.26a3.657,3.657,0,0,1,.776-2.383,3.045,3.045,0,0,1,4.148-.263,2.153,2.153,0,0,1,.72,1.7l-.012.037h-1.1a1.413,1.413,0,0,0-.433-1.042,1.489,1.489,0,0,0-1.094-.43,1.467,1.467,0,0,0-1.369.689,3.247,3.247,0,0,0-.411,1.691v.26a3.286,3.286,0,0,0,.408,1.709A1.47,1.47,0,0,0,27.167,29.586Zm5.218-4.97a2.468,2.468,0,0,1,.85-.751,2.332,2.332,0,0,1,1.116-.269,2.16,2.16,0,0,1,1.666.643,2.829,2.829,0,0,1,.6,1.978v4.191H35.4V26.2a1.791,1.791,0,0,0-.355-1.224,1.353,1.353,0,0,0-1.06-.4,1.8,1.8,0,0,0-.918.238,1.989,1.989,0,0,0-.677.646v4.94H31.167V20.764h1.218Zm7.585-2.51v1.614h1.267v.9H39.97v4.062a.909.909,0,0,0,.195.661.7.7,0,0,0,.516.192,1.219,1.219,0,0,0,.232-.025,1.419,1.419,0,0,0,.226-.062l.161.835a1.075,1.075,0,0,1-.4.182,2.016,2.016,0,0,1-.529.071,1.577,1.577,0,0,1-1.181-.448,1.947,1.947,0,0,1-.439-1.406V24.621H37.689v-.9h1.063V22.105Zm6.658,6.528a.829.829,0,0,0-.306-.661,2.877,2.877,0,0,0-1.159-.451,4.873,4.873,0,0,1-1.833-.72,1.459,1.459,0,0,1-.615-1.24,1.749,1.749,0,0,1,.692-1.391,3.15,3.15,0,0,1,3.663.025,1.773,1.773,0,0,1,.658,1.459l-.012.037H46.554a1.064,1.064,0,0,0-.368-.788,1.356,1.356,0,0,0-.974-.349,1.4,1.4,0,0,0-.964.284.892.892,0,0,0-.315.686.765.765,0,0,0,.278.624,2.885,2.885,0,0,0,1.131.408,4.873,4.873,0,0,1,1.886.739,1.489,1.489,0,0,1,.618,1.252,1.728,1.728,0,0,1-.72,1.44,3.017,3.017,0,0,1-1.882.55,2.94,2.94,0,0,1-2.015-.649,1.852,1.852,0,0,1-.7-1.515l.012-.037H43.7a1.126,1.126,0,0,0,.482.949,1.866,1.866,0,0,0,1.057.3,1.724,1.724,0,0,0,1.017-.263A.81.81,0,0,0,46.629,28.634ZM49.077,27a3.683,3.683,0,0,1,.8-2.445,2.978,2.978,0,0,1,4.38,0A3.671,3.671,0,0,1,55.067,27v.136a3.665,3.665,0,0,1-.8,2.448,2.992,2.992,0,0,1-4.38,0,3.658,3.658,0,0,1-.807-2.445Zm1.218.136a3.173,3.173,0,0,0,.448,1.756,1.619,1.619,0,0,0,2.655,0,3.156,3.156,0,0,0,.451-1.756V27a3.146,3.146,0,0,0-.454-1.75,1.489,1.489,0,0,0-1.332-.7,1.469,1.469,0,0,0-1.32.7A3.18,3.18,0,0,0,50.295,27Zm9.428-2.343-.624-.037a1.4,1.4,0,0,0-.813.229,1.468,1.468,0,0,0-.51.643v4.779H56.557V23.719h1.088l.117.977a2.322,2.322,0,0,1,.7-.81,1.641,1.641,0,0,1,.961-.291,1.5,1.5,0,0,1,.26.022,1.72,1.72,0,0,1,.2.046Zm2.887-2.689v1.614h1.267v.9H62.609v4.062a.909.909,0,0,0,.195.661.7.7,0,0,0,.516.192,1.219,1.219,0,0,0,.232-.025,1.419,1.419,0,0,0,.226-.062l.161.835a1.075,1.075,0,0,1-.4.182,2.016,2.016,0,0,1-.529.071,1.577,1.577,0,0,1-1.181-.448,1.947,1.947,0,0,1-.439-1.406V24.621H60.328v-.9h1.063V22.105Zm5.545,8.432a2.822,2.822,0,0,1-2.222-.93,3.5,3.5,0,0,1-.825-2.414v-.272a3.43,3.43,0,0,1,.85-2.377,2.618,2.618,0,0,1,2.012-.949,2.534,2.534,0,0,1,2.046.816,3.251,3.251,0,0,1,.692,2.176v.76h-4.34l-.019.031a2.644,2.644,0,0,0,.488,1.586,1.556,1.556,0,0,0,1.317.621,3.064,3.064,0,0,0,1.085-.176,2.494,2.494,0,0,0,.807-.485l.476.791a2.829,2.829,0,0,1-.946.587A3.832,3.832,0,0,1,68.155,30.538Zm-.185-5.984a1.319,1.319,0,0,0-1.045.516,2.446,2.446,0,0,0-.532,1.3l.012.031H69.49v-.161a1.867,1.867,0,0,0-.383-1.2A1.366,1.366,0,0,0,67.969,24.553Z" transform="translate(719.012 1393.657)" fill="#5b9a77"/>
      </g>
    </g>
  </g>
</svg>
